<?xml version="1.0" encoding="UTF-8" standalone="no"?>
<!DOCTYPE svg PUBLIC "-//W3C//DTD SVG 1.1//EN"
 "http://www.w3.org/Graphics/SVG/1.1/DTD/svg11.dtd">
<!-- Generated by graphviz version 9.0.0 (20230911.1827)
 -->
<!-- Title: Architecture Pages: 1 -->
<svg width="1068pt" height="952pt"
 viewBox="0.00 0.00 1068.00 952.25" xmlns="http://www.w3.org/2000/svg" xmlns:xlink="http://www.w3.org/1999/xlink">
<g id="graph0" class="graph" transform="scale(1 1) rotate(0) translate(4 948.25)">
<title>Architecture</title>
<polygon fill="white" stroke="none" points="-4,4 -4,-948.25 1064,-948.25 1064,4 -4,4"/>
<g id="clust10" class="cluster">
<title>cluster_spliter</title>
<polygon fill="none" stroke="black" stroke-dasharray="5,2" points="521,-448 521,-668.75 689,-668.75 689,-448 521,-448"/>
<text text-anchor="middle" x="605" y="-651.45" font-family="Times New Roman,serif" font-size="14.00">Spliter</text>
</g>
<g id="clust5" class="cluster">
<title>cluster_executor</title>
<polygon fill="none" stroke="black" stroke-dasharray="5,2" points="8,-676.75 8,-860.5 166,-860.5 166,-676.75 8,-676.75"/>
<text text-anchor="middle" x="87" y="-843.2" font-family="Times New Roman,serif" font-size="14.00">Executor</text>
</g>
<g id="clust6" class="cluster">
<title>cluster_experiment</title>
<polygon fill="none" stroke="black" stroke-dasharray="5,2" points="174,-8 174,-936.25 513,-936.25 513,-8 174,-8"/>
<text text-anchor="middle" x="343.5" y="-918.95" font-family="Times New Roman,serif" font-size="14.00">Experiment</text>
</g>
<g id="clust7" class="cluster">
<title>cluster_experiment_executor</title>
<polygon fill="none" stroke="black" stroke-dasharray="1,5" points="268,-16 268,-668.75 505,-668.75 505,-16 268,-16"/>
<text text-anchor="middle" x="386.5" y="-651.45" font-family="Times New Roman,serif" font-size="14.00">execute</text>
</g>
<g id="clust8" class="cluster">
<title>cluster_multiexperiment</title>
<polygon fill="none" stroke="black" stroke-dasharray="5,2" points="697,-368 697,-784.25 1052,-784.25 1052,-368 697,-368"/>
<text text-anchor="middle" x="874.5" y="-766.95" font-family="Times New Roman,serif" font-size="14.00">MultiExperiment</text>
</g>
<g id="clust9" class="cluster">
<title>cluster_multiexperiment_execute</title>
<polygon fill="none" stroke="black" stroke-dasharray="1,5" points="896,-376 896,-752.5 1044,-752.5 1044,-376 896,-376"/>
<text text-anchor="middle" x="970" y="-735.2" font-family="Times New Roman,serif" font-size="14.00">execute</text>
</g>
<!-- executor_legend -->
<g id="node1" class="node">
<title>executor_legend</title>
<polygon fill="violet" stroke="black" points="158.12,-828.75 95.88,-828.75 91.88,-824.75 91.88,-792.75 154.12,-792.75 158.12,-796.75 158.12,-828.75"/>
<polyline fill="none" stroke="black" points="154.12,-824.75 91.88,-824.75"/>
<polyline fill="none" stroke="black" points="154.12,-824.75 154.12,-792.75"/>
<polyline fill="none" stroke="black" points="154.12,-824.75 158.12,-828.75"/>
<text text-anchor="middle" x="125" y="-805.33" font-family="Times New Roman,serif" font-size="14.00">Executor</text>
</g>
<!-- experiment_legend -->
<g id="node3" class="node">
<title>experiment_legend</title>
<polygon fill="violet" stroke="black" points="421.5,-720.75 346.5,-720.75 342.5,-716.75 342.5,-684.75 417.5,-684.75 421.5,-688.75 421.5,-720.75"/>
<polyline fill="none" stroke="black" points="417.5,-716.75 342.5,-716.75"/>
<polyline fill="none" stroke="black" points="417.5,-716.75 417.5,-684.75"/>
<polyline fill="none" stroke="black" points="417.5,-716.75 421.5,-720.75"/>
<text text-anchor="middle" x="382" y="-697.33" font-family="Times New Roman,serif" font-size="14.00">Experiment</text>
</g>
<!-- executor_legend&#45;&gt;experiment_legend -->
<g id="edge20" class="edge">
<title>executor_legend&#45;&gt;experiment_legend</title>
<path fill="none" stroke="black" d="M166,-794.12C168,-793.43 170,-792.75 172,-792.06"/>
<polygon fill="black" stroke="black" points="164.25,-798.42 172.57,-791.86 161.98,-791.8 164.25,-798.42"/>
</g>
<!-- executor_execute_legend -->
<g id="node12" class="node">
<title>executor_execute_legend</title>
<polygon fill="cornflowerblue" stroke="black" points="114,-720.75 56,-720.75 56,-684.75 114,-684.75 114,-720.75"/>
<text text-anchor="middle" x="85" y="-697.33" font-family="Times New Roman,serif" font-size="14.00">execute</text>
</g>
<!-- executor_legend&#45;&gt;executor_execute_legend -->
<g id="edge2" class="edge">
<title>executor_legend&#45;&gt;executor_execute_legend</title>
<path fill="none" stroke="black" d="M118.57,-792.72C111.15,-773.06 99.01,-740.88 91.54,-721.09"/>
</g>
<!-- experiment_executor_list -->
<g id="node2" class="node">
<title>experiment_executor_list</title>
<polygon fill="violet" stroke="black" points="430.12,-904.5 427.12,-908.5 406.12,-908.5 403.12,-904.5 333.88,-904.5 333.88,-868.5 430.12,-868.5 430.12,-904.5"/>
<text text-anchor="middle" x="382" y="-881.08" font-family="Times New Roman,serif" font-size="14.00">List[Executor]</text>
</g>
<!-- experiment_executor_list_attribute -->
<g id="node32" class="node">
<title>experiment_executor_list_attribute</title>
<polygon fill="lightpink" stroke="black" points="333.88,-792.75 333.88,-828.75 430.12,-828.75 430.12,-792.75 333.88,-792.75"/>
<text text-anchor="middle" x="382" y="-805.33" font-family="Times New Roman,serif" font-size="14.00">List[Executor]</text>
</g>
<!-- experiment_executor_list&#45;&gt;experiment_executor_list_attribute -->
<g id="edge3" class="edge">
<title>experiment_executor_list&#45;&gt;experiment_executor_list_attribute</title>
<path fill="none" stroke="black" d="M382,-868.02C382,-859.76 382,-849.67 382,-840.34"/>
<polygon fill="black" stroke="black" points="385.5,-840.62 382,-830.62 378.5,-840.62 385.5,-840.62"/>
</g>
<!-- multiexperiment -->
<g id="node9" class="node">
<title>multiexperiment</title>
<polygon fill="violet" stroke="black" points="887.75,-637 784.25,-637 780.25,-633 780.25,-601 883.75,-601 887.75,-605 887.75,-637"/>
<polyline fill="none" stroke="black" points="883.75,-633 780.25,-633"/>
<polyline fill="none" stroke="black" points="883.75,-633 883.75,-601"/>
<polyline fill="none" stroke="black" points="883.75,-633 887.75,-637"/>
<text text-anchor="middle" x="834" y="-613.58" font-family="Times New Roman,serif" font-size="14.00">MultiExperiment</text>
</g>
<!-- experiment_legend&#45;&gt;multiexperiment -->
<g id="edge29" class="edge">
<title>experiment_legend&#45;&gt;multiexperiment</title>
<path fill="none" stroke="black" d="M513,-691.1C569.89,-686.45 634.97,-681.07 685.66,-676.75"/>
<polygon fill="black" stroke="black" points="685.83,-680.24 695.49,-675.9 685.23,-673.27 685.83,-680.24"/>
</g>
<!-- spliter_executor -->
<g id="node11" class="node">
<title>spliter_executor</title>
<polygon fill="violet" stroke="black" points="584,-637 534,-637 530,-633 530,-601 580,-601 584,-605 584,-637"/>
<polyline fill="none" stroke="black" points="580,-633 530,-633"/>
<polyline fill="none" stroke="black" points="580,-633 580,-601"/>
<polyline fill="none" stroke="black" points="580,-633 584,-637"/>
<text text-anchor="middle" x="557" y="-613.58" font-family="Times New Roman,serif" font-size="14.00">Spliter</text>
</g>
<!-- experiment_legend&#45;&gt;spliter_executor -->
<g id="edge32" class="edge">
<title>experiment_legend&#45;&gt;spliter_executor</title>
<path fill="none" stroke="black" d="M421.87,-697.01C448,-692.59 482.17,-684.24 513,-667.12"/>
<polygon fill="black" stroke="black" points="514.42,-670.5 519.84,-661.39 509.93,-665.13 514.42,-670.5"/>
</g>
<!-- experiment_execute_legend -->
<g id="node13" class="node">
<title>experiment_execute_legend</title>
<polygon fill="cornflowerblue" stroke="black" points="260,-637 202,-637 202,-601 260,-601 260,-637"/>
<text text-anchor="middle" x="231" y="-613.58" font-family="Times New Roman,serif" font-size="14.00">execute</text>
</g>
<!-- experiment_legend&#45;&gt;experiment_execute_legend -->
<g id="edge5" class="edge">
<title>experiment_legend&#45;&gt;experiment_execute_legend</title>
<path fill="none" stroke="black" d="M342.08,-697.62C317.68,-693.48 286.87,-685.22 264,-668.75 252.89,-660.75 244.37,-647.76 238.77,-637.21"/>
</g>
<!-- experiment_executor_0_in_list -->
<g id="node4" class="node">
<title>experiment_executor_0_in_list</title>
<polygon fill="violet" stroke="black" points="354.38,-637 281.62,-637 277.62,-633 277.62,-601 350.38,-601 354.38,-605 354.38,-637"/>
<polyline fill="none" stroke="black" points="350.38,-633 277.62,-633"/>
<polyline fill="none" stroke="black" points="350.38,-633 350.38,-601"/>
<polyline fill="none" stroke="black" points="350.38,-633 354.38,-637"/>
<text text-anchor="middle" x="316" y="-613.58" font-family="Times New Roman,serif" font-size="14.00">Executor 0</text>
</g>
<!-- experiment_execute_0 -->
<g id="node14" class="node">
<title>experiment_execute_0</title>
<polygon fill="cornflowerblue" stroke="black" points="347.25,-565 278.75,-565 278.75,-529 347.25,-529 347.25,-565"/>
<text text-anchor="middle" x="313" y="-541.58" font-family="Times New Roman,serif" font-size="14.00">execute 0</text>
</g>
<!-- experiment_executor_0_in_list&#45;&gt;experiment_execute_0 -->
<g id="edge8" class="edge">
<title>experiment_executor_0_in_list&#45;&gt;experiment_execute_0</title>
<path fill="none" stroke="black" d="M315.26,-600.7C314.79,-589.85 314.2,-575.92 313.73,-565.1"/>
</g>
<!-- experiment_executor_1_in_list -->
<g id="node5" class="node">
<title>experiment_executor_1_in_list</title>
<polygon fill="violet" stroke="black" points="355.38,-492.5 282.62,-492.5 278.62,-488.5 278.62,-456.5 351.38,-456.5 355.38,-460.5 355.38,-492.5"/>
<polyline fill="none" stroke="black" points="351.38,-488.5 278.62,-488.5"/>
<polyline fill="none" stroke="black" points="351.38,-488.5 351.38,-456.5"/>
<polyline fill="none" stroke="black" points="351.38,-488.5 355.38,-492.5"/>
<text text-anchor="middle" x="317" y="-469.07" font-family="Times New Roman,serif" font-size="14.00">Executor 1</text>
</g>
<!-- experiment_execute_1 -->
<g id="node15" class="node">
<title>experiment_execute_1</title>
<polygon fill="cornflowerblue" stroke="black" points="465.25,-420 396.75,-420 396.75,-384 465.25,-384 465.25,-420"/>
<text text-anchor="middle" x="431" y="-396.57" font-family="Times New Roman,serif" font-size="14.00">execute 1</text>
</g>
<!-- experiment_executor_1_in_list&#45;&gt;experiment_execute_1 -->
<g id="edge11" class="edge">
<title>experiment_executor_1_in_list&#45;&gt;experiment_execute_1</title>
<path fill="none" stroke="black" d="M345.18,-456.07C362.72,-445.23 385.2,-431.33 402.75,-420.47"/>
</g>
<!-- experiment_executor_dotted_in_list -->
<g id="node6" class="node">
<title>experiment_executor_dotted_in_list</title>
<polygon fill="violet" stroke="black" points="356,-348 306,-348 302,-344 302,-312 352,-312 356,-316 356,-348"/>
<polyline fill="none" stroke="black" points="352,-344 302,-344"/>
<polyline fill="none" stroke="black" points="352,-344 352,-312"/>
<polyline fill="none" stroke="black" points="352,-344 356,-348"/>
<text text-anchor="middle" x="329" y="-324.57" font-family="Times New Roman,serif" font-size="14.00">...</text>
</g>
<!-- experiment_execute_dotted -->
<g id="node16" class="node">
<title>experiment_execute_dotted</title>
<polygon fill="cornflowerblue" stroke="black" points="459,-276 405,-276 405,-240 459,-240 459,-276"/>
<text text-anchor="middle" x="432" y="-252.57" font-family="Times New Roman,serif" font-size="14.00">...</text>
</g>
<!-- experiment_executor_dotted_in_list&#45;&gt;experiment_execute_dotted -->
<g id="edge14" class="edge">
<title>experiment_executor_dotted_in_list&#45;&gt;experiment_execute_dotted</title>
<path fill="none" stroke="black" d="M354.73,-311.52C370.58,-300.74 390.81,-286.99 406.6,-276.26"/>
</g>
<!-- experiment_executor_n_in_list -->
<g id="node7" class="node">
<title>experiment_executor_n_in_list</title>
<polygon fill="violet" stroke="black" points="352.38,-204 279.62,-204 275.62,-200 275.62,-168 348.38,-168 352.38,-172 352.38,-204"/>
<polyline fill="none" stroke="black" points="348.38,-200 275.62,-200"/>
<polyline fill="none" stroke="black" points="348.38,-200 348.38,-168"/>
<polyline fill="none" stroke="black" points="348.38,-200 352.38,-204"/>
<text text-anchor="middle" x="314" y="-180.57" font-family="Times New Roman,serif" font-size="14.00">Executor n</text>
</g>
<!-- experiment_execute_n -->
<g id="node17" class="node">
<title>experiment_execute_n</title>
<polygon fill="cornflowerblue" stroke="black" points="418.25,-132 349.75,-132 349.75,-96 418.25,-96 418.25,-132"/>
<text text-anchor="middle" x="384" y="-108.58" font-family="Times New Roman,serif" font-size="14.00">execute n</text>
</g>
<!-- experiment_executor_n_in_list&#45;&gt;experiment_execute_n -->
<g id="edge17" class="edge">
<title>experiment_executor_n_in_list&#45;&gt;experiment_execute_n</title>
<path fill="none" stroke="black" d="M331.3,-167.7C342.15,-156.85 356.08,-142.92 366.9,-132.1"/>
</g>
<!-- multiexperiment_experiment -->
<g id="node8" class="node">
<title>multiexperiment_experiment</title>
<polygon fill="violet" stroke="black" points="873.5,-720.75 798.5,-720.75 794.5,-716.75 794.5,-684.75 869.5,-684.75 873.5,-688.75 873.5,-720.75"/>
<polyline fill="none" stroke="black" points="869.5,-716.75 794.5,-716.75"/>
<polyline fill="none" stroke="black" points="869.5,-716.75 869.5,-684.75"/>
<polyline fill="none" stroke="black" points="869.5,-716.75 873.5,-720.75"/>
<text text-anchor="middle" x="834" y="-697.33" font-family="Times New Roman,serif" font-size="14.00">Experiment</text>
</g>
<!-- multiexperiment_experiment&#45;&gt;multiexperiment -->
<g id="edge21" class="edge">
<title>multiexperiment_experiment&#45;&gt;multiexperiment</title>
<path fill="none" stroke="black" d="M834,-684.41C834,-670.54 834,-651.18 834,-637.31"/>
</g>
<!-- multiexperiment_execute -->
<g id="node18" class="node">
<title>multiexperiment_execute</title>
<polygon fill="cornflowerblue" stroke="black" points="813,-565 755,-565 755,-529 813,-529 813,-565"/>
<text text-anchor="middle" x="784" y="-541.58" font-family="Times New Roman,serif" font-size="14.00">execute</text>
</g>
<!-- multiexperiment&#45;&gt;multiexperiment_execute -->
<g id="edge22" class="edge">
<title>multiexperiment&#45;&gt;multiexperiment_execute</title>
<path fill="none" stroke="black" d="M821.64,-600.7C813.89,-589.85 803.94,-575.92 796.22,-565.1"/>
</g>
<!-- multiexperiment_execte_executor -->
<g id="node10" class="node">
<title>multiexperiment_execte_executor</title>
<polygon fill="violet" stroke="black" points="1014.12,-720.75 951.88,-720.75 947.88,-716.75 947.88,-684.75 1010.12,-684.75 1014.12,-688.75 1014.12,-720.75"/>
<polyline fill="none" stroke="black" points="1010.12,-716.75 947.88,-716.75"/>
<polyline fill="none" stroke="black" points="1010.12,-716.75 1010.12,-684.75"/>
<polyline fill="none" stroke="black" points="1010.12,-716.75 1014.12,-720.75"/>
<text text-anchor="middle" x="981" y="-697.33" font-family="Times New Roman,serif" font-size="14.00">Executor</text>
</g>
<!-- multiexperiment_executor_execute -->
<g id="node19" class="node">
<title>multiexperiment_executor_execute</title>
<polygon fill="cornflowerblue" stroke="black" points="1010,-637 952,-637 952,-601 1010,-601 1010,-637"/>
<text text-anchor="middle" x="981" y="-613.58" font-family="Times New Roman,serif" font-size="14.00">execute</text>
</g>
<!-- multiexperiment_execte_executor&#45;&gt;multiexperiment_executor_execute -->
<g id="edge24" class="edge">
<title>multiexperiment_execte_executor&#45;&gt;multiexperiment_executor_execute</title>
<path fill="none" stroke="black" d="M981,-684.41C981,-670.54 981,-651.18 981,-637.31"/>
</g>
<!-- spliter_execute -->
<g id="node21" class="node">
<title>spliter_execute</title>
<polygon fill="cornflowerblue" stroke="black" points="610,-565 552,-565 552,-529 610,-529 610,-565"/>
<text text-anchor="middle" x="581" y="-541.58" font-family="Times New Roman,serif" font-size="14.00">execute</text>
</g>
<!-- spliter_executor&#45;&gt;spliter_execute -->
<g id="edge30" class="edge">
<title>spliter_executor&#45;&gt;spliter_execute</title>
<path fill="none" stroke="black" d="M562.93,-600.7C565.49,-593.24 568.55,-584.32 571.41,-575.97"/>
<polygon fill="black" stroke="black" points="574.71,-577.13 574.64,-566.54 568.09,-574.86 574.71,-577.13"/>
</g>
<!-- experiment_execute_legend&#45;&gt;experiment_execute_0 -->
<g id="edge19" class="edge">
<title>experiment_execute_legend&#45;&gt;experiment_execute_0</title>
<path fill="none" stroke="black" d="M251.27,-600.7C256.42,-596.3 262.15,-591.4 268,-586.41"/>
</g>
<!-- experiment_data_0 -->
<g id="node24" class="node">
<title>experiment_data_0</title>
<polygon fill="lightgreen" stroke="black" points="482.5,-492.5 373.5,-492.5 373.5,-456.5 488.5,-456.5 488.5,-486.5 482.5,-492.5"/>
<polyline fill="none" stroke="black" points="482.5,-492.5 482.5,-486.5"/>
<polyline fill="none" stroke="black" points="488.5,-486.5 482.5,-486.5"/>
<text text-anchor="middle" x="431" y="-469.07" font-family="Times New Roman,serif" font-size="14.00">ExperimentData 0</text>
</g>
<!-- experiment_execute_0&#45;&gt;experiment_data_0 -->
<g id="edge9" class="edge">
<title>experiment_execute_0&#45;&gt;experiment_data_0</title>
<path fill="none" stroke="black" d="M342.17,-528.57C357.2,-519.59 375.74,-508.51 391.99,-498.81"/>
<polygon fill="black" stroke="black" points="393.67,-501.88 400.46,-493.75 390.08,-495.87 393.67,-501.88"/>
</g>
<!-- experiment_data_1 -->
<g id="node25" class="node">
<title>experiment_data_1</title>
<polygon fill="lightgreen" stroke="black" points="483.5,-348 374.5,-348 374.5,-312 489.5,-312 489.5,-342 483.5,-348"/>
<polyline fill="none" stroke="black" points="483.5,-348 483.5,-342"/>
<polyline fill="none" stroke="black" points="489.5,-342 483.5,-342"/>
<text text-anchor="middle" x="432" y="-324.57" font-family="Times New Roman,serif" font-size="14.00">ExperimentData 1</text>
</g>
<!-- experiment_execute_1&#45;&gt;experiment_data_1 -->
<g id="edge12" class="edge">
<title>experiment_execute_1&#45;&gt;experiment_data_1</title>
<path fill="none" stroke="black" d="M431.25,-383.7C431.35,-376.41 431.48,-367.73 431.59,-359.54"/>
<polygon fill="black" stroke="black" points="435.09,-359.67 431.73,-349.62 428.09,-359.57 435.09,-359.67"/>
</g>
<!-- experiment_data_n -->
<g id="node26" class="node">
<title>experiment_data_n</title>
<polygon fill="lightgreen" stroke="black" points="491.12,-204 370.88,-204 370.88,-168 497.12,-168 497.12,-198 491.12,-204"/>
<polyline fill="none" stroke="black" points="491.12,-204 491.12,-198"/>
<polyline fill="none" stroke="black" points="497.12,-198 491.12,-198"/>
<text text-anchor="middle" x="434" y="-180.57" font-family="Times New Roman,serif" font-size="14.00">ExperimentData n&#45;1</text>
</g>
<!-- experiment_execute_dotted&#45;&gt;experiment_data_n -->
<g id="edge15" class="edge">
<title>experiment_execute_dotted&#45;&gt;experiment_data_n</title>
<path fill="none" stroke="black" d="M432.49,-239.7C432.7,-232.41 432.95,-223.73 433.18,-215.54"/>
<polygon fill="black" stroke="black" points="436.68,-215.71 433.47,-205.62 429.68,-215.51 436.68,-215.71"/>
</g>
<!-- experiment_data_final -->
<g id="node27" class="node">
<title>experiment_data_final</title>
<polygon fill="lightgreen" stroke="black" points="435.5,-60 326.5,-60 326.5,-24 441.5,-24 441.5,-54 435.5,-60"/>
<polyline fill="none" stroke="black" points="435.5,-60 435.5,-54"/>
<polyline fill="none" stroke="black" points="441.5,-54 435.5,-54"/>
<text text-anchor="middle" x="384" y="-36.58" font-family="Times New Roman,serif" font-size="14.00">ExperimentData n</text>
</g>
<!-- experiment_execute_n&#45;&gt;experiment_data_final -->
<g id="edge18" class="edge">
<title>experiment_execute_n&#45;&gt;experiment_data_final</title>
<path fill="none" stroke="black" d="M384,-95.7C384,-88.41 384,-79.73 384,-71.54"/>
<polygon fill="black" stroke="black" points="387.5,-71.62 384,-61.62 380.5,-71.62 387.5,-71.62"/>
</g>
<!-- multiexperiment_executor_experiment_data -->
<g id="node29" class="node">
<title>multiexperiment_executor_experiment_data</title>
<polygon fill="lightgreen" stroke="black" points="1009.62,-565 904.38,-565 904.38,-529 1015.62,-529 1015.62,-559 1009.62,-565"/>
<polyline fill="none" stroke="black" points="1009.62,-565 1009.62,-559"/>
<polyline fill="none" stroke="black" points="1015.62,-559 1009.62,-559"/>
<text text-anchor="middle" x="960" y="-541.58" font-family="Times New Roman,serif" font-size="14.00">ExperimentData i</text>
</g>
<!-- multiexperiment_executor_execute&#45;&gt;multiexperiment_executor_experiment_data -->
<g id="edge25" class="edge">
<title>multiexperiment_executor_execute&#45;&gt;multiexperiment_executor_experiment_data</title>
<path fill="none" stroke="black" d="M975.81,-600.7C973.57,-593.24 970.9,-584.32 968.39,-575.97"/>
<polygon fill="black" stroke="black" points="971.79,-575.13 965.57,-566.55 965.09,-577.14 971.79,-575.13"/>
</g>
<!-- multiexperiment_execute_data_append -->
<g id="node20" class="node">
<title>multiexperiment_execute_data_append</title>
<polygon fill="cornflowerblue" stroke="black" points="994.62,-492.5 937.38,-492.5 937.38,-456.5 994.62,-456.5 994.62,-492.5"/>
<text text-anchor="middle" x="966" y="-469.07" font-family="Times New Roman,serif" font-size="14.00">append</text>
</g>
<!-- multiexperiment_executor_result_data -->
<g id="node30" class="node">
<title>multiexperiment_executor_result_data</title>
<polygon fill="lightgreen" stroke="black" points="1024.25,-420 925.75,-420 925.75,-384 1030.25,-384 1030.25,-414 1024.25,-420"/>
<polyline fill="none" stroke="black" points="1024.25,-420 1024.25,-414"/>
<polyline fill="none" stroke="black" points="1030.25,-414 1024.25,-414"/>
<text text-anchor="middle" x="978" y="-396.57" font-family="Times New Roman,serif" font-size="14.00">ExperimentData</text>
</g>
<!-- multiexperiment_execute_data_append&#45;&gt;multiexperiment_executor_result_data -->
<g id="edge27" class="edge">
<title>multiexperiment_execute_data_append&#45;&gt;multiexperiment_executor_result_data</title>
<path fill="none" stroke="black" d="M968.97,-456.07C970.23,-448.65 971.74,-439.79 973.16,-431.45"/>
<polygon fill="black" stroke="black" points="976.59,-432.16 974.81,-421.72 969.69,-430.99 976.59,-432.16"/>
</g>
<!-- spliter_data -->
<g id="node31" class="node">
<title>spliter_data</title>
<polygon fill="lightgreen" stroke="black" points="529.38,-456.5 529.38,-492.5 680.62,-492.5 680.62,-456.5 529.38,-456.5"/>
<text text-anchor="middle" x="558" y="-469.07" font-family="Times New Roman,serif" font-size="14.00">Dataset</text>
<polyline fill="none" stroke="black" points="586.62,-456.5 586.62,-492.5"/>
<text text-anchor="middle" x="633.62" y="-469.07" font-family="Times New Roman,serif" font-size="14.00">group column</text>
</g>
<!-- spliter_execute&#45;&gt;spliter_data -->
<g id="edge31" class="edge">
<title>spliter_execute&#45;&gt;spliter_data</title>
<path fill="none" stroke="black" d="M586.93,-528.57C589.52,-520.97 592.62,-511.88 595.51,-503.38"/>
<polygon fill="black" stroke="black" points="598.74,-504.75 598.65,-494.16 592.11,-502.5 598.74,-504.75"/>
</g>
<!-- executor_legend_data -->
<g id="node22" class="node">
<title>executor_legend_data</title>
<polygon fill="lightgreen" stroke="black" points="67.62,-828.75 16.38,-828.75 16.38,-792.75 73.62,-792.75 73.62,-822.75 67.62,-828.75"/>
<polyline fill="none" stroke="black" points="67.62,-828.75 67.62,-822.75"/>
<polyline fill="none" stroke="black" points="73.62,-822.75 67.62,-822.75"/>
<text text-anchor="middle" x="45" y="-805.33" font-family="Times New Roman,serif" font-size="14.00">Dataset</text>
</g>
<!-- executor_legend_data&#45;&gt;executor_execute_legend -->
<g id="edge1" class="edge">
<title>executor_legend_data&#45;&gt;executor_execute_legend</title>
<path fill="none" stroke="black" d="M51.43,-792.72C57.63,-776.28 67.13,-751.1 74.44,-731.72"/>
<polygon fill="black" stroke="black" points="77.67,-733.1 77.92,-722.51 71.12,-730.63 77.67,-733.1"/>
</g>
<!-- experiment_legend_data -->
<g id="node23" class="node">
<title>experiment_legend_data</title>
<polygon fill="lightgreen" stroke="black" points="243.62,-720.75 192.38,-720.75 192.38,-684.75 249.62,-684.75 249.62,-714.75 243.62,-720.75"/>
<polyline fill="none" stroke="black" points="243.62,-720.75 243.62,-714.75"/>
<polyline fill="none" stroke="black" points="249.62,-714.75 243.62,-714.75"/>
<text text-anchor="middle" x="221" y="-697.33" font-family="Times New Roman,serif" font-size="14.00">Dataset</text>
</g>
<!-- experiment_legend_data&#45;&gt;experiment_execute_legend -->
<g id="edge6" class="edge">
<title>experiment_legend_data&#45;&gt;experiment_execute_legend</title>
<path fill="none" stroke="black" d="M223.12,-684.41C224.39,-674.01 226.04,-660.52 227.51,-648.57"/>
<polygon fill="black" stroke="black" points="230.96,-649.17 228.7,-638.81 224.01,-648.32 230.96,-649.17"/>
</g>
<!-- experiment_legend_data&#45;&gt;experiment_execute_0 -->
<g id="edge7" class="edge">
<title>experiment_legend_data&#45;&gt;experiment_execute_0</title>
<path fill="none" stroke="black" stroke-dasharray="1,5" d="M202.43,-684.4C198.58,-679.73 195.07,-674.39 193,-668.75 182.62,-640.48 176.56,-626.23 193,-601 209.43,-575.79 240.86,-562.48 267.44,-555.51"/>
<polygon fill="black" stroke="black" points="268.08,-558.95 277,-553.24 266.46,-552.14 268.08,-558.95"/>
</g>
<!-- experiment_data_0&#45;&gt;experiment_execute_1 -->
<g id="edge10" class="edge">
<title>experiment_data_0&#45;&gt;experiment_execute_1</title>
<path fill="none" stroke="black" d="M431,-456.07C431,-448.73 431,-439.99 431,-431.74"/>
<polygon fill="black" stroke="black" points="434.5,-431.74 431,-421.74 427.5,-431.74 434.5,-431.74"/>
</g>
<!-- experiment_data_1&#45;&gt;experiment_execute_dotted -->
<g id="edge13" class="edge">
<title>experiment_data_1&#45;&gt;experiment_execute_dotted</title>
<path fill="none" stroke="black" d="M432,-311.7C432,-304.41 432,-295.73 432,-287.54"/>
<polygon fill="black" stroke="black" points="435.5,-287.62 432,-277.62 428.5,-287.62 435.5,-287.62"/>
</g>
<!-- experiment_data_n&#45;&gt;experiment_execute_n -->
<g id="edge16" class="edge">
<title>experiment_data_n&#45;&gt;experiment_execute_n</title>
<path fill="none" stroke="black" d="M421.64,-167.7C415.95,-159.73 409.07,-150.1 402.76,-141.26"/>
<polygon fill="black" stroke="black" points="405.76,-139.44 397.1,-133.34 400.06,-143.51 405.76,-139.44"/>
</g>
<!-- multiexperiment_data -->
<g id="node28" class="node">
<title>multiexperiment_data</title>
<polygon fill="lightgreen" stroke="black" points="756.62,-637 705.38,-637 705.38,-601 762.62,-601 762.62,-631 756.62,-637"/>
<polyline fill="none" stroke="black" points="756.62,-637 756.62,-631"/>
<polyline fill="none" stroke="black" points="762.62,-631 756.62,-631"/>
<text text-anchor="middle" x="734" y="-613.58" font-family="Times New Roman,serif" font-size="14.00">Dataset</text>
</g>
<!-- multiexperiment_data&#45;&gt;multiexperiment_execute -->
<g id="edge23" class="edge">
<title>multiexperiment_data&#45;&gt;multiexperiment_execute</title>
<path fill="none" stroke="black" d="M746.36,-600.7C752.05,-592.73 758.93,-583.1 765.24,-574.26"/>
<polygon fill="black" stroke="black" points="767.94,-576.51 770.9,-566.34 762.24,-572.44 767.94,-576.51"/>
</g>
<!-- multiexperiment_executor_experiment_data&#45;&gt;multiexperiment_execute_data_append -->
<g id="edge26" class="edge">
<title>multiexperiment_executor_experiment_data&#45;&gt;multiexperiment_execute_data_append</title>
<path fill="none" stroke="black" d="M961.48,-528.57C962.12,-521.15 962.87,-512.29 963.58,-503.95"/>
<polygon fill="black" stroke="black" points="967.04,-504.5 964.41,-494.23 960.07,-503.9 967.04,-504.5"/>
</g>
<!-- multiexperiment_executor_result_data&#45;&gt;multiexperiment_executor_execute -->
<g id="edge28" class="edge">
<title>multiexperiment_executor_result_data&#45;&gt;multiexperiment_executor_execute</title>
<path fill="none" stroke="black" stroke-dasharray="5,2" d="M990.14,-420.26C1009.58,-450.12 1043.69,-513.22 1025,-565 1021.4,-574.97 1015.02,-584.39 1008.21,-592.45"/>
<polygon fill="black" stroke="black" points="1005.65,-590.06 1001.49,-599.8 1010.82,-594.78 1005.65,-590.06"/>
</g>
<!-- experiment_executor_list_attribute&#45;&gt;experiment_legend -->
<g id="edge4" class="edge">
<title>experiment_executor_list_attribute&#45;&gt;experiment_legend</title>
<path fill="none" stroke="black" d="M382,-792.72C382,-773.06 382,-740.88 382,-721.09"/>
</g>
</g>
</svg>
