<?xml version="1.0" encoding="UTF-8" standalone="no"?>
<!DOCTYPE svg PUBLIC "-//W3C//DTD SVG 1.1//EN"
 "http://www.w3.org/Graphics/SVG/1.1/DTD/svg11.dtd">
<!-- Generated by graphviz version 9.0.0 (20230911.1827)
 -->
<!-- Title: Architecture Pages: 1 -->
<svg width="1904pt" height="1044pt"
 viewBox="0.00 0.00 1904.00 1043.50" xmlns="http://www.w3.org/2000/svg" xmlns:xlink="http://www.w3.org/1999/xlink">
<g id="graph0" class="graph" transform="scale(1 1) rotate(0) translate(4 1039.5)">
<title>Architecture</title>
<polygon fill="white" stroke="none" points="-4,4 -4,-1039.5 1900,-1039.5 1900,4 -4,4"/>
<g id="clust5" class="cluster">
<title>cluster_executors</title>
<polygon fill="none" stroke="black" points="8,-531 8,-932.75 1247,-932.75 1247,-531 8,-531"/>
<text text-anchor="middle" x="627.5" y="-915.45" font-family="Times New Roman,serif" font-size="14.00">Executors</text>
</g>
<g id="clust6" class="cluster">
<title>cluster_executor</title>
<polygon fill="none" stroke="black" stroke-dasharray="5,2" points="16,-729.5 16,-901 174,-901 174,-729.5 16,-729.5"/>
<text text-anchor="middle" x="95" y="-883.7" font-family="Times New Roman,serif" font-size="14.00">Executor</text>
</g>
<g id="clust11" class="cluster">
<title>cluster_operator</title>
<polygon fill="none" stroke="black" stroke-dasharray="5,2" points="1023,-539.5 1023,-805.75 1239,-805.75 1239,-539.5 1023,-539.5"/>
<text text-anchor="middle" x="1131" y="-788.45" font-family="Times New Roman,serif" font-size="14.00">Operator</text>
</g>
<g id="clust8" class="cluster">
<title>cluster_stats</title>
<polygon fill="none" stroke="black" stroke-dasharray="5,2" points="358,-539.5 358,-805.75 618,-805.75 618,-539.5 358,-539.5"/>
<text text-anchor="middle" x="488" y="-788.45" font-family="Times New Roman,serif" font-size="14.00">Stats</text>
</g>
<g id="clust7" class="cluster">
<title>cluster_spliter</title>
<polygon fill="none" stroke="black" stroke-dasharray="5,2" points="182,-539 182,-805.25 350,-805.25 350,-539 182,-539"/>
<text text-anchor="middle" x="266" y="-787.95" font-family="Times New Roman,serif" font-size="14.00">Spliter</text>
</g>
<g id="clust9" class="cluster">
<title>cluster_analyser</title>
<polygon fill="none" stroke="black" stroke-dasharray="5,2" points="626,-539.5 626,-805.25 829,-805.25 829,-539.5 626,-539.5"/>
<text text-anchor="middle" x="727.5" y="-787.95" font-family="Times New Roman,serif" font-size="14.00">Analyser</text>
</g>
<g id="clust10" class="cluster">
<title>cluster_transformer</title>
<polygon fill="none" stroke="black" stroke-dasharray="5,2" points="837,-539.5 837,-805.25 1015,-805.25 1015,-539.5 837,-539.5"/>
<text text-anchor="middle" x="926" y="-787.95" font-family="Times New Roman,serif" font-size="14.00">Transformer</text>
</g>
<g id="clust12" class="cluster">
<title>cluster_experiment</title>
<polygon fill="none" stroke="black" stroke-dasharray="5,2" points="1255,-8 1255,-1027.5 1594,-1027.5 1594,-8 1255,-8"/>
<text text-anchor="middle" x="1424.5" y="-1010.2" font-family="Times New Roman,serif" font-size="14.00">Experiment</text>
</g>
<g id="clust13" class="cluster">
<title>cluster_experiment_executor</title>
<polygon fill="none" stroke="black" stroke-dasharray="1,5" points="1349,-16 1349,-710 1586,-710 1586,-16 1349,-16"/>
<text text-anchor="middle" x="1467.5" y="-692.7" font-family="Times New Roman,serif" font-size="14.00">execute</text>
</g>
<g id="clust14" class="cluster">
<title>cluster_multiexperiment</title>
<polygon fill="none" stroke="black" stroke-dasharray="5,2" points="1602,-233 1602,-805.25 1888,-805.25 1888,-233 1602,-233"/>
<text text-anchor="middle" x="1745" y="-787.95" font-family="Times New Roman,serif" font-size="14.00">MultiExperiment</text>
</g>
<g id="clust15" class="cluster">
<title>cluster_multiexperiment_execute</title>
<polygon fill="none" stroke="black" stroke-dasharray="1,5" points="1676,-241 1676,-615.25 1880,-615.25 1880,-241 1676,-241"/>
<text text-anchor="middle" x="1778" y="-597.95" font-family="Times New Roman,serif" font-size="14.00">execute</text>
</g>
<!-- executor_legend -->
<g id="node1" class="node">
<title>executor_legend</title>
<polygon fill="violet" stroke="black" points="166.12,-869.25 103.88,-869.25 99.88,-865.25 99.88,-833.25 162.12,-833.25 166.12,-837.25 166.12,-869.25"/>
<polyline fill="none" stroke="black" points="162.12,-865.25 99.88,-865.25"/>
<polyline fill="none" stroke="black" points="162.12,-865.25 162.12,-833.25"/>
<polyline fill="none" stroke="black" points="162.12,-865.25 166.12,-869.25"/>
<text text-anchor="middle" x="133" y="-845.83" font-family="Times New Roman,serif" font-size="14.00">Executor</text>
</g>
<!-- experiment_legend -->
<g id="node3" class="node">
<title>experiment_legend</title>
<polygon fill="violet" stroke="black" points="1417.5,-773.5 1342.5,-773.5 1338.5,-769.5 1338.5,-737.5 1413.5,-737.5 1417.5,-741.5 1417.5,-773.5"/>
<polyline fill="none" stroke="black" points="1413.5,-769.5 1338.5,-769.5"/>
<polyline fill="none" stroke="black" points="1413.5,-769.5 1413.5,-737.5"/>
<polyline fill="none" stroke="black" points="1413.5,-769.5 1417.5,-773.5"/>
<text text-anchor="middle" x="1378" y="-750.08" font-family="Times New Roman,serif" font-size="14.00">Experiment</text>
</g>
<!-- executor_legend&#45;&gt;experiment_legend -->
<g id="edge40" class="edge">
<title>executor_legend&#45;&gt;experiment_legend</title>
<path fill="none" stroke="black" stroke-dasharray="1,5" d="M174,-848.96C310.47,-844.61 761.89,-829.97 1135,-814.75 1183.26,-812.78 1213.69,-821.23 1244.84,-822.98"/>
<polyline fill="none" stroke="black" points="1255,-823.29 1244.51,-822.97"/>
<path fill="none" stroke="black" d="M1249.66,-818.12C1256.31,-818.33 1256.02,-828.32 1249.35,-828.12"/>
</g>
<!-- spliter_executor -->
<g id="node11" class="node">
<title>spliter_executor</title>
<polygon fill="violet" stroke="black" points="320,-773.5 270,-773.5 266,-769.5 266,-737.5 316,-737.5 320,-741.5 320,-773.5"/>
<polyline fill="none" stroke="black" points="316,-769.5 266,-769.5"/>
<polyline fill="none" stroke="black" points="316,-769.5 316,-737.5"/>
<polyline fill="none" stroke="black" points="316,-769.5 320,-773.5"/>
<text text-anchor="middle" x="293" y="-750.08" font-family="Times New Roman,serif" font-size="14.00">Spliter</text>
</g>
<!-- executor_legend&#45;&gt;spliter_executor -->
<g id="edge6" class="edge">
<title>executor_legend&#45;&gt;spliter_executor</title>
<path fill="none" stroke="black" stroke-dasharray="1,5" d="M174,-842.05C196.94,-836.12 225.56,-826.43 249.3,-811.06"/>
<polyline fill="none" stroke="black" points="257.66,-805.25 249.04,-811.24"/>
<path fill="none" stroke="black" d="M250.29,-804.28C255.91,-800.48 261.33,-808.69 256,-812.49"/>
</g>
<!-- stat_executor -->
<g id="node12" class="node">
<title>stat_executor</title>
<polygon fill="violet" stroke="black" points="610,-773.5 560,-773.5 556,-769.5 556,-737.5 606,-737.5 610,-741.5 610,-773.5"/>
<polyline fill="none" stroke="black" points="606,-769.5 556,-769.5"/>
<polyline fill="none" stroke="black" points="606,-769.5 606,-737.5"/>
<polyline fill="none" stroke="black" points="606,-769.5 610,-773.5"/>
<text text-anchor="middle" x="583" y="-750.08" font-family="Times New Roman,serif" font-size="14.00">Stat</text>
</g>
<!-- executor_legend&#45;&gt;stat_executor -->
<g id="edge10" class="edge">
<title>executor_legend&#45;&gt;stat_executor</title>
<path fill="none" stroke="black" stroke-dasharray="1,5" d="M174,-849.99C261.64,-848.81 465.15,-842.57 537.79,-810.38"/>
<polyline fill="none" stroke="black" points="547,-805.75 537.62,-810.47"/>
<path fill="none" stroke="black" d="M539.84,-803.75C545.91,-800.76 550.18,-809.69 544.33,-812.69"/>
</g>
<!-- analyzer_executor -->
<g id="node13" class="node">
<title>analyzer_executor</title>
<polygon fill="violet" stroke="black" points="821.38,-773.5 760.62,-773.5 756.62,-769.5 756.62,-737.5 817.38,-737.5 821.38,-741.5 821.38,-773.5"/>
<polyline fill="none" stroke="black" points="817.38,-769.5 756.62,-769.5"/>
<polyline fill="none" stroke="black" points="817.38,-769.5 817.38,-737.5"/>
<polyline fill="none" stroke="black" points="817.38,-769.5 821.38,-773.5"/>
<text text-anchor="middle" x="789" y="-750.08" font-family="Times New Roman,serif" font-size="14.00">Analyzer</text>
</g>
<!-- executor_legend&#45;&gt;analyzer_executor -->
<g id="edge14" class="edge">
<title>executor_legend&#45;&gt;analyzer_executor</title>
<path fill="none" stroke="black" stroke-dasharray="1,5" d="M174,-849.11C296.99,-845.43 659.15,-832.79 738.25,-808.93"/>
<polyline fill="none" stroke="black" points="747.96,-805.25 738.14,-808.97"/>
<path fill="none" stroke="black" d="M741.05,-802.52C747.37,-800.16 750.74,-809.51 744.59,-811.87"/>
</g>
<!-- transformer_executor -->
<g id="node14" class="node">
<title>transformer_executor</title>
<polygon fill="violet" stroke="black" points="1006.88,-773.5 925.12,-773.5 921.12,-769.5 921.12,-737.5 1002.88,-737.5 1006.88,-741.5 1006.88,-773.5"/>
<polyline fill="none" stroke="black" points="1002.88,-769.5 921.12,-769.5"/>
<polyline fill="none" stroke="black" points="1002.88,-769.5 1002.88,-737.5"/>
<polyline fill="none" stroke="black" points="1002.88,-769.5 1006.88,-773.5"/>
<text text-anchor="middle" x="964" y="-750.08" font-family="Times New Roman,serif" font-size="14.00">Transformer</text>
</g>
<!-- executor_legend&#45;&gt;transformer_executor -->
<g id="edge18" class="edge">
<title>executor_legend&#45;&gt;transformer_executor</title>
<path fill="none" stroke="black" stroke-dasharray="1,5" d="M174,-849.55C319.18,-846.86 805.42,-835.94 903.43,-808.55"/>
<polyline fill="none" stroke="black" points="913.13,-805.25 903.19,-808.63"/>
<path fill="none" stroke="black" d="M906.31,-802.29C912.71,-800.14 915.77,-809.61 909.54,-811.75"/>
</g>
<!-- operator_executor -->
<g id="node15" class="node">
<title>operator_executor</title>
<polygon fill="violet" stroke="black" points="1231.12,-773.5 1168.88,-773.5 1164.88,-769.5 1164.88,-737.5 1227.12,-737.5 1231.12,-741.5 1231.12,-773.5"/>
<polyline fill="none" stroke="black" points="1227.12,-769.5 1164.88,-769.5"/>
<polyline fill="none" stroke="black" points="1227.12,-769.5 1227.12,-737.5"/>
<polyline fill="none" stroke="black" points="1227.12,-769.5 1231.12,-773.5"/>
<text text-anchor="middle" x="1198" y="-750.08" font-family="Times New Roman,serif" font-size="14.00">Operator</text>
</g>
<!-- executor_legend&#45;&gt;operator_executor -->
<g id="edge22" class="edge">
<title>executor_legend&#45;&gt;operator_executor</title>
<path fill="none" stroke="black" stroke-dasharray="1,5" d="M174,-850.39C348.34,-850.72 1024.82,-849.4 1146.42,-809.52"/>
<polyline fill="none" stroke="black" points="1156,-805.75 1146.23,-809.6"/>
<path fill="none" stroke="black" d="M1149.05,-803.11C1155.34,-800.67 1158.83,-809.97 1152.72,-812.42"/>
</g>
<!-- executor_execute_legend -->
<g id="node16" class="node">
<title>executor_execute_legend</title>
<polygon fill="cornflowerblue" stroke="black" points="98,-773.5 40,-773.5 40,-737.5 98,-737.5 98,-773.5"/>
<text text-anchor="middle" x="69" y="-750.08" font-family="Times New Roman,serif" font-size="14.00">execute</text>
</g>
<!-- executor_legend&#45;&gt;executor_execute_legend -->
<g id="edge2" class="edge">
<title>executor_legend&#45;&gt;executor_execute_legend</title>
<path fill="none" stroke="black" d="M121.26,-833.05C109.79,-816.25 92.4,-790.78 80.88,-773.9"/>
</g>
<!-- experiment_executor_list -->
<g id="node2" class="node">
<title>experiment_executor_list</title>
<polygon fill="violet" stroke="black" points="1426.12,-995.75 1423.12,-999.75 1402.12,-999.75 1399.12,-995.75 1329.88,-995.75 1329.88,-959.75 1426.12,-959.75 1426.12,-995.75"/>
<text text-anchor="middle" x="1378" y="-972.33" font-family="Times New Roman,serif" font-size="14.00">List[Executor]</text>
</g>
<!-- experiment_executor_list_attribute -->
<g id="node49" class="node">
<title>experiment_executor_list_attribute</title>
<polygon fill="lightpink" stroke="black" points="1329.88,-833.25 1329.88,-869.25 1426.12,-869.25 1426.12,-833.25 1329.88,-833.25"/>
<text text-anchor="middle" x="1378" y="-845.83" font-family="Times New Roman,serif" font-size="14.00">List[Executor]</text>
</g>
<!-- experiment_executor_list&#45;&gt;experiment_executor_list_attribute -->
<g id="edge23" class="edge">
<title>experiment_executor_list&#45;&gt;experiment_executor_list_attribute</title>
<path fill="none" stroke="black" d="M1378,-959.44C1378,-939.09 1378,-905.03 1378,-880.76"/>
<polygon fill="black" stroke="black" points="1381.5,-880.93 1378,-870.93 1374.5,-880.93 1381.5,-880.93"/>
</g>
<!-- multiexperiment -->
<g id="node9" class="node">
<title>multiexperiment</title>
<polygon fill="violet" stroke="black" points="1792.75,-678.25 1689.25,-678.25 1685.25,-674.25 1685.25,-642.25 1788.75,-642.25 1792.75,-646.25 1792.75,-678.25"/>
<polyline fill="none" stroke="black" points="1788.75,-674.25 1685.25,-674.25"/>
<polyline fill="none" stroke="black" points="1788.75,-674.25 1788.75,-642.25"/>
<polyline fill="none" stroke="black" points="1788.75,-674.25 1792.75,-678.25"/>
<text text-anchor="middle" x="1739" y="-654.83" font-family="Times New Roman,serif" font-size="14.00">MultiExperiment</text>
</g>
<!-- experiment_legend&#45;&gt;multiexperiment -->
<g id="edge50" class="edge">
<title>experiment_legend&#45;&gt;multiexperiment</title>
<path fill="none" stroke="black" stroke-dasharray="1,5" d="M1594,-730.26C1596,-729.84 1598,-729.41 1600,-728.99"/>
<polyline fill="none" stroke="black" points="1602,-728.56 1591.73,-730.74"/>
<path fill="none" stroke="black" d="M1595.58,-724.82C1602.16,-723.43 1604.13,-733.21 1597.66,-734.6"/>
</g>
<!-- experiment_execute_legend -->
<g id="node17" class="node">
<title>experiment_execute_legend</title>
<polygon fill="cornflowerblue" stroke="black" points="1341,-678.25 1283,-678.25 1283,-642.25 1341,-642.25 1341,-678.25"/>
<text text-anchor="middle" x="1312" y="-654.83" font-family="Times New Roman,serif" font-size="14.00">execute</text>
</g>
<!-- experiment_legend&#45;&gt;experiment_execute_legend -->
<g id="edge25" class="edge">
<title>experiment_legend&#45;&gt;experiment_execute_legend</title>
<path fill="none" stroke="black" d="M1364.97,-737.3C1358.83,-729.09 1351.45,-719.1 1345,-710 1337.67,-699.66 1329.7,-687.9 1323.43,-678.52"/>
</g>
<!-- experiment_executor_0_in_list -->
<g id="node4" class="node">
<title>experiment_executor_0_in_list</title>
<polygon fill="violet" stroke="black" points="1435.38,-678.25 1362.62,-678.25 1358.62,-674.25 1358.62,-642.25 1431.38,-642.25 1435.38,-646.25 1435.38,-678.25"/>
<polyline fill="none" stroke="black" points="1431.38,-674.25 1358.62,-674.25"/>
<polyline fill="none" stroke="black" points="1431.38,-674.25 1431.38,-642.25"/>
<polyline fill="none" stroke="black" points="1431.38,-674.25 1435.38,-678.25"/>
<text text-anchor="middle" x="1397" y="-654.83" font-family="Times New Roman,serif" font-size="14.00">Executor 0</text>
</g>
<!-- experiment_execute_0 -->
<g id="node18" class="node">
<title>experiment_execute_0</title>
<polygon fill="cornflowerblue" stroke="black" points="1428.25,-583.5 1359.75,-583.5 1359.75,-547.5 1428.25,-547.5 1428.25,-583.5"/>
<text text-anchor="middle" x="1394" y="-560.08" font-family="Times New Roman,serif" font-size="14.00">execute 0</text>
</g>
<!-- experiment_executor_0_in_list&#45;&gt;experiment_execute_0 -->
<g id="edge28" class="edge">
<title>experiment_executor_0_in_list&#45;&gt;experiment_execute_0</title>
<path fill="none" stroke="black" d="M1396.44,-641.8C1395.9,-625.22 1395.1,-600.42 1394.56,-583.87"/>
</g>
<!-- experiment_executor_1_in_list -->
<g id="node5" class="node">
<title>experiment_executor_1_in_list</title>
<polygon fill="violet" stroke="black" points="1436.38,-504 1363.62,-504 1359.62,-500 1359.62,-468 1432.38,-468 1436.38,-472 1436.38,-504"/>
<polyline fill="none" stroke="black" points="1432.38,-500 1359.62,-500"/>
<polyline fill="none" stroke="black" points="1432.38,-500 1432.38,-468"/>
<polyline fill="none" stroke="black" points="1432.38,-500 1436.38,-504"/>
<text text-anchor="middle" x="1398" y="-480.57" font-family="Times New Roman,serif" font-size="14.00">Executor 1</text>
</g>
<!-- experiment_execute_1 -->
<g id="node19" class="node">
<title>experiment_execute_1</title>
<polygon fill="cornflowerblue" stroke="black" points="1546.25,-431 1477.75,-431 1477.75,-395 1546.25,-395 1546.25,-431"/>
<text text-anchor="middle" x="1512" y="-407.57" font-family="Times New Roman,serif" font-size="14.00">execute 1</text>
</g>
<!-- experiment_executor_1_in_list&#45;&gt;experiment_execute_1 -->
<g id="edge31" class="edge">
<title>experiment_executor_1_in_list&#45;&gt;experiment_execute_1</title>
<path fill="none" stroke="black" d="M1425.89,-467.63C1443.55,-456.63 1466.32,-442.45 1484.01,-431.44"/>
</g>
<!-- experiment_executor_dotted_in_list -->
<g id="node6" class="node">
<title>experiment_executor_dotted_in_list</title>
<polygon fill="violet" stroke="black" points="1437,-358 1387,-358 1383,-354 1383,-322 1433,-322 1437,-326 1437,-358"/>
<polyline fill="none" stroke="black" points="1433,-354 1383,-354"/>
<polyline fill="none" stroke="black" points="1433,-354 1433,-322"/>
<polyline fill="none" stroke="black" points="1433,-354 1437,-358"/>
<text text-anchor="middle" x="1410" y="-334.57" font-family="Times New Roman,serif" font-size="14.00">...</text>
</g>
<!-- experiment_execute_dotted -->
<g id="node20" class="node">
<title>experiment_execute_dotted</title>
<polygon fill="cornflowerblue" stroke="black" points="1540,-285 1486,-285 1486,-249 1540,-249 1540,-285"/>
<text text-anchor="middle" x="1513" y="-261.57" font-family="Times New Roman,serif" font-size="14.00">...</text>
</g>
<!-- experiment_executor_dotted_in_list&#45;&gt;experiment_execute_dotted -->
<g id="edge34" class="edge">
<title>experiment_executor_dotted_in_list&#45;&gt;experiment_execute_dotted</title>
<path fill="none" stroke="black" d="M1435.2,-321.63C1451.16,-310.63 1471.73,-296.45 1487.71,-285.44"/>
</g>
<!-- experiment_executor_n_in_list -->
<g id="node7" class="node">
<title>experiment_executor_n_in_list</title>
<polygon fill="violet" stroke="black" points="1433.38,-206 1360.62,-206 1356.62,-202 1356.62,-170 1429.38,-170 1433.38,-174 1433.38,-206"/>
<polyline fill="none" stroke="black" points="1429.38,-202 1356.62,-202"/>
<polyline fill="none" stroke="black" points="1429.38,-202 1429.38,-170"/>
<polyline fill="none" stroke="black" points="1429.38,-202 1433.38,-206"/>
<text text-anchor="middle" x="1395" y="-182.57" font-family="Times New Roman,serif" font-size="14.00">Executor n</text>
</g>
<!-- experiment_execute_n -->
<g id="node21" class="node">
<title>experiment_execute_n</title>
<polygon fill="cornflowerblue" stroke="black" points="1499.25,-133 1430.75,-133 1430.75,-97 1499.25,-97 1499.25,-133"/>
<text text-anchor="middle" x="1465" y="-109.58" font-family="Times New Roman,serif" font-size="14.00">execute n</text>
</g>
<!-- experiment_executor_n_in_list&#45;&gt;experiment_execute_n -->
<g id="edge37" class="edge">
<title>experiment_executor_n_in_list&#45;&gt;experiment_execute_n</title>
<path fill="none" stroke="black" d="M1411.95,-169.81C1422.95,-158.65 1437.24,-144.16 1448.21,-133.03"/>
</g>
<!-- multiexperiment_experiment -->
<g id="node8" class="node">
<title>multiexperiment_experiment</title>
<polygon fill="violet" stroke="black" points="1778.5,-773.5 1703.5,-773.5 1699.5,-769.5 1699.5,-737.5 1774.5,-737.5 1778.5,-741.5 1778.5,-773.5"/>
<polyline fill="none" stroke="black" points="1774.5,-769.5 1699.5,-769.5"/>
<polyline fill="none" stroke="black" points="1774.5,-769.5 1774.5,-737.5"/>
<polyline fill="none" stroke="black" points="1774.5,-769.5 1778.5,-773.5"/>
<text text-anchor="middle" x="1739" y="-750.08" font-family="Times New Roman,serif" font-size="14.00">Experiment</text>
</g>
<!-- multiexperiment_experiment&#45;&gt;multiexperiment -->
<g id="edge41" class="edge">
<title>multiexperiment_experiment&#45;&gt;multiexperiment</title>
<path fill="none" stroke="black" d="M1739,-737.4C1739,-720.68 1739,-695.35 1739,-678.56"/>
</g>
<!-- multiexperiment_execute -->
<g id="node22" class="node">
<title>multiexperiment_execute</title>
<polygon fill="cornflowerblue" stroke="black" points="1668,-583.5 1610,-583.5 1610,-547.5 1668,-547.5 1668,-583.5"/>
<text text-anchor="middle" x="1639" y="-560.08" font-family="Times New Roman,serif" font-size="14.00">execute</text>
</g>
<!-- multiexperiment&#45;&gt;multiexperiment_execute -->
<g id="edge42" class="edge">
<title>multiexperiment&#45;&gt;multiexperiment_execute</title>
<path fill="none" stroke="black" d="M1707.09,-641.88C1695.29,-634.58 1682.31,-625.41 1672,-615.25 1662.69,-606.06 1654.44,-593.88 1648.51,-583.99"/>
</g>
<!-- multiexperiment_execte_experiment -->
<g id="node10" class="node">
<title>multiexperiment_execte_experiment</title>
<polygon fill="violet" stroke="black" points="1779.5,-583.5 1704.5,-583.5 1700.5,-579.5 1700.5,-547.5 1775.5,-547.5 1779.5,-551.5 1779.5,-583.5"/>
<polyline fill="none" stroke="black" points="1775.5,-579.5 1700.5,-579.5"/>
<polyline fill="none" stroke="black" points="1775.5,-579.5 1775.5,-547.5"/>
<polyline fill="none" stroke="black" points="1775.5,-579.5 1779.5,-583.5"/>
<text text-anchor="middle" x="1740" y="-560.08" font-family="Times New Roman,serif" font-size="14.00">Experiment</text>
</g>
<!-- multiexperiment_executor_execute -->
<g id="node23" class="node">
<title>multiexperiment_executor_execute</title>
<polygon fill="cornflowerblue" stroke="black" points="1769,-504 1711,-504 1711,-468 1769,-468 1769,-504"/>
<text text-anchor="middle" x="1740" y="-480.57" font-family="Times New Roman,serif" font-size="14.00">execute</text>
</g>
<!-- multiexperiment_execte_experiment&#45;&gt;multiexperiment_executor_execute -->
<g id="edge44" class="edge">
<title>multiexperiment_execte_experiment&#45;&gt;multiexperiment_executor_execute</title>
<path fill="none" stroke="black" d="M1740,-547.3C1740,-534.55 1740,-517.23 1740,-504.42"/>
</g>
<!-- spliter_execute -->
<g id="node25" class="node">
<title>spliter_execute</title>
<polygon fill="cornflowerblue" stroke="black" points="295,-678.25 237,-678.25 237,-642.25 295,-642.25 295,-678.25"/>
<text text-anchor="middle" x="266" y="-654.83" font-family="Times New Roman,serif" font-size="14.00">execute</text>
</g>
<!-- spliter_executor&#45;&gt;spliter_execute -->
<g id="edge3" class="edge">
<title>spliter_executor&#45;&gt;spliter_execute</title>
<path fill="none" stroke="black" d="M288.05,-737.4C283.21,-720.68 275.87,-695.35 271.01,-678.56"/>
</g>
<!-- stat_execute -->
<g id="node26" class="node">
<title>stat_execute</title>
<polygon fill="cornflowerblue" stroke="black" points="546,-678.25 488,-678.25 488,-642.25 546,-642.25 546,-678.25"/>
<text text-anchor="middle" x="517" y="-654.83" font-family="Times New Roman,serif" font-size="14.00">execute</text>
</g>
<!-- stat_executor&#45;&gt;stat_execute -->
<g id="edge7" class="edge">
<title>stat_executor&#45;&gt;stat_execute</title>
<path fill="none" stroke="black" d="M570.89,-737.4C559.06,-720.68 541.14,-695.35 529.25,-678.56"/>
</g>
<!-- analyzer_execute -->
<g id="node27" class="node">
<title>analyzer_execute</title>
<polygon fill="cornflowerblue" stroke="black" points="767,-678.25 709,-678.25 709,-642.25 767,-642.25 767,-678.25"/>
<text text-anchor="middle" x="738" y="-654.83" font-family="Times New Roman,serif" font-size="14.00">execute</text>
</g>
<!-- analyzer_executor&#45;&gt;analyzer_execute -->
<g id="edge11" class="edge">
<title>analyzer_executor&#45;&gt;analyzer_execute</title>
<path fill="none" stroke="black" d="M779.65,-737.4C770.5,-720.68 756.65,-695.35 747.47,-678.56"/>
</g>
<!-- transformer_execute -->
<g id="node28" class="node">
<title>transformer_execute</title>
<polygon fill="cornflowerblue" stroke="black" points="927,-678.25 869,-678.25 869,-642.25 927,-642.25 927,-678.25"/>
<text text-anchor="middle" x="898" y="-654.83" font-family="Times New Roman,serif" font-size="14.00">execute</text>
</g>
<!-- transformer_executor&#45;&gt;transformer_execute -->
<g id="edge15" class="edge">
<title>transformer_executor&#45;&gt;transformer_execute</title>
<path fill="none" stroke="black" d="M951.89,-737.4C940.06,-720.68 922.14,-695.35 910.25,-678.56"/>
</g>
<!-- operator_execute -->
<g id="node29" class="node">
<title>operator_execute</title>
<polygon fill="cornflowerblue" stroke="black" points="1172,-678.25 1114,-678.25 1114,-642.25 1172,-642.25 1172,-678.25"/>
<text text-anchor="middle" x="1143" y="-654.83" font-family="Times New Roman,serif" font-size="14.00">execute</text>
</g>
<!-- operator_executor&#45;&gt;operator_execute -->
<g id="edge19" class="edge">
<title>operator_executor&#45;&gt;operator_execute</title>
<path fill="none" stroke="black" d="M1187.91,-737.4C1178.05,-720.68 1163.11,-695.35 1153.21,-678.56"/>
</g>
<!-- experiment_execute_legend&#45;&gt;experiment_execute_0 -->
<g id="edge39" class="edge">
<title>experiment_execute_legend&#45;&gt;experiment_execute_0</title>
<path fill="none" stroke="black" d="M1327.42,-641.8C1333.67,-634.74 1341.24,-626.17 1349,-617.39"/>
</g>
<!-- experiment_data_0 -->
<g id="node32" class="node">
<title>experiment_data_0</title>
<polygon fill="lightgreen" stroke="black" points="1563.5,-504 1454.5,-504 1454.5,-468 1569.5,-468 1569.5,-498 1563.5,-504"/>
<polyline fill="none" stroke="black" points="1563.5,-504 1563.5,-498"/>
<polyline fill="none" stroke="black" points="1569.5,-498 1563.5,-498"/>
<text text-anchor="middle" x="1512" y="-480.57" font-family="Times New Roman,serif" font-size="14.00">ExperimentData 0</text>
</g>
<!-- experiment_execute_0&#45;&gt;experiment_data_0 -->
<g id="edge29" class="edge">
<title>experiment_execute_0&#45;&gt;experiment_data_0</title>
<path fill="none" stroke="black" d="M1420.48,-547.11C1436.88,-536.34 1458.15,-522.37 1476.06,-510.61"/>
<polygon fill="black" stroke="black" points="1477.9,-513.58 1484.34,-505.17 1474.06,-507.73 1477.9,-513.58"/>
</g>
<!-- experiment_data_1 -->
<g id="node33" class="node">
<title>experiment_data_1</title>
<polygon fill="lightgreen" stroke="black" points="1564.5,-358 1455.5,-358 1455.5,-322 1570.5,-322 1570.5,-352 1564.5,-358"/>
<polyline fill="none" stroke="black" points="1564.5,-358 1564.5,-352"/>
<polyline fill="none" stroke="black" points="1570.5,-352 1564.5,-352"/>
<text text-anchor="middle" x="1513" y="-334.57" font-family="Times New Roman,serif" font-size="14.00">ExperimentData 1</text>
</g>
<!-- experiment_execute_1&#45;&gt;experiment_data_1 -->
<g id="edge32" class="edge">
<title>experiment_execute_1&#45;&gt;experiment_data_1</title>
<path fill="none" stroke="black" d="M1512.24,-394.81C1512.35,-387.23 1512.48,-378.1 1512.6,-369.54"/>
<polygon fill="black" stroke="black" points="1516.1,-369.59 1512.74,-359.54 1509.1,-369.49 1516.1,-369.59"/>
</g>
<!-- experiment_data_n -->
<g id="node34" class="node">
<title>experiment_data_n</title>
<polygon fill="lightgreen" stroke="black" points="1572.12,-206 1451.88,-206 1451.88,-170 1578.12,-170 1578.12,-200 1572.12,-206"/>
<polyline fill="none" stroke="black" points="1572.12,-206 1572.12,-200"/>
<polyline fill="none" stroke="black" points="1578.12,-200 1572.12,-200"/>
<text text-anchor="middle" x="1515" y="-182.57" font-family="Times New Roman,serif" font-size="14.00">ExperimentData n&#45;1</text>
</g>
<!-- experiment_execute_dotted&#45;&gt;experiment_data_n -->
<g id="edge35" class="edge">
<title>experiment_execute_dotted&#45;&gt;experiment_data_n</title>
<path fill="none" stroke="black" d="M1513.45,-248.53C1513.69,-239.47 1513.98,-228.17 1514.25,-217.86"/>
<polygon fill="black" stroke="black" points="1517.75,-218 1514.51,-207.92 1510.75,-217.82 1517.75,-218"/>
</g>
<!-- experiment_data_final -->
<g id="node35" class="node">
<title>experiment_data_final</title>
<polygon fill="lightgreen" stroke="black" points="1516.5,-60 1407.5,-60 1407.5,-24 1522.5,-24 1522.5,-54 1516.5,-60"/>
<polyline fill="none" stroke="black" points="1516.5,-60 1516.5,-54"/>
<polyline fill="none" stroke="black" points="1522.5,-54 1516.5,-54"/>
<text text-anchor="middle" x="1465" y="-36.58" font-family="Times New Roman,serif" font-size="14.00">ExperimentData n</text>
</g>
<!-- experiment_execute_n&#45;&gt;experiment_data_final -->
<g id="edge38" class="edge">
<title>experiment_execute_n&#45;&gt;experiment_data_final</title>
<path fill="none" stroke="black" d="M1465,-96.81C1465,-89.23 1465,-80.1 1465,-71.54"/>
<polygon fill="black" stroke="black" points="1468.5,-71.54 1465,-61.54 1461.5,-71.54 1468.5,-71.54"/>
</g>
<!-- multiexperiment_execute&#45;&gt;multiexperiment_executor_execute -->
<g id="edge49" class="edge">
<title>multiexperiment_execute&#45;&gt;multiexperiment_executor_execute</title>
<path fill="none" stroke="black" d="M1654.77,-547.06C1660.02,-541.65 1666.05,-535.85 1672,-531 1673.31,-529.93 1674.64,-528.87 1676,-527.81"/>
</g>
<!-- multiexperiment_executor_experiment_data -->
<g id="node37" class="node">
<title>multiexperiment_executor_experiment_data</title>
<polygon fill="lightgreen" stroke="black" points="1789.62,-431 1684.38,-431 1684.38,-395 1795.62,-395 1795.62,-425 1789.62,-431"/>
<polyline fill="none" stroke="black" points="1789.62,-431 1789.62,-425"/>
<polyline fill="none" stroke="black" points="1795.62,-425 1789.62,-425"/>
<text text-anchor="middle" x="1740" y="-407.57" font-family="Times New Roman,serif" font-size="14.00">ExperimentData i</text>
</g>
<!-- multiexperiment_executor_execute&#45;&gt;multiexperiment_executor_experiment_data -->
<g id="edge45" class="edge">
<title>multiexperiment_executor_execute&#45;&gt;multiexperiment_executor_experiment_data</title>
<path fill="none" stroke="black" d="M1740,-467.81C1740,-460.23 1740,-451.1 1740,-442.54"/>
<polygon fill="black" stroke="black" points="1743.5,-442.54 1740,-432.54 1736.5,-442.54 1743.5,-442.54"/>
</g>
<!-- multiexperiment_execute_data_append -->
<g id="node24" class="node">
<title>multiexperiment_execute_data_append</title>
<polygon fill="cornflowerblue" stroke="black" points="1828.62,-358 1771.38,-358 1771.38,-322 1828.62,-322 1828.62,-358"/>
<text text-anchor="middle" x="1800" y="-334.57" font-family="Times New Roman,serif" font-size="14.00">append</text>
</g>
<!-- multiexperiment_execute_data_append&#45;&gt;multiexperiment_executor_execute -->
<g id="edge48" class="edge">
<title>multiexperiment_execute_data_append&#45;&gt;multiexperiment_executor_execute</title>
<path fill="none" stroke="black" stroke-dasharray="5,2" d="M1805.6,-358.17C1810.72,-376.99 1815.97,-407.63 1805,-431 1799.16,-443.45 1788.88,-454.02 1778.19,-462.43"/>
<polygon fill="black" stroke="black" points="1776.46,-459.36 1770.43,-468.07 1780.58,-465.02 1776.46,-459.36"/>
<text text-anchor="middle" x="1830.88" y="-407.57" font-family="Times New Roman,serif" font-size="14.00">n times</text>
</g>
<!-- multiexperiment_executor_result_data -->
<g id="node38" class="node">
<title>multiexperiment_executor_result_data</title>
<polygon fill="lightgreen" stroke="black" points="1846.25,-285 1747.75,-285 1747.75,-249 1852.25,-249 1852.25,-279 1846.25,-285"/>
<polyline fill="none" stroke="black" points="1846.25,-285 1846.25,-279"/>
<polyline fill="none" stroke="black" points="1852.25,-279 1846.25,-279"/>
<text text-anchor="middle" x="1800" y="-261.57" font-family="Times New Roman,serif" font-size="14.00">ExperimentData</text>
</g>
<!-- multiexperiment_execute_data_append&#45;&gt;multiexperiment_executor_result_data -->
<g id="edge47" class="edge">
<title>multiexperiment_execute_data_append&#45;&gt;multiexperiment_executor_result_data</title>
<path fill="none" stroke="black" d="M1800,-321.81C1800,-314.23 1800,-305.1 1800,-296.54"/>
<polygon fill="black" stroke="black" points="1803.5,-296.54 1800,-286.54 1796.5,-296.54 1803.5,-296.54"/>
</g>
<!-- spliter_out_data -->
<g id="node40" class="node">
<title>spliter_out_data</title>
<polygon fill="lightgreen" stroke="black" points="190.38,-547.5 190.38,-583.5 341.62,-583.5 341.62,-547.5 190.38,-547.5"/>
<text text-anchor="middle" x="219" y="-560.08" font-family="Times New Roman,serif" font-size="14.00">Dataset</text>
<polyline fill="none" stroke="black" points="247.62,-547.5 247.62,-583.5"/>
<text text-anchor="middle" x="294.62" y="-560.08" font-family="Times New Roman,serif" font-size="14.00">group column</text>
</g>
<!-- spliter_execute&#45;&gt;spliter_out_data -->
<g id="edge4" class="edge">
<title>spliter_execute&#45;&gt;spliter_out_data</title>
<path fill="none" stroke="black" d="M266,-641.8C266,-628.72 266,-610.52 266,-595.29"/>
<polygon fill="black" stroke="black" points="269.5,-595.38 266,-585.38 262.5,-595.38 269.5,-595.38"/>
</g>
<!-- stat_experiment_data -->
<g id="node42" class="node">
<title>stat_experiment_data</title>
<polygon fill="lightgreen" stroke="black" points="563.25,-583.5 464.75,-583.5 464.75,-547.5 569.25,-547.5 569.25,-577.5 563.25,-583.5"/>
<polyline fill="none" stroke="black" points="563.25,-583.5 563.25,-577.5"/>
<polyline fill="none" stroke="black" points="569.25,-577.5 563.25,-577.5"/>
<text text-anchor="middle" x="517" y="-560.08" font-family="Times New Roman,serif" font-size="14.00">ExperimentData</text>
</g>
<!-- stat_execute&#45;&gt;stat_experiment_data -->
<g id="edge9" class="edge">
<title>stat_execute&#45;&gt;stat_experiment_data</title>
<path fill="none" stroke="black" d="M517,-641.8C517,-628.72 517,-610.52 517,-595.29"/>
<polygon fill="black" stroke="black" points="520.5,-595.38 517,-585.38 513.5,-595.38 520.5,-595.38"/>
</g>
<!-- analyzer_out_data -->
<g id="node44" class="node">
<title>analyzer_out_data</title>
<polygon fill="lightgreen" stroke="black" points="784.25,-583.5 685.75,-583.5 685.75,-547.5 790.25,-547.5 790.25,-577.5 784.25,-583.5"/>
<polyline fill="none" stroke="black" points="784.25,-583.5 784.25,-577.5"/>
<polyline fill="none" stroke="black" points="790.25,-577.5 784.25,-577.5"/>
<text text-anchor="middle" x="738" y="-560.08" font-family="Times New Roman,serif" font-size="14.00">ExperimentData</text>
</g>
<!-- analyzer_execute&#45;&gt;analyzer_out_data -->
<g id="edge13" class="edge">
<title>analyzer_execute&#45;&gt;analyzer_out_data</title>
<path fill="none" stroke="black" d="M738,-641.8C738,-628.72 738,-610.52 738,-595.29"/>
<polygon fill="black" stroke="black" points="741.5,-595.38 738,-585.38 734.5,-595.38 741.5,-595.38"/>
</g>
<!-- transformer_out_data -->
<g id="node46" class="node">
<title>transformer_out_data</title>
<polygon fill="lightgreen" stroke="black" points="920.62,-583.5 869.38,-583.5 869.38,-547.5 926.62,-547.5 926.62,-577.5 920.62,-583.5"/>
<polyline fill="none" stroke="black" points="920.62,-583.5 920.62,-577.5"/>
<polyline fill="none" stroke="black" points="926.62,-577.5 920.62,-577.5"/>
<text text-anchor="middle" x="898" y="-560.08" font-family="Times New Roman,serif" font-size="14.00">Dataset</text>
</g>
<!-- transformer_execute&#45;&gt;transformer_out_data -->
<g id="edge17" class="edge">
<title>transformer_execute&#45;&gt;transformer_out_data</title>
<path fill="none" stroke="black" d="M898,-641.8C898,-628.72 898,-610.52 898,-595.29"/>
<polygon fill="black" stroke="black" points="901.5,-595.38 898,-585.38 894.5,-595.38 901.5,-595.38"/>
</g>
<!-- operator_out_data -->
<g id="node48" class="node">
<title>operator_out_data</title>
<polygon fill="lightgreen" stroke="black" points="1189.25,-583.5 1090.75,-583.5 1090.75,-547.5 1195.25,-547.5 1195.25,-577.5 1189.25,-583.5"/>
<polyline fill="none" stroke="black" points="1189.25,-583.5 1189.25,-577.5"/>
<polyline fill="none" stroke="black" points="1195.25,-577.5 1189.25,-577.5"/>
<text text-anchor="middle" x="1143" y="-560.08" font-family="Times New Roman,serif" font-size="14.00">ExperimentData</text>
</g>
<!-- operator_execute&#45;&gt;operator_out_data -->
<g id="edge21" class="edge">
<title>operator_execute&#45;&gt;operator_out_data</title>
<path fill="none" stroke="black" d="M1143,-641.8C1143,-628.72 1143,-610.52 1143,-595.29"/>
<polygon fill="black" stroke="black" points="1146.5,-595.38 1143,-585.38 1139.5,-595.38 1146.5,-595.38"/>
</g>
<!-- executor_legend_data -->
<g id="node30" class="node">
<title>executor_legend_data</title>
<polygon fill="lightgreen" stroke="black" points="75.62,-869.25 24.38,-869.25 24.38,-833.25 81.62,-833.25 81.62,-863.25 75.62,-869.25"/>
<polyline fill="none" stroke="black" points="75.62,-869.25 75.62,-863.25"/>
<polyline fill="none" stroke="black" points="81.62,-863.25 75.62,-863.25"/>
<text text-anchor="middle" x="53" y="-845.83" font-family="Times New Roman,serif" font-size="14.00">Dataset</text>
</g>
<!-- executor_legend_data&#45;&gt;executor_execute_legend -->
<g id="edge1" class="edge">
<title>executor_legend_data&#45;&gt;executor_execute_legend</title>
<path fill="none" stroke="black" d="M55.93,-833.05C58.22,-819.66 61.44,-800.77 64.12,-785.11"/>
<polygon fill="black" stroke="black" points="67.54,-785.84 65.78,-775.4 60.64,-784.66 67.54,-785.84"/>
</g>
<!-- experiment_legend_data -->
<g id="node31" class="node">
<title>experiment_legend_data</title>
<polygon fill="lightgreen" stroke="black" points="1314.62,-773.5 1263.38,-773.5 1263.38,-737.5 1320.62,-737.5 1320.62,-767.5 1314.62,-773.5"/>
<polyline fill="none" stroke="black" points="1314.62,-773.5 1314.62,-767.5"/>
<polyline fill="none" stroke="black" points="1320.62,-767.5 1314.62,-767.5"/>
<text text-anchor="middle" x="1292" y="-750.08" font-family="Times New Roman,serif" font-size="14.00">Dataset</text>
</g>
<!-- experiment_legend_data&#45;&gt;experiment_execute_legend -->
<g id="edge26" class="edge">
<title>experiment_legend_data&#45;&gt;experiment_execute_legend</title>
<path fill="none" stroke="black" d="M1295.67,-737.4C1298.53,-724.07 1302.56,-705.28 1305.9,-689.71"/>
<polygon fill="black" stroke="black" points="1309.29,-690.55 1307.97,-680.04 1302.45,-689.08 1309.29,-690.55"/>
</g>
<!-- experiment_legend_data&#45;&gt;experiment_execute_0 -->
<g id="edge27" class="edge">
<title>experiment_legend_data&#45;&gt;experiment_execute_0</title>
<path fill="none" stroke="black" stroke-dasharray="1,5" d="M1282.91,-737.38C1272.03,-714.32 1257.23,-672.67 1274,-642.25 1289.91,-613.39 1321.95,-594.01 1348.92,-582.08"/>
<polygon fill="black" stroke="black" points="1350.08,-585.4 1357.95,-578.31 1347.37,-578.94 1350.08,-585.4"/>
</g>
<!-- experiment_data_0&#45;&gt;experiment_execute_1 -->
<g id="edge30" class="edge">
<title>experiment_data_0&#45;&gt;experiment_execute_1</title>
<path fill="none" stroke="black" d="M1512,-467.81C1512,-460.23 1512,-451.1 1512,-442.54"/>
<polygon fill="black" stroke="black" points="1515.5,-442.54 1512,-432.54 1508.5,-442.54 1515.5,-442.54"/>
</g>
<!-- experiment_data_1&#45;&gt;experiment_execute_dotted -->
<g id="edge33" class="edge">
<title>experiment_data_1&#45;&gt;experiment_execute_dotted</title>
<path fill="none" stroke="black" d="M1513,-321.81C1513,-314.23 1513,-305.1 1513,-296.54"/>
<polygon fill="black" stroke="black" points="1516.5,-296.54 1513,-286.54 1509.5,-296.54 1516.5,-296.54"/>
</g>
<!-- experiment_data_n&#45;&gt;experiment_execute_n -->
<g id="edge36" class="edge">
<title>experiment_data_n&#45;&gt;experiment_execute_n</title>
<path fill="none" stroke="black" d="M1502.9,-169.81C1497.06,-161.53 1489.94,-151.41 1483.45,-142.19"/>
<polygon fill="black" stroke="black" points="1486.48,-140.43 1477.86,-134.27 1480.76,-144.46 1486.48,-140.43"/>
</g>
<!-- multiexperiment_data -->
<g id="node36" class="node">
<title>multiexperiment_data</title>
<polygon fill="lightgreen" stroke="black" points="1661.62,-678.25 1610.38,-678.25 1610.38,-642.25 1667.62,-642.25 1667.62,-672.25 1661.62,-678.25"/>
<polyline fill="none" stroke="black" points="1661.62,-678.25 1661.62,-672.25"/>
<polyline fill="none" stroke="black" points="1667.62,-672.25 1661.62,-672.25"/>
<text text-anchor="middle" x="1639" y="-654.83" font-family="Times New Roman,serif" font-size="14.00">Dataset</text>
</g>
<!-- multiexperiment_data&#45;&gt;multiexperiment_execute -->
<g id="edge43" class="edge">
<title>multiexperiment_data&#45;&gt;multiexperiment_execute</title>
<path fill="none" stroke="black" d="M1639,-641.8C1639,-628.72 1639,-610.52 1639,-595.29"/>
<polygon fill="black" stroke="black" points="1642.5,-595.38 1639,-585.38 1635.5,-595.38 1642.5,-595.38"/>
</g>
<!-- multiexperiment_executor_experiment_data&#45;&gt;multiexperiment_execute_data_append -->
<g id="edge46" class="edge">
<title>multiexperiment_executor_experiment_data&#45;&gt;multiexperiment_execute_data_append</title>
<path fill="none" stroke="black" d="M1754.52,-394.81C1761.67,-386.35 1770.44,-375.98 1778.36,-366.61"/>
<polygon fill="black" stroke="black" points="1780.85,-369.08 1784.63,-359.18 1775.5,-364.56 1780.85,-369.08"/>
</g>
<!-- spliter_data -->
<g id="node39" class="node">
<title>spliter_data</title>
<polygon fill="lightgreen" stroke="black" points="241.62,-773.5 190.38,-773.5 190.38,-737.5 247.62,-737.5 247.62,-767.5 241.62,-773.5"/>
<polyline fill="none" stroke="black" points="241.62,-773.5 241.62,-767.5"/>
<polyline fill="none" stroke="black" points="247.62,-767.5 241.62,-767.5"/>
<text text-anchor="middle" x="219" y="-750.08" font-family="Times New Roman,serif" font-size="14.00">Dataset</text>
</g>
<!-- spliter_data&#45;&gt;spliter_execute -->
<g id="edge5" class="edge">
<title>spliter_data&#45;&gt;spliter_execute</title>
<path fill="none" stroke="black" d="M227.62,-737.4C234.47,-723.81 244.18,-704.55 252.12,-688.79"/>
<polygon fill="black" stroke="black" points="255.22,-690.42 256.59,-679.91 248.97,-687.27 255.22,-690.42"/>
</g>
<!-- stat_data -->
<g id="node41" class="node">
<title>stat_data</title>
<polygon fill="lightgreen" stroke="black" points="365.88,-737.5 365.88,-773.5 538.12,-773.5 538.12,-737.5 365.88,-737.5"/>
<text text-anchor="middle" x="394.5" y="-750.08" font-family="Times New Roman,serif" font-size="14.00">Dataset</text>
<polyline fill="none" stroke="black" points="423.12,-737.5 423.12,-773.5"/>
<text text-anchor="middle" x="480.62" y="-750.08" font-family="Times New Roman,serif" font-size="14.00">stat target column</text>
</g>
<!-- stat_data&#45;&gt;stat_execute -->
<g id="edge8" class="edge">
<title>stat_data&#45;&gt;stat_execute</title>
<path fill="none" stroke="black" d="M463.92,-737.4C473.57,-723.55 487.34,-703.8 498.43,-687.89"/>
<polygon fill="black" stroke="black" points="501.22,-690.01 504.07,-679.8 495.48,-686 501.22,-690.01"/>
</g>
<!-- analyzer_in_data -->
<g id="node43" class="node">
<title>analyzer_in_data</title>
<polygon fill="lightgreen" stroke="black" points="732.25,-773.5 633.75,-773.5 633.75,-737.5 738.25,-737.5 738.25,-767.5 732.25,-773.5"/>
<polyline fill="none" stroke="black" points="732.25,-773.5 732.25,-767.5"/>
<polyline fill="none" stroke="black" points="738.25,-767.5 732.25,-767.5"/>
<text text-anchor="middle" x="686" y="-750.08" font-family="Times New Roman,serif" font-size="14.00">ExperimentData</text>
</g>
<!-- analyzer_in_data&#45;&gt;analyzer_execute -->
<g id="edge12" class="edge">
<title>analyzer_in_data&#45;&gt;analyzer_execute</title>
<path fill="none" stroke="black" d="M695.54,-737.4C703.19,-723.68 714.06,-704.17 722.89,-688.34"/>
<polygon fill="black" stroke="black" points="725.8,-690.32 727.61,-679.88 719.68,-686.91 725.8,-690.32"/>
</g>
<!-- transformer_in_data -->
<g id="node45" class="node">
<title>transformer_in_data</title>
<polygon fill="lightgreen" stroke="black" points="896.62,-773.5 845.38,-773.5 845.38,-737.5 902.62,-737.5 902.62,-767.5 896.62,-773.5"/>
<polyline fill="none" stroke="black" points="896.62,-773.5 896.62,-767.5"/>
<polyline fill="none" stroke="black" points="902.62,-767.5 896.62,-767.5"/>
<text text-anchor="middle" x="874" y="-750.08" font-family="Times New Roman,serif" font-size="14.00">Dataset</text>
</g>
<!-- transformer_in_data&#45;&gt;transformer_execute -->
<g id="edge16" class="edge">
<title>transformer_in_data&#45;&gt;transformer_execute</title>
<path fill="none" stroke="black" d="M878.4,-737.4C881.83,-724.07 886.67,-705.28 890.68,-689.71"/>
<polygon fill="black" stroke="black" points="894.06,-690.58 893.17,-680.03 887.29,-688.84 894.06,-690.58"/>
</g>
<!-- operator_in_data -->
<g id="node47" class="node">
<title>operator_in_data</title>
<polygon fill="lightgreen" stroke="black" points="1030.88,-737.5 1030.88,-773.5 1147.12,-773.5 1147.12,-737.5 1030.88,-737.5"/>
<text text-anchor="middle" x="1059.5" y="-750.08" font-family="Times New Roman,serif" font-size="14.00">Dataset</text>
<polyline fill="none" stroke="black" points="1088.12,-737.5 1088.12,-773.5"/>
<text text-anchor="middle" x="1102.88" y="-750.08" font-family="Times New Roman,serif" font-size="14.00">x1</text>
<polyline fill="none" stroke="black" points="1117.62,-737.5 1117.62,-773.5"/>
<text text-anchor="middle" x="1132.38" y="-750.08" font-family="Times New Roman,serif" font-size="14.00">x2</text>
</g>
<!-- operator_in_data&#45;&gt;operator_execute -->
<g id="edge20" class="edge">
<title>operator_in_data&#45;&gt;operator_execute</title>
<path fill="none" stroke="black" d="M1098.9,-737.4C1106.85,-723.68 1118.14,-704.17 1127.31,-688.34"/>
<polygon fill="black" stroke="black" points="1130.23,-690.28 1132.22,-679.87 1124.18,-686.77 1130.23,-690.28"/>
</g>
<!-- experiment_executor_list_attribute&#45;&gt;experiment_legend -->
<g id="edge24" class="edge">
<title>experiment_executor_list_attribute&#45;&gt;experiment_legend</title>
<path fill="none" stroke="black" d="M1378,-833.05C1378,-816.25 1378,-790.78 1378,-773.9"/>
</g>
</g>
</svg>
