<?xml version="1.0" encoding="UTF-8" standalone="no"?>
<!DOCTYPE svg PUBLIC "-//W3C//DTD SVG 1.1//EN"
 "http://www.w3.org/Graphics/SVG/1.1/DTD/svg11.dtd">
<!-- Generated by graphviz version 9.0.0 (20230911.1827)
 -->
<!-- Title: Architecture Pages: 1 -->
<svg width="2110pt" height="1044pt"
 viewBox="0.00 0.00 2110.00 1043.50" xmlns="http://www.w3.org/2000/svg" xmlns:xlink="http://www.w3.org/1999/xlink">
<g id="graph0" class="graph" transform="scale(1 1) rotate(0) translate(4 1039.5)">
<title>Architecture</title>
<polygon fill="white" stroke="none" points="-4,4 -4,-1039.5 2106,-1039.5 2106,4 -4,4"/>
<g id="clust5" class="cluster">
<title>cluster_executors</title>
<polygon fill="none" stroke="black" points="8,-531 8,-932.75 1247,-932.75 1247,-531 8,-531"/>
<text text-anchor="middle" x="627.5" y="-915.45" font-family="Times New Roman,serif" font-size="14.00">Executors</text>
</g>
<g id="clust11" class="cluster">
<title>cluster_operator</title>
<polygon fill="none" stroke="black" stroke-dasharray="5,2" points="1023,-539.5 1023,-805.75 1239,-805.75 1239,-539.5 1023,-539.5"/>
<text text-anchor="middle" x="1131" y="-788.45" font-family="Times New Roman,serif" font-size="14.00">Operator</text>
</g>
<g id="clust9" class="cluster">
<title>cluster_analyser</title>
<polygon fill="none" stroke="black" stroke-dasharray="5,2" points="626,-539.5 626,-805.25 829,-805.25 829,-539.5 626,-539.5"/>
<text text-anchor="middle" x="727.5" y="-787.95" font-family="Times New Roman,serif" font-size="14.00">Analyser</text>
</g>
<g id="clust6" class="cluster">
<title>cluster_executor</title>
<polygon fill="none" stroke="black" stroke-dasharray="5,2" points="16,-729.5 16,-901 174,-901 174,-729.5 16,-729.5"/>
<text text-anchor="middle" x="95" y="-883.7" font-family="Times New Roman,serif" font-size="14.00">Executor</text>
</g>
<g id="clust8" class="cluster">
<title>cluster_stats</title>
<polygon fill="none" stroke="black" stroke-dasharray="5,2" points="358,-539.5 358,-805.75 618,-805.75 618,-539.5 358,-539.5"/>
<text text-anchor="middle" x="488" y="-788.45" font-family="Times New Roman,serif" font-size="14.00">Stats</text>
</g>
<g id="clust7" class="cluster">
<title>cluster_spliter</title>
<polygon fill="none" stroke="black" stroke-dasharray="5,2" points="182,-539 182,-805.25 350,-805.25 350,-539 182,-539"/>
<text text-anchor="middle" x="266" y="-787.95" font-family="Times New Roman,serif" font-size="14.00">Spliter</text>
</g>
<g id="clust10" class="cluster">
<title>cluster_transformer</title>
<polygon fill="none" stroke="black" stroke-dasharray="5,2" points="837,-539.5 837,-805.25 1015,-805.25 1015,-539.5 837,-539.5"/>
<text text-anchor="middle" x="926" y="-787.95" font-family="Times New Roman,serif" font-size="14.00">Transformer</text>
</g>
<g id="clust16" class="cluster">
<title>cluster_report</title>
<polygon fill="none" stroke="black" stroke-dasharray="5,2" points="1549,-460 1549,-805.75 1767,-805.75 1767,-460 1549,-460"/>
<text text-anchor="middle" x="1658" y="-788.45" font-family="Times New Roman,serif" font-size="14.00">Report</text>
</g>
<g id="clust12" class="cluster">
<title>cluster_experiment</title>
<polygon fill="none" stroke="black" stroke-dasharray="5,2" points="1775,-8 1775,-1027.5 2094,-1027.5 2094,-8 1775,-8"/>
<text text-anchor="middle" x="1934.5" y="-1010.2" font-family="Times New Roman,serif" font-size="14.00">Experiment</text>
</g>
<g id="clust13" class="cluster">
<title>cluster_experiment_executor</title>
<polygon fill="none" stroke="black" stroke-dasharray="1,5" points="1849,-16 1849,-710 2086,-710 2086,-16 1849,-16"/>
<text text-anchor="middle" x="1967.5" y="-692.7" font-family="Times New Roman,serif" font-size="14.00">execute</text>
</g>
<g id="clust14" class="cluster">
<title>cluster_multiexperiment</title>
<polygon fill="none" stroke="black" stroke-dasharray="5,2" points="1255,-233 1255,-805.25 1541,-805.25 1541,-233 1255,-233"/>
<text text-anchor="middle" x="1398" y="-787.95" font-family="Times New Roman,serif" font-size="14.00">MultiExperiment</text>
</g>
<g id="clust15" class="cluster">
<title>cluster_multiexperiment_execute</title>
<polygon fill="none" stroke="black" stroke-dasharray="1,5" points="1329,-241 1329,-615.25 1533,-615.25 1533,-241 1329,-241"/>
<text text-anchor="middle" x="1431" y="-597.95" font-family="Times New Roman,serif" font-size="14.00">execute</text>
</g>
<!-- executor_legend -->
<g id="node1" class="node">
<title>executor_legend</title>
<polygon fill="violet" stroke="black" points="166.12,-869.25 103.88,-869.25 99.88,-865.25 99.88,-833.25 162.12,-833.25 166.12,-837.25 166.12,-869.25"/>
<polyline fill="none" stroke="black" points="162.12,-865.25 99.88,-865.25"/>
<polyline fill="none" stroke="black" points="162.12,-865.25 162.12,-833.25"/>
<polyline fill="none" stroke="black" points="162.12,-865.25 166.12,-869.25"/>
<text text-anchor="middle" x="133" y="-845.83" font-family="Times New Roman,serif" font-size="14.00">Executor</text>
</g>
<!-- experiment_legend -->
<g id="node3" class="node">
<title>experiment_legend</title>
<polygon fill="violet" stroke="black" points="1862.5,-773.5 1787.5,-773.5 1783.5,-769.5 1783.5,-737.5 1858.5,-737.5 1862.5,-741.5 1862.5,-773.5"/>
<polyline fill="none" stroke="black" points="1858.5,-769.5 1783.5,-769.5"/>
<polyline fill="none" stroke="black" points="1858.5,-769.5 1858.5,-737.5"/>
<polyline fill="none" stroke="black" points="1858.5,-769.5 1862.5,-773.5"/>
<text text-anchor="middle" x="1823" y="-750.08" font-family="Times New Roman,serif" font-size="14.00">Experiment</text>
</g>
<!-- executor_legend&#45;&gt;experiment_legend -->
<g id="edge40" class="edge">
<title>executor_legend&#45;&gt;experiment_legend</title>
<path fill="none" stroke="black" stroke-dasharray="1,5" d="M174,-849.96C413.22,-848.19 1622.96,-837.81 1765.26,-806.72"/>
<polyline fill="none" stroke="black" points="1775,-803.92 1764.91,-806.82"/>
<path fill="none" stroke="black" d="M1768.34,-800.64C1774.81,-798.79 1777.44,-808.4 1771.1,-810.25"/>
</g>
<!-- spliter_executor -->
<g id="node11" class="node">
<title>spliter_executor</title>
<polygon fill="violet" stroke="black" points="320,-773.5 270,-773.5 266,-769.5 266,-737.5 316,-737.5 320,-741.5 320,-773.5"/>
<polyline fill="none" stroke="black" points="316,-769.5 266,-769.5"/>
<polyline fill="none" stroke="black" points="316,-769.5 316,-737.5"/>
<polyline fill="none" stroke="black" points="316,-769.5 320,-773.5"/>
<text text-anchor="middle" x="293" y="-750.08" font-family="Times New Roman,serif" font-size="14.00">Spliter</text>
</g>
<!-- executor_legend&#45;&gt;spliter_executor -->
<g id="edge6" class="edge">
<title>executor_legend&#45;&gt;spliter_executor</title>
<path fill="none" stroke="black" stroke-dasharray="1,5" d="M174,-842.05C196.94,-836.12 225.56,-826.43 249.3,-811.06"/>
<polyline fill="none" stroke="black" points="257.66,-805.25 249.04,-811.24"/>
<path fill="none" stroke="black" d="M250.29,-804.28C255.91,-800.48 261.33,-808.69 256,-812.49"/>
</g>
<!-- stat_executor -->
<g id="node12" class="node">
<title>stat_executor</title>
<polygon fill="violet" stroke="black" points="610,-773.5 560,-773.5 556,-769.5 556,-737.5 606,-737.5 610,-741.5 610,-773.5"/>
<polyline fill="none" stroke="black" points="606,-769.5 556,-769.5"/>
<polyline fill="none" stroke="black" points="606,-769.5 606,-737.5"/>
<polyline fill="none" stroke="black" points="606,-769.5 610,-773.5"/>
<text text-anchor="middle" x="583" y="-750.08" font-family="Times New Roman,serif" font-size="14.00">Stat</text>
</g>
<!-- executor_legend&#45;&gt;stat_executor -->
<g id="edge10" class="edge">
<title>executor_legend&#45;&gt;stat_executor</title>
<path fill="none" stroke="black" stroke-dasharray="1,5" d="M174,-849.99C261.64,-848.81 465.15,-842.57 537.79,-810.38"/>
<polyline fill="none" stroke="black" points="547,-805.75 537.62,-810.47"/>
<path fill="none" stroke="black" d="M539.84,-803.75C545.91,-800.76 550.18,-809.69 544.33,-812.69"/>
</g>
<!-- analyzer_executor -->
<g id="node13" class="node">
<title>analyzer_executor</title>
<polygon fill="violet" stroke="black" points="821.38,-773.5 760.62,-773.5 756.62,-769.5 756.62,-737.5 817.38,-737.5 821.38,-741.5 821.38,-773.5"/>
<polyline fill="none" stroke="black" points="817.38,-769.5 756.62,-769.5"/>
<polyline fill="none" stroke="black" points="817.38,-769.5 817.38,-737.5"/>
<polyline fill="none" stroke="black" points="817.38,-769.5 821.38,-773.5"/>
<text text-anchor="middle" x="789" y="-750.08" font-family="Times New Roman,serif" font-size="14.00">Analyzer</text>
</g>
<!-- executor_legend&#45;&gt;analyzer_executor -->
<g id="edge14" class="edge">
<title>executor_legend&#45;&gt;analyzer_executor</title>
<path fill="none" stroke="black" stroke-dasharray="1,5" d="M174,-849.11C296.99,-845.43 659.15,-832.79 738.25,-808.93"/>
<polyline fill="none" stroke="black" points="747.96,-805.25 738.14,-808.97"/>
<path fill="none" stroke="black" d="M741.05,-802.52C747.37,-800.16 750.74,-809.51 744.59,-811.87"/>
</g>
<!-- transformer_executor -->
<g id="node14" class="node">
<title>transformer_executor</title>
<polygon fill="violet" stroke="black" points="1006.88,-773.5 925.12,-773.5 921.12,-769.5 921.12,-737.5 1002.88,-737.5 1006.88,-741.5 1006.88,-773.5"/>
<polyline fill="none" stroke="black" points="1002.88,-769.5 921.12,-769.5"/>
<polyline fill="none" stroke="black" points="1002.88,-769.5 1002.88,-737.5"/>
<polyline fill="none" stroke="black" points="1002.88,-769.5 1006.88,-773.5"/>
<text text-anchor="middle" x="964" y="-750.08" font-family="Times New Roman,serif" font-size="14.00">Transformer</text>
</g>
<!-- executor_legend&#45;&gt;transformer_executor -->
<g id="edge18" class="edge">
<title>executor_legend&#45;&gt;transformer_executor</title>
<path fill="none" stroke="black" stroke-dasharray="1,5" d="M174,-849.55C319.18,-846.86 805.42,-835.94 903.43,-808.55"/>
<polyline fill="none" stroke="black" points="913.13,-805.25 903.19,-808.63"/>
<path fill="none" stroke="black" d="M906.31,-802.29C912.71,-800.14 915.77,-809.61 909.54,-811.75"/>
</g>
<!-- operator_executor -->
<g id="node15" class="node">
<title>operator_executor</title>
<polygon fill="violet" stroke="black" points="1231.12,-773.5 1168.88,-773.5 1164.88,-769.5 1164.88,-737.5 1227.12,-737.5 1231.12,-741.5 1231.12,-773.5"/>
<polyline fill="none" stroke="black" points="1227.12,-769.5 1164.88,-769.5"/>
<polyline fill="none" stroke="black" points="1227.12,-769.5 1227.12,-737.5"/>
<polyline fill="none" stroke="black" points="1227.12,-769.5 1231.12,-773.5"/>
<text text-anchor="middle" x="1198" y="-750.08" font-family="Times New Roman,serif" font-size="14.00">Operator</text>
</g>
<!-- executor_legend&#45;&gt;operator_executor -->
<g id="edge22" class="edge">
<title>executor_legend&#45;&gt;operator_executor</title>
<path fill="none" stroke="black" stroke-dasharray="1,5" d="M174,-850.39C348.34,-850.72 1024.82,-849.4 1146.42,-809.52"/>
<polyline fill="none" stroke="black" points="1156,-805.75 1146.23,-809.6"/>
<path fill="none" stroke="black" d="M1149.05,-803.11C1155.34,-800.67 1158.83,-809.97 1152.72,-812.42"/>
</g>
<!-- executor_execute_legend -->
<g id="node17" class="node">
<title>executor_execute_legend</title>
<polygon fill="cornflowerblue" stroke="black" points="102,-773.5 44,-773.5 44,-737.5 102,-737.5 102,-773.5"/>
<text text-anchor="middle" x="73" y="-750.08" font-family="Times New Roman,serif" font-size="14.00">execute</text>
</g>
<!-- executor_legend&#45;&gt;executor_execute_legend -->
<g id="edge2" class="edge">
<title>executor_legend&#45;&gt;executor_execute_legend</title>
<path fill="none" stroke="black" d="M122,-833.05C111.24,-816.25 94.94,-790.78 84.14,-773.9"/>
</g>
<!-- experiment_executor_list -->
<g id="node2" class="node">
<title>experiment_executor_list</title>
<polygon fill="violet" stroke="black" points="1879.12,-995.75 1876.12,-999.75 1855.12,-999.75 1852.12,-995.75 1782.88,-995.75 1782.88,-959.75 1879.12,-959.75 1879.12,-995.75"/>
<text text-anchor="middle" x="1831" y="-972.33" font-family="Times New Roman,serif" font-size="14.00">List[Executor]</text>
</g>
<!-- experiment_executor_list_attribute -->
<g id="node53" class="node">
<title>experiment_executor_list_attribute</title>
<polygon fill="lightpink" stroke="black" points="1782.88,-833.25 1782.88,-869.25 1879.12,-869.25 1879.12,-833.25 1782.88,-833.25"/>
<text text-anchor="middle" x="1831" y="-845.83" font-family="Times New Roman,serif" font-size="14.00">List[Executor]</text>
</g>
<!-- experiment_executor_list&#45;&gt;experiment_executor_list_attribute -->
<g id="edge23" class="edge">
<title>experiment_executor_list&#45;&gt;experiment_executor_list_attribute</title>
<path fill="none" stroke="black" d="M1831,-959.44C1831,-939.09 1831,-905.03 1831,-880.76"/>
<polygon fill="black" stroke="black" points="1834.5,-880.93 1831,-870.93 1827.5,-880.93 1834.5,-880.93"/>
</g>
<!-- multiexperiment -->
<g id="node9" class="node">
<title>multiexperiment</title>
<polygon fill="violet" stroke="black" points="1488.75,-678.25 1385.25,-678.25 1381.25,-674.25 1381.25,-642.25 1484.75,-642.25 1488.75,-646.25 1488.75,-678.25"/>
<polyline fill="none" stroke="black" points="1484.75,-674.25 1381.25,-674.25"/>
<polyline fill="none" stroke="black" points="1484.75,-674.25 1484.75,-642.25"/>
<polyline fill="none" stroke="black" points="1484.75,-674.25 1488.75,-678.25"/>
<text text-anchor="middle" x="1435" y="-654.83" font-family="Times New Roman,serif" font-size="14.00">MultiExperiment</text>
</g>
<!-- experiment_legend&#45;&gt;multiexperiment -->
<g id="edge50" class="edge">
<title>experiment_legend&#45;&gt;multiexperiment</title>
<path fill="none" stroke="black" stroke-dasharray="1,5" d="M1775,-730.69C1773.67,-730.26 1772.33,-729.86 1771,-729.5 1677.08,-703.8 1644.85,-732.97 1551.18,-711.41"/>
<polyline fill="none" stroke="black" points="1541,-708.93 1551.2,-711.42"/>
<path fill="none" stroke="black" d="M1545.15,-715.09C1538.74,-713.51 1540.99,-703.8 1547.52,-705.38"/>
</g>
<!-- report_experiment -->
<g id="node16" class="node">
<title>report_experiment</title>
<polygon fill="violet" stroke="black" points="1636.5,-678.25 1561.5,-678.25 1557.5,-674.25 1557.5,-642.25 1632.5,-642.25 1636.5,-646.25 1636.5,-678.25"/>
<polyline fill="none" stroke="black" points="1632.5,-674.25 1557.5,-674.25"/>
<polyline fill="none" stroke="black" points="1632.5,-674.25 1632.5,-642.25"/>
<polyline fill="none" stroke="black" points="1632.5,-674.25 1636.5,-678.25"/>
<text text-anchor="middle" x="1597" y="-654.83" font-family="Times New Roman,serif" font-size="14.00">Experiment</text>
</g>
<!-- experiment_legend&#45;&gt;report_experiment -->
<g id="edge55" class="edge">
<title>experiment_legend&#45;&gt;report_experiment</title>
<path fill="none" stroke="black" stroke-dasharray="1,5" d="M1814.6,-737.2C1810.13,-729.96 1803.91,-722.26 1775,-712.93"/>
<polyline fill="none" stroke="black" points="1767,-712.08 1777.44,-713.18"/>
<path fill="none" stroke="black" d="M1771.94,-717.63C1765.34,-716.93 1766.34,-706.99 1772.99,-707.69"/>
</g>
<!-- experiment_execute_legend -->
<g id="node18" class="node">
<title>experiment_execute_legend</title>
<polygon fill="cornflowerblue" stroke="black" points="1841,-678.25 1783,-678.25 1783,-642.25 1841,-642.25 1841,-678.25"/>
<text text-anchor="middle" x="1812" y="-654.83" font-family="Times New Roman,serif" font-size="14.00">execute</text>
</g>
<!-- experiment_legend&#45;&gt;experiment_execute_legend -->
<g id="edge25" class="edge">
<title>experiment_legend&#45;&gt;experiment_execute_legend</title>
<path fill="none" stroke="black" d="M1822.41,-737.02C1822.11,-730.98 1821.66,-724.18 1821,-718 1819.59,-704.71 1817.19,-689.78 1815.22,-678.57"/>
</g>
<!-- experiment_executor_0_in_list -->
<g id="node4" class="node">
<title>experiment_executor_0_in_list</title>
<polygon fill="violet" stroke="black" points="2004.38,-678.25 1931.62,-678.25 1927.62,-674.25 1927.62,-642.25 2000.38,-642.25 2004.38,-646.25 2004.38,-678.25"/>
<polyline fill="none" stroke="black" points="2000.38,-674.25 1927.62,-674.25"/>
<polyline fill="none" stroke="black" points="2000.38,-674.25 2000.38,-642.25"/>
<polyline fill="none" stroke="black" points="2000.38,-674.25 2004.38,-678.25"/>
<text text-anchor="middle" x="1966" y="-654.83" font-family="Times New Roman,serif" font-size="14.00">Executor 0</text>
</g>
<!-- experiment_execute_0 -->
<g id="node19" class="node">
<title>experiment_execute_0</title>
<polygon fill="cornflowerblue" stroke="black" points="1959.25,-583.5 1890.75,-583.5 1890.75,-547.5 1959.25,-547.5 1959.25,-583.5"/>
<text text-anchor="middle" x="1925" y="-560.08" font-family="Times New Roman,serif" font-size="14.00">execute 0</text>
</g>
<!-- experiment_executor_0_in_list&#45;&gt;experiment_execute_0 -->
<g id="edge28" class="edge">
<title>experiment_executor_0_in_list&#45;&gt;experiment_execute_0</title>
<path fill="none" stroke="black" d="M1958.29,-641.8C1950.96,-625.22 1940,-600.42 1932.68,-583.87"/>
</g>
<!-- experiment_executor_1_in_list -->
<g id="node5" class="node">
<title>experiment_executor_1_in_list</title>
<polygon fill="violet" stroke="black" points="1936.38,-504 1863.62,-504 1859.62,-500 1859.62,-468 1932.38,-468 1936.38,-472 1936.38,-504"/>
<polyline fill="none" stroke="black" points="1932.38,-500 1859.62,-500"/>
<polyline fill="none" stroke="black" points="1932.38,-500 1932.38,-468"/>
<polyline fill="none" stroke="black" points="1932.38,-500 1936.38,-504"/>
<text text-anchor="middle" x="1898" y="-480.57" font-family="Times New Roman,serif" font-size="14.00">Executor 1</text>
</g>
<!-- experiment_execute_1 -->
<g id="node20" class="node">
<title>experiment_execute_1</title>
<polygon fill="cornflowerblue" stroke="black" points="2046.25,-431 1977.75,-431 1977.75,-395 2046.25,-395 2046.25,-431"/>
<text text-anchor="middle" x="2012" y="-407.57" font-family="Times New Roman,serif" font-size="14.00">execute 1</text>
</g>
<!-- experiment_executor_1_in_list&#45;&gt;experiment_execute_1 -->
<g id="edge31" class="edge">
<title>experiment_executor_1_in_list&#45;&gt;experiment_execute_1</title>
<path fill="none" stroke="black" d="M1925.89,-467.63C1943.55,-456.63 1966.32,-442.45 1984.01,-431.44"/>
</g>
<!-- experiment_executor_dotted_in_list -->
<g id="node6" class="node">
<title>experiment_executor_dotted_in_list</title>
<polygon fill="violet" stroke="black" points="1937,-358 1887,-358 1883,-354 1883,-322 1933,-322 1937,-326 1937,-358"/>
<polyline fill="none" stroke="black" points="1933,-354 1883,-354"/>
<polyline fill="none" stroke="black" points="1933,-354 1933,-322"/>
<polyline fill="none" stroke="black" points="1933,-354 1937,-358"/>
<text text-anchor="middle" x="1910" y="-334.57" font-family="Times New Roman,serif" font-size="14.00">...</text>
</g>
<!-- experiment_execute_dotted -->
<g id="node21" class="node">
<title>experiment_execute_dotted</title>
<polygon fill="cornflowerblue" stroke="black" points="2040,-285 1986,-285 1986,-249 2040,-249 2040,-285"/>
<text text-anchor="middle" x="2013" y="-261.57" font-family="Times New Roman,serif" font-size="14.00">...</text>
</g>
<!-- experiment_executor_dotted_in_list&#45;&gt;experiment_execute_dotted -->
<g id="edge34" class="edge">
<title>experiment_executor_dotted_in_list&#45;&gt;experiment_execute_dotted</title>
<path fill="none" stroke="black" d="M1935.2,-321.63C1951.16,-310.63 1971.73,-296.45 1987.71,-285.44"/>
</g>
<!-- experiment_executor_n_in_list -->
<g id="node7" class="node">
<title>experiment_executor_n_in_list</title>
<polygon fill="violet" stroke="black" points="1933.38,-206 1860.62,-206 1856.62,-202 1856.62,-170 1929.38,-170 1933.38,-174 1933.38,-206"/>
<polyline fill="none" stroke="black" points="1929.38,-202 1856.62,-202"/>
<polyline fill="none" stroke="black" points="1929.38,-202 1929.38,-170"/>
<polyline fill="none" stroke="black" points="1929.38,-202 1933.38,-206"/>
<text text-anchor="middle" x="1895" y="-182.57" font-family="Times New Roman,serif" font-size="14.00">Executor n</text>
</g>
<!-- experiment_execute_n -->
<g id="node22" class="node">
<title>experiment_execute_n</title>
<polygon fill="cornflowerblue" stroke="black" points="1999.25,-133 1930.75,-133 1930.75,-97 1999.25,-97 1999.25,-133"/>
<text text-anchor="middle" x="1965" y="-109.58" font-family="Times New Roman,serif" font-size="14.00">execute n</text>
</g>
<!-- experiment_executor_n_in_list&#45;&gt;experiment_execute_n -->
<g id="edge37" class="edge">
<title>experiment_executor_n_in_list&#45;&gt;experiment_execute_n</title>
<path fill="none" stroke="black" d="M1911.95,-169.81C1922.95,-158.65 1937.24,-144.16 1948.21,-133.03"/>
</g>
<!-- multiexperiment_experiment -->
<g id="node8" class="node">
<title>multiexperiment_experiment</title>
<polygon fill="violet" stroke="black" points="1474.5,-773.5 1399.5,-773.5 1395.5,-769.5 1395.5,-737.5 1470.5,-737.5 1474.5,-741.5 1474.5,-773.5"/>
<polyline fill="none" stroke="black" points="1470.5,-769.5 1395.5,-769.5"/>
<polyline fill="none" stroke="black" points="1470.5,-769.5 1470.5,-737.5"/>
<polyline fill="none" stroke="black" points="1470.5,-769.5 1474.5,-773.5"/>
<text text-anchor="middle" x="1435" y="-750.08" font-family="Times New Roman,serif" font-size="14.00">Experiment</text>
</g>
<!-- multiexperiment_experiment&#45;&gt;multiexperiment -->
<g id="edge41" class="edge">
<title>multiexperiment_experiment&#45;&gt;multiexperiment</title>
<path fill="none" stroke="black" d="M1435,-737.4C1435,-720.68 1435,-695.35 1435,-678.56"/>
</g>
<!-- multiexperiment_execute -->
<g id="node23" class="node">
<title>multiexperiment_execute</title>
<polygon fill="cornflowerblue" stroke="black" points="1321,-583.5 1263,-583.5 1263,-547.5 1321,-547.5 1321,-583.5"/>
<text text-anchor="middle" x="1292" y="-560.08" font-family="Times New Roman,serif" font-size="14.00">execute</text>
</g>
<!-- multiexperiment&#45;&gt;multiexperiment_execute -->
<g id="edge42" class="edge">
<title>multiexperiment&#45;&gt;multiexperiment_execute</title>
<path fill="none" stroke="black" d="M1380.93,-644.83C1361.92,-637.97 1341.26,-628.35 1325,-615.25 1314.49,-606.79 1306.05,-594.09 1300.33,-583.78"/>
</g>
<!-- multiexperiment_execte_experiment -->
<g id="node10" class="node">
<title>multiexperiment_execte_experiment</title>
<polygon fill="violet" stroke="black" points="1432.5,-583.5 1357.5,-583.5 1353.5,-579.5 1353.5,-547.5 1428.5,-547.5 1432.5,-551.5 1432.5,-583.5"/>
<polyline fill="none" stroke="black" points="1428.5,-579.5 1353.5,-579.5"/>
<polyline fill="none" stroke="black" points="1428.5,-579.5 1428.5,-547.5"/>
<polyline fill="none" stroke="black" points="1428.5,-579.5 1432.5,-583.5"/>
<text text-anchor="middle" x="1393" y="-560.08" font-family="Times New Roman,serif" font-size="14.00">Experiment</text>
</g>
<!-- multiexperiment_executor_execute -->
<g id="node24" class="node">
<title>multiexperiment_executor_execute</title>
<polygon fill="cornflowerblue" stroke="black" points="1422,-504 1364,-504 1364,-468 1422,-468 1422,-504"/>
<text text-anchor="middle" x="1393" y="-480.57" font-family="Times New Roman,serif" font-size="14.00">execute</text>
</g>
<!-- multiexperiment_execte_experiment&#45;&gt;multiexperiment_executor_execute -->
<g id="edge44" class="edge">
<title>multiexperiment_execte_experiment&#45;&gt;multiexperiment_executor_execute</title>
<path fill="none" stroke="black" d="M1393,-547.3C1393,-534.55 1393,-517.23 1393,-504.42"/>
</g>
<!-- spliter_execute -->
<g id="node26" class="node">
<title>spliter_execute</title>
<polygon fill="cornflowerblue" stroke="black" points="295,-678.25 237,-678.25 237,-642.25 295,-642.25 295,-678.25"/>
<text text-anchor="middle" x="266" y="-654.83" font-family="Times New Roman,serif" font-size="14.00">execute</text>
</g>
<!-- spliter_executor&#45;&gt;spliter_execute -->
<g id="edge3" class="edge">
<title>spliter_executor&#45;&gt;spliter_execute</title>
<path fill="none" stroke="black" d="M288.05,-737.4C283.21,-720.68 275.87,-695.35 271.01,-678.56"/>
</g>
<!-- stat_execute -->
<g id="node27" class="node">
<title>stat_execute</title>
<polygon fill="cornflowerblue" stroke="black" points="546,-678.25 488,-678.25 488,-642.25 546,-642.25 546,-678.25"/>
<text text-anchor="middle" x="517" y="-654.83" font-family="Times New Roman,serif" font-size="14.00">execute</text>
</g>
<!-- stat_executor&#45;&gt;stat_execute -->
<g id="edge7" class="edge">
<title>stat_executor&#45;&gt;stat_execute</title>
<path fill="none" stroke="black" d="M570.89,-737.4C559.06,-720.68 541.14,-695.35 529.25,-678.56"/>
</g>
<!-- analyzer_execute -->
<g id="node28" class="node">
<title>analyzer_execute</title>
<polygon fill="cornflowerblue" stroke="black" points="742,-678.25 684,-678.25 684,-642.25 742,-642.25 742,-678.25"/>
<text text-anchor="middle" x="713" y="-654.83" font-family="Times New Roman,serif" font-size="14.00">execute</text>
</g>
<!-- analyzer_executor&#45;&gt;analyzer_execute -->
<g id="edge11" class="edge">
<title>analyzer_executor&#45;&gt;analyzer_execute</title>
<path fill="none" stroke="black" d="M775.06,-737.4C761.43,-720.68 740.79,-695.35 727.11,-678.56"/>
</g>
<!-- transformer_execute -->
<g id="node29" class="node">
<title>transformer_execute</title>
<polygon fill="cornflowerblue" stroke="black" points="927,-678.25 869,-678.25 869,-642.25 927,-642.25 927,-678.25"/>
<text text-anchor="middle" x="898" y="-654.83" font-family="Times New Roman,serif" font-size="14.00">execute</text>
</g>
<!-- transformer_executor&#45;&gt;transformer_execute -->
<g id="edge15" class="edge">
<title>transformer_executor&#45;&gt;transformer_execute</title>
<path fill="none" stroke="black" d="M951.89,-737.4C940.06,-720.68 922.14,-695.35 910.25,-678.56"/>
</g>
<!-- operator_execute -->
<g id="node30" class="node">
<title>operator_execute</title>
<polygon fill="cornflowerblue" stroke="black" points="1172,-678.25 1114,-678.25 1114,-642.25 1172,-642.25 1172,-678.25"/>
<text text-anchor="middle" x="1143" y="-654.83" font-family="Times New Roman,serif" font-size="14.00">execute</text>
</g>
<!-- operator_executor&#45;&gt;operator_execute -->
<g id="edge19" class="edge">
<title>operator_executor&#45;&gt;operator_execute</title>
<path fill="none" stroke="black" d="M1187.91,-737.4C1178.05,-720.68 1163.11,-695.35 1153.21,-678.56"/>
</g>
<!-- report_execute -->
<g id="node31" class="node">
<title>report_execute</title>
<polygon fill="cornflowerblue" stroke="black" points="1685,-583.5 1627,-583.5 1627,-547.5 1685,-547.5 1685,-583.5"/>
<text text-anchor="middle" x="1656" y="-560.08" font-family="Times New Roman,serif" font-size="14.00">execute</text>
</g>
<!-- report_experiment&#45;&gt;report_execute -->
<g id="edge52" class="edge">
<title>report_experiment&#45;&gt;report_execute</title>
<path fill="none" stroke="black" d="M1608.1,-641.8C1618.65,-625.22 1634.42,-600.42 1644.95,-583.87"/>
</g>
<!-- experiment_execute_legend&#45;&gt;experiment_execute_0 -->
<g id="edge39" class="edge">
<title>experiment_execute_legend&#45;&gt;experiment_execute_0</title>
<path fill="none" stroke="black" d="M1833.25,-641.8C1838.03,-637.88 1843.37,-633.5 1849,-628.88"/>
</g>
<!-- experiment_data_0 -->
<g id="node34" class="node">
<title>experiment_data_0</title>
<polygon fill="lightgreen" stroke="black" points="2063.5,-504 1954.5,-504 1954.5,-468 2069.5,-468 2069.5,-498 2063.5,-504"/>
<polyline fill="none" stroke="black" points="2063.5,-504 2063.5,-498"/>
<polyline fill="none" stroke="black" points="2069.5,-498 2063.5,-498"/>
<text text-anchor="middle" x="2012" y="-480.57" font-family="Times New Roman,serif" font-size="14.00">ExperimentData 0</text>
</g>
<!-- experiment_execute_0&#45;&gt;experiment_data_0 -->
<g id="edge29" class="edge">
<title>experiment_execute_0&#45;&gt;experiment_data_0</title>
<path fill="none" stroke="black" d="M1944.31,-547.3C1955.94,-536.94 1970.96,-523.56 1983.89,-512.04"/>
<polygon fill="black" stroke="black" points="1986.18,-514.69 1991.31,-505.43 1981.52,-509.46 1986.18,-514.69"/>
</g>
<!-- experiment_data_1 -->
<g id="node35" class="node">
<title>experiment_data_1</title>
<polygon fill="lightgreen" stroke="black" points="2064.5,-358 1955.5,-358 1955.5,-322 2070.5,-322 2070.5,-352 2064.5,-358"/>
<polyline fill="none" stroke="black" points="2064.5,-358 2064.5,-352"/>
<polyline fill="none" stroke="black" points="2070.5,-352 2064.5,-352"/>
<text text-anchor="middle" x="2013" y="-334.57" font-family="Times New Roman,serif" font-size="14.00">ExperimentData 1</text>
</g>
<!-- experiment_execute_1&#45;&gt;experiment_data_1 -->
<g id="edge32" class="edge">
<title>experiment_execute_1&#45;&gt;experiment_data_1</title>
<path fill="none" stroke="black" d="M2012.24,-394.81C2012.35,-387.23 2012.48,-378.1 2012.6,-369.54"/>
<polygon fill="black" stroke="black" points="2016.1,-369.59 2012.74,-359.54 2009.1,-369.49 2016.1,-369.59"/>
</g>
<!-- experiment_data_n -->
<g id="node36" class="node">
<title>experiment_data_n</title>
<polygon fill="lightgreen" stroke="black" points="2072.12,-206 1951.88,-206 1951.88,-170 2078.12,-170 2078.12,-200 2072.12,-206"/>
<polyline fill="none" stroke="black" points="2072.12,-206 2072.12,-200"/>
<polyline fill="none" stroke="black" points="2078.12,-200 2072.12,-200"/>
<text text-anchor="middle" x="2015" y="-182.57" font-family="Times New Roman,serif" font-size="14.00">ExperimentData n&#45;1</text>
</g>
<!-- experiment_execute_dotted&#45;&gt;experiment_data_n -->
<g id="edge35" class="edge">
<title>experiment_execute_dotted&#45;&gt;experiment_data_n</title>
<path fill="none" stroke="black" d="M2013.45,-248.53C2013.69,-239.47 2013.98,-228.17 2014.25,-217.86"/>
<polygon fill="black" stroke="black" points="2017.75,-218 2014.51,-207.92 2010.75,-217.82 2017.75,-218"/>
</g>
<!-- experiment_data_final -->
<g id="node37" class="node">
<title>experiment_data_final</title>
<polygon fill="lightgreen" stroke="black" points="2016.5,-60 1907.5,-60 1907.5,-24 2022.5,-24 2022.5,-54 2016.5,-60"/>
<polyline fill="none" stroke="black" points="2016.5,-60 2016.5,-54"/>
<polyline fill="none" stroke="black" points="2022.5,-54 2016.5,-54"/>
<text text-anchor="middle" x="1965" y="-36.58" font-family="Times New Roman,serif" font-size="14.00">ExperimentData n</text>
</g>
<!-- experiment_execute_n&#45;&gt;experiment_data_final -->
<g id="edge38" class="edge">
<title>experiment_execute_n&#45;&gt;experiment_data_final</title>
<path fill="none" stroke="black" d="M1965,-96.81C1965,-89.23 1965,-80.1 1965,-71.54"/>
<polygon fill="black" stroke="black" points="1968.5,-71.54 1965,-61.54 1961.5,-71.54 1968.5,-71.54"/>
</g>
<!-- multiexperiment_execute&#45;&gt;multiexperiment_executor_execute -->
<g id="edge49" class="edge">
<title>multiexperiment_execute&#45;&gt;multiexperiment_executor_execute</title>
<path fill="none" stroke="black" d="M1307.77,-547.06C1313.02,-541.65 1319.05,-535.85 1325,-531 1326.31,-529.93 1327.64,-528.87 1329,-527.81"/>
</g>
<!-- multiexperiment_executor_experiment_data -->
<g id="node39" class="node">
<title>multiexperiment_executor_experiment_data</title>
<polygon fill="lightgreen" stroke="black" points="1442.62,-431 1337.38,-431 1337.38,-395 1448.62,-395 1448.62,-425 1442.62,-431"/>
<polyline fill="none" stroke="black" points="1442.62,-431 1442.62,-425"/>
<polyline fill="none" stroke="black" points="1448.62,-425 1442.62,-425"/>
<text text-anchor="middle" x="1393" y="-407.57" font-family="Times New Roman,serif" font-size="14.00">ExperimentData i</text>
</g>
<!-- multiexperiment_executor_execute&#45;&gt;multiexperiment_executor_experiment_data -->
<g id="edge45" class="edge">
<title>multiexperiment_executor_execute&#45;&gt;multiexperiment_executor_experiment_data</title>
<path fill="none" stroke="black" d="M1393,-467.81C1393,-460.23 1393,-451.1 1393,-442.54"/>
<polygon fill="black" stroke="black" points="1396.5,-442.54 1393,-432.54 1389.5,-442.54 1396.5,-442.54"/>
</g>
<!-- multiexperiment_execute_data_append -->
<g id="node25" class="node">
<title>multiexperiment_execute_data_append</title>
<polygon fill="cornflowerblue" stroke="black" points="1481.62,-358 1424.38,-358 1424.38,-322 1481.62,-322 1481.62,-358"/>
<text text-anchor="middle" x="1453" y="-334.57" font-family="Times New Roman,serif" font-size="14.00">append</text>
</g>
<!-- multiexperiment_execute_data_append&#45;&gt;multiexperiment_executor_execute -->
<g id="edge48" class="edge">
<title>multiexperiment_execute_data_append&#45;&gt;multiexperiment_executor_execute</title>
<path fill="none" stroke="black" stroke-dasharray="5,2" d="M1458.6,-358.17C1463.72,-376.99 1468.97,-407.63 1458,-431 1452.16,-443.45 1441.88,-454.02 1431.19,-462.43"/>
<polygon fill="black" stroke="black" points="1429.46,-459.36 1423.43,-468.07 1433.58,-465.02 1429.46,-459.36"/>
<text text-anchor="middle" x="1484.88" y="-407.57" font-family="Times New Roman,serif" font-size="14.00">n times</text>
</g>
<!-- multiexperiment_executor_result_data -->
<g id="node40" class="node">
<title>multiexperiment_executor_result_data</title>
<polygon fill="lightgreen" stroke="black" points="1499.25,-285 1400.75,-285 1400.75,-249 1505.25,-249 1505.25,-279 1499.25,-285"/>
<polyline fill="none" stroke="black" points="1499.25,-285 1499.25,-279"/>
<polyline fill="none" stroke="black" points="1505.25,-279 1499.25,-279"/>
<text text-anchor="middle" x="1453" y="-261.57" font-family="Times New Roman,serif" font-size="14.00">ExperimentData</text>
</g>
<!-- multiexperiment_execute_data_append&#45;&gt;multiexperiment_executor_result_data -->
<g id="edge47" class="edge">
<title>multiexperiment_execute_data_append&#45;&gt;multiexperiment_executor_result_data</title>
<path fill="none" stroke="black" d="M1453,-321.81C1453,-314.23 1453,-305.1 1453,-296.54"/>
<polygon fill="black" stroke="black" points="1456.5,-296.54 1453,-286.54 1449.5,-296.54 1456.5,-296.54"/>
</g>
<!-- spliter_out_data -->
<g id="node42" class="node">
<title>spliter_out_data</title>
<polygon fill="lightgreen" stroke="black" points="190.38,-547.5 190.38,-583.5 341.62,-583.5 341.62,-547.5 190.38,-547.5"/>
<text text-anchor="middle" x="219" y="-560.08" font-family="Times New Roman,serif" font-size="14.00">Dataset</text>
<polyline fill="none" stroke="black" points="247.62,-547.5 247.62,-583.5"/>
<text text-anchor="middle" x="294.62" y="-560.08" font-family="Times New Roman,serif" font-size="14.00">group column</text>
</g>
<!-- spliter_execute&#45;&gt;spliter_out_data -->
<g id="edge4" class="edge">
<title>spliter_execute&#45;&gt;spliter_out_data</title>
<path fill="none" stroke="black" d="M266,-641.8C266,-628.72 266,-610.52 266,-595.29"/>
<polygon fill="black" stroke="black" points="269.5,-595.38 266,-585.38 262.5,-595.38 269.5,-595.38"/>
</g>
<!-- stat_experiment_data -->
<g id="node44" class="node">
<title>stat_experiment_data</title>
<polygon fill="lightgreen" stroke="black" points="563.25,-583.5 464.75,-583.5 464.75,-547.5 569.25,-547.5 569.25,-577.5 563.25,-583.5"/>
<polyline fill="none" stroke="black" points="563.25,-583.5 563.25,-577.5"/>
<polyline fill="none" stroke="black" points="569.25,-577.5 563.25,-577.5"/>
<text text-anchor="middle" x="517" y="-560.08" font-family="Times New Roman,serif" font-size="14.00">ExperimentData</text>
</g>
<!-- stat_execute&#45;&gt;stat_experiment_data -->
<g id="edge9" class="edge">
<title>stat_execute&#45;&gt;stat_experiment_data</title>
<path fill="none" stroke="black" d="M517,-641.8C517,-628.72 517,-610.52 517,-595.29"/>
<polygon fill="black" stroke="black" points="520.5,-595.38 517,-585.38 513.5,-595.38 520.5,-595.38"/>
</g>
<!-- analyzer_out_data -->
<g id="node46" class="node">
<title>analyzer_out_data</title>
<polygon fill="lightgreen" stroke="black" points="759.25,-583.5 660.75,-583.5 660.75,-547.5 765.25,-547.5 765.25,-577.5 759.25,-583.5"/>
<polyline fill="none" stroke="black" points="759.25,-583.5 759.25,-577.5"/>
<polyline fill="none" stroke="black" points="765.25,-577.5 759.25,-577.5"/>
<text text-anchor="middle" x="713" y="-560.08" font-family="Times New Roman,serif" font-size="14.00">ExperimentData</text>
</g>
<!-- analyzer_execute&#45;&gt;analyzer_out_data -->
<g id="edge13" class="edge">
<title>analyzer_execute&#45;&gt;analyzer_out_data</title>
<path fill="none" stroke="black" d="M713,-641.8C713,-628.72 713,-610.52 713,-595.29"/>
<polygon fill="black" stroke="black" points="716.5,-595.38 713,-585.38 709.5,-595.38 716.5,-595.38"/>
</g>
<!-- transformer_out_data -->
<g id="node48" class="node">
<title>transformer_out_data</title>
<polygon fill="lightgreen" stroke="black" points="920.62,-583.5 869.38,-583.5 869.38,-547.5 926.62,-547.5 926.62,-577.5 920.62,-583.5"/>
<polyline fill="none" stroke="black" points="920.62,-583.5 920.62,-577.5"/>
<polyline fill="none" stroke="black" points="926.62,-577.5 920.62,-577.5"/>
<text text-anchor="middle" x="898" y="-560.08" font-family="Times New Roman,serif" font-size="14.00">Dataset</text>
</g>
<!-- transformer_execute&#45;&gt;transformer_out_data -->
<g id="edge17" class="edge">
<title>transformer_execute&#45;&gt;transformer_out_data</title>
<path fill="none" stroke="black" d="M898,-641.8C898,-628.72 898,-610.52 898,-595.29"/>
<polygon fill="black" stroke="black" points="901.5,-595.38 898,-585.38 894.5,-595.38 901.5,-595.38"/>
</g>
<!-- operator_out_data -->
<g id="node50" class="node">
<title>operator_out_data</title>
<polygon fill="lightgreen" stroke="black" points="1189.25,-583.5 1090.75,-583.5 1090.75,-547.5 1195.25,-547.5 1195.25,-577.5 1189.25,-583.5"/>
<polyline fill="none" stroke="black" points="1189.25,-583.5 1189.25,-577.5"/>
<polyline fill="none" stroke="black" points="1195.25,-577.5 1189.25,-577.5"/>
<text text-anchor="middle" x="1143" y="-560.08" font-family="Times New Roman,serif" font-size="14.00">ExperimentData</text>
</g>
<!-- operator_execute&#45;&gt;operator_out_data -->
<g id="edge21" class="edge">
<title>operator_execute&#45;&gt;operator_out_data</title>
<path fill="none" stroke="black" d="M1143,-641.8C1143,-628.72 1143,-610.52 1143,-595.29"/>
<polygon fill="black" stroke="black" points="1146.5,-595.38 1143,-585.38 1139.5,-595.38 1146.5,-595.38"/>
</g>
<!-- report_out_data -->
<g id="node52" class="node">
<title>report_out_data</title>
<polygon fill="lightgreen" stroke="black" points="1698.5,-504 1607.5,-504 1607.5,-468 1704.5,-468 1704.5,-498 1698.5,-504"/>
<polyline fill="none" stroke="black" points="1698.5,-504 1698.5,-498"/>
<polyline fill="none" stroke="black" points="1704.5,-498 1698.5,-498"/>
<text text-anchor="middle" x="1656" y="-480.57" font-family="Times New Roman,serif" font-size="14.00">Report artifact</text>
</g>
<!-- report_execute&#45;&gt;report_out_data -->
<g id="edge54" class="edge">
<title>report_execute&#45;&gt;report_out_data</title>
<path fill="none" stroke="black" d="M1656,-547.3C1656,-538.03 1656,-526.36 1656,-515.75"/>
<polygon fill="black" stroke="black" points="1659.5,-515.93 1656,-505.93 1652.5,-515.93 1659.5,-515.93"/>
</g>
<!-- executor_legend_data -->
<g id="node32" class="node">
<title>executor_legend_data</title>
<polygon fill="lightgreen" stroke="black" points="75.62,-869.25 24.38,-869.25 24.38,-833.25 81.62,-833.25 81.62,-863.25 75.62,-869.25"/>
<polyline fill="none" stroke="black" points="75.62,-869.25 75.62,-863.25"/>
<polyline fill="none" stroke="black" points="81.62,-863.25 75.62,-863.25"/>
<text text-anchor="middle" x="53" y="-845.83" font-family="Times New Roman,serif" font-size="14.00">Dataset</text>
</g>
<!-- executor_legend_data&#45;&gt;executor_execute_legend -->
<g id="edge1" class="edge">
<title>executor_legend_data&#45;&gt;executor_execute_legend</title>
<path fill="none" stroke="black" d="M56.67,-833.05C59.53,-819.66 63.56,-800.77 66.9,-785.11"/>
<polygon fill="black" stroke="black" points="70.31,-785.89 68.97,-775.38 63.46,-784.43 70.31,-785.89"/>
</g>
<!-- experiment_legend_data -->
<g id="node33" class="node">
<title>experiment_legend_data</title>
<polygon fill="lightgreen" stroke="black" points="1931.62,-773.5 1880.38,-773.5 1880.38,-737.5 1937.62,-737.5 1937.62,-767.5 1931.62,-773.5"/>
<polyline fill="none" stroke="black" points="1931.62,-773.5 1931.62,-767.5"/>
<polyline fill="none" stroke="black" points="1937.62,-767.5 1931.62,-767.5"/>
<text text-anchor="middle" x="1909" y="-750.08" font-family="Times New Roman,serif" font-size="14.00">Dataset</text>
</g>
<!-- experiment_legend_data&#45;&gt;experiment_execute_legend -->
<g id="edge26" class="edge">
<title>experiment_legend_data&#45;&gt;experiment_execute_legend</title>
<path fill="none" stroke="black" d="M1883.59,-737.15C1866.47,-725.4 1846.7,-711.72 1845,-710 1838.61,-703.53 1832.67,-695.66 1827.65,-688.16"/>
<polygon fill="black" stroke="black" points="1830.73,-686.49 1822.42,-679.92 1824.82,-690.24 1830.73,-686.49"/>
</g>
<!-- experiment_legend_data&#45;&gt;experiment_execute_0 -->
<g id="edge27" class="edge">
<title>experiment_legend_data&#45;&gt;experiment_execute_0</title>
<path fill="none" stroke="black" stroke-dasharray="1,5" d="M1910.48,-737.15C1913.23,-704.76 1919.19,-634.81 1922.55,-595.26"/>
<polygon fill="black" stroke="black" points="1926.04,-595.58 1923.4,-585.32 1919.06,-594.98 1926.04,-595.58"/>
</g>
<!-- experiment_data_0&#45;&gt;experiment_execute_1 -->
<g id="edge30" class="edge">
<title>experiment_data_0&#45;&gt;experiment_execute_1</title>
<path fill="none" stroke="black" d="M2012,-467.81C2012,-460.23 2012,-451.1 2012,-442.54"/>
<polygon fill="black" stroke="black" points="2015.5,-442.54 2012,-432.54 2008.5,-442.54 2015.5,-442.54"/>
</g>
<!-- experiment_data_1&#45;&gt;experiment_execute_dotted -->
<g id="edge33" class="edge">
<title>experiment_data_1&#45;&gt;experiment_execute_dotted</title>
<path fill="none" stroke="black" d="M2013,-321.81C2013,-314.23 2013,-305.1 2013,-296.54"/>
<polygon fill="black" stroke="black" points="2016.5,-296.54 2013,-286.54 2009.5,-296.54 2016.5,-296.54"/>
</g>
<!-- experiment_data_n&#45;&gt;experiment_execute_n -->
<g id="edge36" class="edge">
<title>experiment_data_n&#45;&gt;experiment_execute_n</title>
<path fill="none" stroke="black" d="M2002.9,-169.81C1997.06,-161.53 1989.94,-151.41 1983.45,-142.19"/>
<polygon fill="black" stroke="black" points="1986.48,-140.43 1977.86,-134.27 1980.76,-144.46 1986.48,-140.43"/>
</g>
<!-- multiexperiment_data -->
<g id="node38" class="node">
<title>multiexperiment_data</title>
<polygon fill="lightgreen" stroke="black" points="1314.62,-678.25 1263.38,-678.25 1263.38,-642.25 1320.62,-642.25 1320.62,-672.25 1314.62,-678.25"/>
<polyline fill="none" stroke="black" points="1314.62,-678.25 1314.62,-672.25"/>
<polyline fill="none" stroke="black" points="1320.62,-672.25 1314.62,-672.25"/>
<text text-anchor="middle" x="1292" y="-654.83" font-family="Times New Roman,serif" font-size="14.00">Dataset</text>
</g>
<!-- multiexperiment_data&#45;&gt;multiexperiment_execute -->
<g id="edge43" class="edge">
<title>multiexperiment_data&#45;&gt;multiexperiment_execute</title>
<path fill="none" stroke="black" d="M1292,-641.8C1292,-628.72 1292,-610.52 1292,-595.29"/>
<polygon fill="black" stroke="black" points="1295.5,-595.38 1292,-585.38 1288.5,-595.38 1295.5,-595.38"/>
</g>
<!-- multiexperiment_executor_experiment_data&#45;&gt;multiexperiment_execute_data_append -->
<g id="edge46" class="edge">
<title>multiexperiment_executor_experiment_data&#45;&gt;multiexperiment_execute_data_append</title>
<path fill="none" stroke="black" d="M1407.52,-394.81C1414.67,-386.35 1423.44,-375.98 1431.36,-366.61"/>
<polygon fill="black" stroke="black" points="1433.85,-369.08 1437.63,-359.18 1428.5,-364.56 1433.85,-369.08"/>
</g>
<!-- spliter_data -->
<g id="node41" class="node">
<title>spliter_data</title>
<polygon fill="lightgreen" stroke="black" points="241.62,-773.5 190.38,-773.5 190.38,-737.5 247.62,-737.5 247.62,-767.5 241.62,-773.5"/>
<polyline fill="none" stroke="black" points="241.62,-773.5 241.62,-767.5"/>
<polyline fill="none" stroke="black" points="247.62,-767.5 241.62,-767.5"/>
<text text-anchor="middle" x="219" y="-750.08" font-family="Times New Roman,serif" font-size="14.00">Dataset</text>
</g>
<!-- spliter_data&#45;&gt;spliter_execute -->
<g id="edge5" class="edge">
<title>spliter_data&#45;&gt;spliter_execute</title>
<path fill="none" stroke="black" d="M227.62,-737.4C234.47,-723.81 244.18,-704.55 252.12,-688.79"/>
<polygon fill="black" stroke="black" points="255.22,-690.42 256.59,-679.91 248.97,-687.27 255.22,-690.42"/>
</g>
<!-- stat_data -->
<g id="node43" class="node">
<title>stat_data</title>
<polygon fill="lightgreen" stroke="black" points="365.88,-737.5 365.88,-773.5 538.12,-773.5 538.12,-737.5 365.88,-737.5"/>
<text text-anchor="middle" x="394.5" y="-750.08" font-family="Times New Roman,serif" font-size="14.00">Dataset</text>
<polyline fill="none" stroke="black" points="423.12,-737.5 423.12,-773.5"/>
<text text-anchor="middle" x="480.62" y="-750.08" font-family="Times New Roman,serif" font-size="14.00">stat target column</text>
</g>
<!-- stat_data&#45;&gt;stat_execute -->
<g id="edge8" class="edge">
<title>stat_data&#45;&gt;stat_execute</title>
<path fill="none" stroke="black" d="M463.92,-737.4C473.57,-723.55 487.34,-703.8 498.43,-687.89"/>
<polygon fill="black" stroke="black" points="501.22,-690.01 504.07,-679.8 495.48,-686 501.22,-690.01"/>
</g>
<!-- analyzer_in_data -->
<g id="node45" class="node">
<title>analyzer_in_data</title>
<polygon fill="lightgreen" stroke="black" points="732.25,-773.5 633.75,-773.5 633.75,-737.5 738.25,-737.5 738.25,-767.5 732.25,-773.5"/>
<polyline fill="none" stroke="black" points="732.25,-773.5 732.25,-767.5"/>
<polyline fill="none" stroke="black" points="738.25,-767.5 732.25,-767.5"/>
<text text-anchor="middle" x="686" y="-750.08" font-family="Times New Roman,serif" font-size="14.00">ExperimentData</text>
</g>
<!-- analyzer_in_data&#45;&gt;analyzer_execute -->
<g id="edge12" class="edge">
<title>analyzer_in_data&#45;&gt;analyzer_execute</title>
<path fill="none" stroke="black" d="M690.95,-737.4C694.85,-723.94 700.36,-704.92 704.89,-689.25"/>
<polygon fill="black" stroke="black" points="708.15,-690.59 707.57,-680.01 701.42,-688.65 708.15,-690.59"/>
</g>
<!-- transformer_in_data -->
<g id="node47" class="node">
<title>transformer_in_data</title>
<polygon fill="lightgreen" stroke="black" points="896.62,-773.5 845.38,-773.5 845.38,-737.5 902.62,-737.5 902.62,-767.5 896.62,-773.5"/>
<polyline fill="none" stroke="black" points="896.62,-773.5 896.62,-767.5"/>
<polyline fill="none" stroke="black" points="902.62,-767.5 896.62,-767.5"/>
<text text-anchor="middle" x="874" y="-750.08" font-family="Times New Roman,serif" font-size="14.00">Dataset</text>
</g>
<!-- transformer_in_data&#45;&gt;transformer_execute -->
<g id="edge16" class="edge">
<title>transformer_in_data&#45;&gt;transformer_execute</title>
<path fill="none" stroke="black" d="M878.4,-737.4C881.83,-724.07 886.67,-705.28 890.68,-689.71"/>
<polygon fill="black" stroke="black" points="894.06,-690.58 893.17,-680.03 887.29,-688.84 894.06,-690.58"/>
</g>
<!-- operator_in_data -->
<g id="node49" class="node">
<title>operator_in_data</title>
<polygon fill="lightgreen" stroke="black" points="1030.88,-737.5 1030.88,-773.5 1147.12,-773.5 1147.12,-737.5 1030.88,-737.5"/>
<text text-anchor="middle" x="1059.5" y="-750.08" font-family="Times New Roman,serif" font-size="14.00">Dataset</text>
<polyline fill="none" stroke="black" points="1088.12,-737.5 1088.12,-773.5"/>
<text text-anchor="middle" x="1102.88" y="-750.08" font-family="Times New Roman,serif" font-size="14.00">x1</text>
<polyline fill="none" stroke="black" points="1117.62,-737.5 1117.62,-773.5"/>
<text text-anchor="middle" x="1132.38" y="-750.08" font-family="Times New Roman,serif" font-size="14.00">x2</text>
</g>
<!-- operator_in_data&#45;&gt;operator_execute -->
<g id="edge20" class="edge">
<title>operator_in_data&#45;&gt;operator_execute</title>
<path fill="none" stroke="black" d="M1098.9,-737.4C1106.85,-723.68 1118.14,-704.17 1127.31,-688.34"/>
<polygon fill="black" stroke="black" points="1130.23,-690.28 1132.22,-679.87 1124.18,-686.77 1130.23,-690.28"/>
</g>
<!-- report_in_data -->
<g id="node51" class="node">
<title>report_in_data</title>
<polygon fill="lightgreen" stroke="black" points="1753.25,-678.25 1654.75,-678.25 1654.75,-642.25 1759.25,-642.25 1759.25,-672.25 1753.25,-678.25"/>
<polyline fill="none" stroke="black" points="1753.25,-678.25 1753.25,-672.25"/>
<polyline fill="none" stroke="black" points="1759.25,-672.25 1753.25,-672.25"/>
<text text-anchor="middle" x="1707" y="-654.83" font-family="Times New Roman,serif" font-size="14.00">ExperimentData</text>
</g>
<!-- report_in_data&#45;&gt;report_execute -->
<g id="edge53" class="edge">
<title>report_in_data&#45;&gt;report_execute</title>
<path fill="none" stroke="black" d="M1697.41,-641.8C1690,-628.33 1679.61,-609.43 1671.09,-593.94"/>
<polygon fill="black" stroke="black" points="1674.16,-592.27 1666.28,-585.19 1668.03,-595.64 1674.16,-592.27"/>
</g>
<!-- experiment_executor_list_attribute&#45;&gt;experiment_legend -->
<g id="edge24" class="edge">
<title>experiment_executor_list_attribute&#45;&gt;experiment_legend</title>
<path fill="none" stroke="black" d="M1829.53,-833.05C1828.1,-816.25 1825.93,-790.78 1824.49,-773.9"/>
</g>
<!-- report_backend -->
<g id="node54" class="node">
<title>report_backend</title>
<polygon fill="lightpink" stroke="black" points="1564.62,-737.5 1564.62,-773.5 1629.38,-773.5 1629.38,-737.5 1564.62,-737.5"/>
<text text-anchor="middle" x="1597" y="-750.08" font-family="Times New Roman,serif" font-size="14.00">Backend</text>
</g>
<!-- report_backend&#45;&gt;report_experiment -->
<g id="edge51" class="edge">
<title>report_backend&#45;&gt;report_experiment</title>
<path fill="none" stroke="black" d="M1597,-737.4C1597,-720.68 1597,-695.35 1597,-678.56"/>
</g>
</g>
</svg>
