<?xml version="1.0" encoding="UTF-8" standalone="no"?>
<!DOCTYPE svg PUBLIC "-//W3C//DTD SVG 1.1//EN"
 "http://www.w3.org/Graphics/SVG/1.1/DTD/svg11.dtd">
<!-- Generated by graphviz version 8.0.5 (20230430.1635)
 -->
<!-- Title: ClassPath Pages: 1 -->
<svg width="1150pt" height="1037pt"
 viewBox="0.00 0.00 1150.00 1036.50" xmlns="http://www.w3.org/2000/svg" xmlns:xlink="http://www.w3.org/1999/xlink">
<g id="graph0" class="graph" transform="scale(1 1) rotate(0) translate(4 1032.5)">
<title>ClassPath</title>
<polygon fill="white" stroke="none" points="-4,4 -4,-1032.5 1146,-1032.5 1146,4 -4,4"/>
<g id="clust8" class="cluster">
<title>cluster_matcher</title>
<polygon fill="mistyrose" stroke="black" points="728,-79 728,-491.25 1134,-491.25 1134,-79 728,-79"/>
<text text-anchor="middle" x="931" y="-473.95" font-family="Times New Roman,serif" font-size="14.00">Matcher process</text>
</g>
<g id="clust10" class="cluster">
<title>cluster_matching_validation</title>
<polygon fill="none" stroke="black" stroke-dasharray="1,5" points="964,-87 964,-396.5 1126,-396.5 1126,-87 964,-87"/>
<text text-anchor="middle" x="1045" y="-379.2" font-family="Times New Roman,serif" font-size="14.00">Validation process</text>
</g>
<g id="clust12" class="cluster">
<title>cluster_AA</title>
<polygon fill="lavender" stroke="black" points="332,-8 332,-617.75 566,-617.75 566,-8 332,-8"/>
<text text-anchor="middle" x="449" y="-600.45" font-family="Times New Roman,serif" font-size="14.00">AA process</text>
</g>
<g id="clust13" class="cluster">
<title>cluster_split</title>
<polygon fill="none" stroke="black" stroke-dasharray="1,5" points="340,-320.75 340,-586 486,-586 486,-320.75 340,-320.75"/>
<text text-anchor="middle" x="413" y="-568.7" font-family="Times New Roman,serif" font-size="14.00">Split process</text>
</g>
<g id="clust15" class="cluster">
<title>cluster_AB</title>
<polygon fill="honeydew" stroke="black" points="574,-160 574,-491.25 720,-491.25 720,-160 574,-160"/>
<text text-anchor="middle" x="647" y="-473.95" font-family="Times New Roman,serif" font-size="14.00">AB process</text>
</g>
<g id="clust4" class="cluster">
<title>cluster_legend</title>
<polygon fill="whitesmoke" stroke="black" points="8,-817.25 8,-1020.5 634,-1020.5 634,-817.25 8,-817.25"/>
<text text-anchor="middle" x="321" y="-1003.2" font-family="Times New Roman,serif" font-size="14.00">legend</text>
</g>
<g id="clust6" class="cluster">
<title>cluster_edges</title>
<polygon fill="none" stroke="black" stroke-dasharray="5,2" points="277,-825.25 277,-988.75 626,-988.75 626,-825.25 277,-825.25"/>
<text text-anchor="middle" x="451.5" y="-971.45" font-family="Times New Roman,serif" font-size="14.00">edges</text>
</g>
<g id="clust5" class="cluster">
<title>cluster_nodes</title>
<polygon fill="none" stroke="black" stroke-dasharray="5,2" points="16,-913 16,-988.75 269,-988.75 269,-913 16,-913"/>
<text text-anchor="middle" x="142.5" y="-971.45" font-family="Times New Roman,serif" font-size="14.00">nodes</text>
</g>
<g id="clust7" class="cluster">
<title>cluster_experiment</title>
<polygon fill="none" stroke="black" stroke-dasharray="1,5" points="576,-510.25 576,-712.5 727,-712.5 727,-510.25 576,-510.25"/>
<text text-anchor="middle" x="651.5" y="-695.2" font-family="Times New Roman,serif" font-size="14.00">experiment structure</text>
</g>
<!-- abstract_class -->
<g id="node1" class="node">
<title>abstract_class</title>
<polygon fill="silver" stroke="black" points="221.95,-921.05 224.57,-921.15 227.15,-921.3 229.7,-921.49 232.21,-921.74 234.65,-922.03 237.03,-922.36 239.33,-922.75 241.54,-923.18 243.67,-923.65 245.68,-924.16 247.6,-924.71 249.39,-925.31 251.07,-925.94 252.62,-926.61 254.04,-927.31 255.32,-928.04 256.47,-928.8 257.49,-929.59 258.36,-930.41 259.09,-931.25 259.69,-932.11 260.14,-932.99 260.46,-933.89 260.64,-934.8 260.69,-935.72 260.61,-936.65 260.4,-937.59 260.07,-938.53 259.63,-939.47 259.07,-940.41 258.41,-941.35 257.64,-942.28 256.78,-943.2 255.82,-944.11 254.79,-945.01 253.67,-945.89 252.48,-946.75 251.22,-947.59 249.91,-948.41 248.53,-949.2 247.1,-949.96 245.63,-950.69 244.12,-951.39 242.57,-952.06 240.99,-952.69 239.38,-953.29 237.74,-953.84 236.08,-954.35 234.41,-954.82 232.72,-955.25 231.01,-955.64 229.3,-955.97 227.57,-956.26 225.84,-956.51 224.1,-956.7 222.36,-956.85 220.62,-956.95 218.87,-957 217.13,-957 215.38,-956.95 213.64,-956.85 211.9,-956.7 210.16,-956.51 208.43,-956.26 206.7,-955.97 204.99,-955.64 203.28,-955.25 201.59,-954.82 199.92,-954.35 198.26,-953.84 196.62,-953.29 195.01,-952.69 193.43,-952.06 191.88,-951.39 190.37,-950.69 188.9,-949.96 187.47,-949.2 186.09,-948.41 184.78,-947.59 183.52,-946.75 182.33,-945.89 181.21,-945.01 180.18,-944.11 179.22,-943.2 178.36,-942.28 177.59,-941.35 176.93,-940.41 176.37,-939.47 175.93,-938.53 175.6,-937.59 175.39,-936.65 175.31,-935.72 175.36,-934.8 175.54,-933.89 175.86,-932.99 176.31,-932.11 176.91,-931.25 177.64,-930.41 178.51,-929.59 179.53,-928.8 180.68,-928.04 181.96,-927.31 183.38,-926.61 184.93,-925.94 186.61,-925.31 188.4,-924.71 190.32,-924.16 192.33,-923.65 194.46,-923.18 196.67,-922.75 198.97,-922.36 201.35,-922.03 203.79,-921.74 206.3,-921.49 208.85,-921.3 211.43,-921.15 214.05,-921.05 216.68,-921 219.32,-921 221.95,-921.05"/>
<text text-anchor="middle" x="218" y="-933.58" font-family="Times New Roman,serif" font-size="14.00">abstract</text>
</g>
<!-- abstract_object -->
<g id="node2" class="node">
<title>abstract_object</title>
<polygon fill="silver" stroke="black" points="554.46,-921.05 558.73,-921.15 562.97,-921.3 567.14,-921.49 571.23,-921.74 575.22,-922.03 579.11,-922.36 582.87,-922.75 586.49,-923.18 589.96,-923.65 593.26,-924.16 596.38,-924.71 599.32,-925.31 602.06,-925.94 604.59,-926.61 606.92,-927.31 609.02,-928.04 610.9,-928.8 612.56,-929.59 613.98,-930.41 615.18,-931.25 616.15,-932.11 616.9,-932.99 617.41,-933.89 617.71,-934.8 617.79,-935.72 617.66,-936.65 617.32,-937.59 616.78,-938.53 616.06,-939.47 615.14,-940.41 614.06,-941.35 612.8,-942.28 611.39,-943.2 609.84,-944.11 608.14,-945.01 606.32,-945.89 604.37,-946.75 602.32,-947.59 600.16,-948.41 597.91,-949.2 595.58,-949.96 593.17,-950.69 590.7,-951.39 588.17,-952.06 585.58,-952.69 582.95,-953.29 580.27,-953.84 577.56,-954.35 574.82,-954.82 572.06,-955.25 569.27,-955.64 566.47,-955.97 563.65,-956.26 560.82,-956.51 557.98,-956.7 555.13,-956.85 552.28,-956.95 549.43,-957 546.57,-957 543.72,-956.95 540.87,-956.85 538.02,-956.7 535.18,-956.51 532.35,-956.26 529.53,-955.97 526.73,-955.64 523.94,-955.25 521.18,-954.82 518.44,-954.35 515.73,-953.84 513.05,-953.29 510.42,-952.69 507.83,-952.06 505.3,-951.39 502.83,-950.69 500.42,-949.96 498.09,-949.2 495.84,-948.41 493.68,-947.59 491.63,-946.75 489.68,-945.89 487.86,-945.01 486.16,-944.11 484.61,-943.2 483.2,-942.28 481.94,-941.35 480.86,-940.41 479.94,-939.47 479.22,-938.53 478.68,-937.59 478.34,-936.65 478.21,-935.72 478.29,-934.8 478.59,-933.89 479.1,-932.99 479.85,-932.11 480.82,-931.25 482.02,-930.41 483.44,-929.59 485.1,-928.8 486.98,-928.04 489.08,-927.31 491.41,-926.61 493.94,-925.94 496.68,-925.31 499.62,-924.71 502.74,-924.16 506.04,-923.65 509.51,-923.18 513.13,-922.75 516.89,-922.36 520.78,-922.03 524.77,-921.74 528.86,-921.49 533.03,-921.3 537.27,-921.15 541.54,-921.05 545.84,-921 550.16,-921 554.46,-921.05"/>
<text text-anchor="middle" x="548" y="-933.58" font-family="Times New Roman,serif" font-size="14.00">abstract object</text>
</g>
<!-- implementation -->
<g id="node9" class="node">
<title>implementation</title>
<polygon fill="cornflowerblue" stroke="black" points="618,-869.25 518,-869.25 518,-833.25 618,-833.25 618,-869.25"/>
<text text-anchor="middle" x="568" y="-845.83" font-family="Times New Roman,serif" font-size="14.00">implementation</text>
</g>
<!-- abstract_object&#45;&gt;implementation -->
<g id="edge3" class="edge">
<title>abstract_object&#45;&gt;implementation</title>
<path fill="none" stroke="black" d="M552.05,-920.65C554.84,-908.68 558.61,-892.53 561.78,-878.93"/>
<polyline fill="none" stroke="black" points="563.96,-869.58 561.69,-879.32"/>
<path fill="none" stroke="black" d="M557.95,-873.31C559.71,-866.82 568.96,-869.09 567.69,-875.58"/>
<text text-anchor="middle" x="588.5" y="-889.7" font-family="Times New Roman,serif" font-size="14.00">implement</text>
</g>
<!-- Executor -->
<g id="node3" class="node">
<title>Executor</title>
<polygon fill="silver" stroke="black" points="618.34,-754.3 621.22,-754.4 624.07,-754.55 626.87,-754.74 629.62,-754.99 632.31,-755.28 634.92,-755.61 637.45,-756 639.89,-756.43 642.22,-756.9 644.44,-757.41 646.54,-757.96 648.52,-758.56 650.36,-759.19 652.06,-759.86 653.63,-760.56 655.04,-761.29 656.31,-762.05 657.42,-762.84 658.38,-763.66 659.19,-764.5 659.84,-765.36 660.34,-766.24 660.69,-767.14 660.89,-768.05 660.94,-768.97 660.85,-769.9 660.62,-770.84 660.26,-771.78 659.77,-772.72 659.16,-773.66 658.43,-774.6 657.59,-775.53 656.64,-776.45 655.59,-777.36 654.45,-778.26 653.22,-779.14 651.91,-780 650.53,-780.84 649.08,-781.66 647.57,-782.45 646,-783.21 644.38,-783.94 642.72,-784.64 641.02,-785.31 639.28,-785.94 637.51,-786.54 635.71,-787.09 633.88,-787.6 632.04,-788.07 630.18,-788.5 628.31,-788.89 626.42,-789.22 624.53,-789.51 622.62,-789.76 620.71,-789.95 618.8,-790.1 616.88,-790.2 614.96,-790.25 613.04,-790.25 611.12,-790.2 609.2,-790.1 607.29,-789.95 605.38,-789.76 603.47,-789.51 601.58,-789.22 599.69,-788.89 597.82,-788.5 595.96,-788.07 594.12,-787.6 592.29,-787.09 590.49,-786.54 588.72,-785.94 586.98,-785.31 585.28,-784.64 583.62,-783.94 582,-783.21 580.43,-782.45 578.92,-781.66 577.47,-780.84 576.09,-780 574.78,-779.14 573.55,-778.26 572.41,-777.36 571.36,-776.45 570.41,-775.53 569.57,-774.6 568.84,-773.66 568.23,-772.72 567.74,-771.78 567.38,-770.84 567.15,-769.9 567.06,-768.97 567.11,-768.05 567.31,-767.14 567.66,-766.24 568.16,-765.36 568.81,-764.5 569.62,-763.66 570.58,-762.84 571.69,-762.05 572.96,-761.29 574.37,-760.56 575.94,-759.86 577.64,-759.19 579.48,-758.56 581.46,-757.96 583.56,-757.41 585.78,-756.9 588.11,-756.43 590.55,-756 593.08,-755.61 595.69,-755.28 598.38,-754.99 601.13,-754.74 603.93,-754.55 606.78,-754.4 609.66,-754.3 612.55,-754.25 615.45,-754.25 618.34,-754.3"/>
<text text-anchor="middle" x="614" y="-766.83" font-family="Times New Roman,serif" font-size="14.00">Executor</text>
</g>
<!-- Pipeline -->
<g id="node13" class="node">
<title>Pipeline</title>
<polygon fill="cornflowerblue" stroke="black" points="643.75,-680.75 584.25,-680.75 584.25,-644.75 643.75,-644.75 643.75,-680.75"/>
<text text-anchor="middle" x="614" y="-657.33" font-family="Times New Roman,serif" font-size="14.00">Pipeline</text>
</g>
<!-- Executor&#45;&gt;Pipeline -->
<g id="edge4" class="edge">
<title>Executor&#45;&gt;Pipeline</title>
<path fill="none" stroke="black" d="M614,-753.98C614,-736.97 614,-710.75 614,-690.94"/>
<polyline fill="none" stroke="black" points="614,-680.98 614,-690.98"/>
<path fill="none" stroke="black" d="M609,-685.98C609.25,-679.31 618.75,-679.31 619,-685.98"/>
</g>
<!-- AbstractHypothesis -->
<g id="node4" class="node">
<title>AbstractHypothesis</title>
<polygon fill="silver" stroke="black" points="740.33,-921.05 745.84,-921.15 751.3,-921.3 756.67,-921.49 761.95,-921.74 767.1,-922.03 772.11,-922.36 776.96,-922.75 781.63,-923.18 786.1,-923.65 790.36,-924.16 794.38,-924.71 798.17,-925.31 801.7,-925.94 804.97,-926.61 807.96,-927.31 810.67,-928.04 813.1,-928.8 815.23,-929.59 817.07,-930.41 818.62,-931.25 819.87,-932.11 820.83,-932.99 821.5,-933.89 821.88,-934.8 821.98,-935.72 821.81,-936.65 821.38,-937.59 820.69,-938.53 819.75,-939.47 818.57,-940.41 817.17,-941.35 815.56,-942.28 813.74,-943.2 811.73,-944.11 809.54,-945.01 807.19,-945.89 804.68,-946.75 802.03,-947.59 799.25,-948.41 796.35,-949.2 793.35,-949.96 790.25,-950.69 787.06,-951.39 783.79,-952.06 780.45,-952.69 777.06,-953.29 773.61,-953.84 770.12,-954.35 766.59,-954.82 763.02,-955.25 759.43,-955.64 755.81,-955.97 752.18,-956.26 748.53,-956.51 744.87,-956.7 741.2,-956.85 737.52,-956.95 733.84,-957 730.16,-957 726.48,-956.95 722.8,-956.85 719.13,-956.7 715.47,-956.51 711.82,-956.26 708.19,-955.97 704.57,-955.64 700.98,-955.25 697.41,-954.82 693.88,-954.35 690.39,-953.84 686.94,-953.29 683.55,-952.69 680.21,-952.06 676.94,-951.39 673.75,-950.69 670.65,-949.96 667.65,-949.2 664.75,-948.41 661.97,-947.59 659.32,-946.75 656.81,-945.89 654.46,-945.01 652.27,-944.11 650.26,-943.2 648.44,-942.28 646.83,-941.35 645.43,-940.41 644.25,-939.47 643.31,-938.53 642.62,-937.59 642.19,-936.65 642.02,-935.72 642.12,-934.8 642.5,-933.89 643.17,-932.99 644.13,-932.11 645.38,-931.25 646.93,-930.41 648.77,-929.59 650.9,-928.8 653.33,-928.04 656.04,-927.31 659.03,-926.61 662.3,-925.94 665.83,-925.31 669.62,-924.71 673.64,-924.16 677.9,-923.65 682.37,-923.18 687.04,-922.75 691.89,-922.36 696.9,-922.03 702.05,-921.74 707.33,-921.49 712.7,-921.3 718.16,-921.15 723.67,-921.05 729.22,-921 734.78,-921 740.33,-921.05"/>
<text text-anchor="middle" x="732" y="-933.58" font-family="Times New Roman,serif" font-size="14.00">AbstractHypothesis</text>
</g>
<!-- Hypothesis -->
<g id="node14" class="node">
<title>Hypothesis</title>
<polygon fill="cornflowerblue" stroke="black" points="771.5,-869.25 692.5,-869.25 692.5,-833.25 771.5,-833.25 771.5,-869.25"/>
<text text-anchor="middle" x="732" y="-845.83" font-family="Times New Roman,serif" font-size="14.00">Hypothesis</text>
</g>
<!-- AbstractHypothesis&#45;&gt;Hypothesis -->
<g id="edge5" class="edge">
<title>AbstractHypothesis&#45;&gt;Hypothesis</title>
<path fill="none" stroke="black" d="M732,-920.65C732,-908.79 732,-892.84 732,-879.33"/>
<polyline fill="none" stroke="black" points="732,-869.58 732,-879.58"/>
<path fill="none" stroke="black" d="M727,-874.58C727.25,-867.91 736.75,-867.91 737,-874.58"/>
</g>
<!-- module -->
<g id="node5" class="node">
<title>module</title>
<polygon fill="cornflowerblue" stroke="black" points="157.62,-957 100.38,-957 100.38,-921 157.62,-921 157.62,-957"/>
<text text-anchor="middle" x="129" y="-933.58" font-family="Times New Roman,serif" font-size="14.00">module</text>
</g>
<!-- factory_legend -->
<g id="node6" class="node">
<title>factory_legend</title>
<polygon fill="cornflowerblue" stroke="black" points="459.75,-957 400.25,-957 400.25,-921 459.75,-921 459.75,-957"/>
<text text-anchor="middle" x="430" y="-933.58" font-family="Times New Roman,serif" font-size="14.00">Factory</text>
</g>
<!-- created_object -->
<g id="node7" class="node">
<title>created_object</title>
<polygon fill="cornflowerblue" stroke="black" points="500.38,-869.25 405.62,-869.25 405.62,-833.25 500.38,-833.25 500.38,-869.25"/>
<text text-anchor="middle" x="453" y="-845.83" font-family="Times New Roman,serif" font-size="14.00">created object</text>
</g>
<!-- factory_legend&#45;&gt;created_object -->
<g id="edge1" class="edge">
<title>factory_legend&#45;&gt;created_object</title>
<path fill="none" stroke="black" d="M434.65,-920.65C437.87,-908.68 442.2,-892.53 445.84,-878.93"/>
<polygon fill="black" stroke="black" points="445.76,-879.24 452.7,-870.74 447.06,-874.41 448.35,-869.58 448.35,-869.58 448.35,-869.58 447.06,-874.41 444.01,-868.41 445.76,-879.24 445.76,-879.24"/>
<text text-anchor="middle" x="460.5" y="-889.7" font-family="Times New Roman,serif" font-size="14.00">create</text>
</g>
<!-- inner_object -->
<g id="node8" class="node">
<title>inner_object</title>
<polygon fill="cornflowerblue" stroke="black" points="376.62,-957 295.38,-957 295.38,-921 376.62,-921 376.62,-957"/>
<text text-anchor="middle" x="336" y="-933.58" font-family="Times New Roman,serif" font-size="14.00">inner object</text>
</g>
<!-- complex_object -->
<g id="node24" class="node">
<title>complex_object</title>
<polygon fill="violet" stroke="black" points="387.12,-869.25 288.88,-869.25 284.88,-865.25 284.88,-833.25 383.12,-833.25 387.12,-837.25 387.12,-869.25"/>
<polyline fill="none" stroke="black" points="383.12,-865.25 284.88,-865.25"/>
<polyline fill="none" stroke="black" points="383.12,-865.25 383.12,-833.25"/>
<polyline fill="none" stroke="black" points="383.12,-865.25 387.12,-869.25"/>
<text text-anchor="middle" x="336" y="-845.83" font-family="Times New Roman,serif" font-size="14.00">complex object</text>
</g>
<!-- inner_object&#45;&gt;complex_object -->
<g id="edge2" class="edge">
<title>inner_object&#45;&gt;complex_object</title>
<path fill="none" stroke="black" d="M336,-920.65C336,-908.91 336,-893.16 336,-879.73"/>
<polygon fill="black" stroke="black" points="332,-870.08 340,-870.08 340,-878.08 332,-878.08 332,-870.08"/>
<polyline fill="none" stroke="black" points="336,-878.08 336,-880.08"/>
<text text-anchor="middle" x="340.88" y="-889.7" font-family="Times New Roman,serif" font-size="14.00">in</text>
</g>
<!-- Dataset -->
<g id="node10" class="node">
<title>Dataset</title>
<polygon fill="cornflowerblue" stroke="black" points="718.62,-680.75 661.38,-680.75 661.38,-644.75 718.62,-644.75 718.62,-680.75"/>
<text text-anchor="middle" x="690" y="-657.33" font-family="Times New Roman,serif" font-size="14.00">Dataset</text>
</g>
<!-- Experiment -->
<g id="node12" class="node">
<title>Experiment</title>
<polygon fill="cornflowerblue" stroke="black" points="718.5,-554.25 639.5,-554.25 639.5,-518.25 718.5,-518.25 718.5,-554.25"/>
<text text-anchor="middle" x="679" y="-530.83" font-family="Times New Roman,serif" font-size="14.00">Experiment</text>
</g>
<!-- Dataset&#45;&gt;Experiment -->
<g id="edge10" class="edge">
<title>Dataset&#45;&gt;Experiment</title>
<path fill="none" stroke="black" d="M688.47,-644.44C686.65,-623.81 683.58,-589.09 681.43,-564.77"/>
<polygon fill="black" stroke="black" points="676.58,-555.26 684.55,-554.56 685.25,-562.53 677.28,-563.23 676.58,-555.26"/>
<polyline fill="none" stroke="black" points="681.26,-562.88 681.44,-564.87"/>
</g>
<!-- Factory -->
<g id="node11" class="node">
<title>Factory</title>
<polygon fill="cornflowerblue" stroke="black" points="761.75,-790.25 702.25,-790.25 702.25,-754.25 761.75,-754.25 761.75,-790.25"/>
<text text-anchor="middle" x="732" y="-766.83" font-family="Times New Roman,serif" font-size="14.00">Factory</text>
</g>
<!-- Factory&#45;&gt;Experiment -->
<g id="edge7" class="edge">
<title>Factory&#45;&gt;Experiment</title>
<path fill="none" stroke="black" d="M733.59,-753.78C735.36,-729.12 736.9,-682.83 728,-644.75 721.17,-615.52 706.13,-584.58 694.51,-563.44"/>
<polygon fill="black" stroke="black" points="694.51,-563.45 693.53,-552.52 692.06,-559.09 689.61,-554.73 689.61,-554.73 689.61,-554.73 692.06,-559.09 685.69,-556.94 694.51,-563.45 694.51,-563.45"/>
<text text-anchor="middle" x="752.25" y="-657.33" font-family="Times New Roman,serif" font-size="14.00">object</text>
</g>
<!-- Factory&#45;&gt;Pipeline -->
<g id="edge8" class="edge">
<title>Factory&#45;&gt;Pipeline</title>
<path fill="none" stroke="black" d="M704.61,-753.91C688.44,-743.02 668.07,-728.11 652,-712.5 644.69,-705.4 637.57,-696.85 631.51,-688.91"/>
<polygon fill="black" stroke="black" points="631.56,-688.98 629.23,-678.27 628.59,-684.96 625.61,-680.95 625.61,-680.95 625.61,-680.95 628.59,-684.96 622,-683.62 631.56,-688.98 631.56,-688.98"/>
<text text-anchor="middle" x="696.25" y="-722.95" font-family="Times New Roman,serif" font-size="14.00">object</text>
</g>
<!-- SelectorsMatching -->
<g id="node25" class="node">
<title>SelectorsMatching</title>
<polygon fill="violet" stroke="black" points="836.88,-459.5 773.12,-459.5 769.12,-455.5 769.12,-423.5 832.88,-423.5 836.88,-427.5 836.88,-459.5"/>
<polyline fill="none" stroke="black" points="832.88,-455.5 769.12,-455.5"/>
<polyline fill="none" stroke="black" points="832.88,-455.5 832.88,-423.5"/>
<polyline fill="none" stroke="black" points="832.88,-455.5 836.88,-459.5"/>
<text text-anchor="middle" x="803" y="-436.07" font-family="Times New Roman,serif" font-size="14.00">Selectors</text>
</g>
<!-- Experiment&#45;&gt;SelectorsMatching -->
<g id="edge26" class="edge">
<title>Experiment&#45;&gt;SelectorsMatching</title>
<path fill="none" stroke="black" d="M702.32,-517.8C710.23,-511.89 719.53,-504.93 729.23,-497.68"/>
<polygon fill="black" stroke="black" points="730.92,-500.04 736.83,-491.25 726.73,-494.43 730.92,-500.04"/>
</g>
<!-- SpliterAAPipeline -->
<g id="node33" class="node">
<title>SpliterAAPipeline</title>
<polygon fill="violet" stroke="black" points="553,-459.5 503,-459.5 499,-455.5 499,-423.5 549,-423.5 553,-427.5 553,-459.5"/>
<polyline fill="none" stroke="black" points="549,-455.5 499,-455.5"/>
<polyline fill="none" stroke="black" points="549,-455.5 549,-423.5"/>
<polyline fill="none" stroke="black" points="549,-455.5 553,-459.5"/>
<text text-anchor="middle" x="526" y="-436.07" font-family="Times New Roman,serif" font-size="14.00">Spliter</text>
</g>
<!-- Experiment&#45;&gt;SpliterAAPipeline -->
<g id="edge38" class="edge">
<title>Experiment&#45;&gt;SpliterAAPipeline</title>
<path fill="none" stroke="black" d="M639.01,-523.96C620,-517.58 597.25,-508.44 575.1,-494.38"/>
<polygon fill="black" stroke="black" points="577.25,-490.94 567,-488.29 573.36,-496.76 577.25,-490.94"/>
</g>
<!-- SelectorAB -->
<g id="node39" class="node">
<title>SelectorAB</title>
<polygon fill="violet" stroke="black" points="709.88,-459.5 652.12,-459.5 648.12,-455.5 648.12,-423.5 705.88,-423.5 709.88,-427.5 709.88,-459.5"/>
<polyline fill="none" stroke="black" points="705.88,-455.5 648.12,-455.5"/>
<polyline fill="none" stroke="black" points="705.88,-455.5 705.88,-423.5"/>
<polyline fill="none" stroke="black" points="705.88,-455.5 709.88,-459.5"/>
<text text-anchor="middle" x="679" y="-436.07" font-family="Times New Roman,serif" font-size="14.00">Selector</text>
</g>
<!-- Experiment&#45;&gt;SelectorAB -->
<g id="edge44" class="edge">
<title>Experiment&#45;&gt;SelectorAB</title>
<path fill="none" stroke="black" d="M679,-517.8C679,-513.03 679,-507.57 679,-501.82"/>
<polygon fill="black" stroke="black" points="682.5,-502.25 679,-492.25 675.5,-502.25 682.5,-502.25"/>
</g>
<!-- Pipeline&#45;&gt;Experiment -->
<g id="edge9" class="edge">
<title>Pipeline&#45;&gt;Experiment</title>
<path fill="none" stroke="black" d="M623.04,-644.44C634,-623.44 652.59,-587.83 665.31,-563.46"/>
<polygon fill="black" stroke="black" points="666.26,-553.01 673.35,-556.71 669.65,-563.8 662.56,-560.1 666.26,-553.01"/>
<polyline fill="none" stroke="black" points="666.1,-561.95 665.18,-563.72"/>
</g>
<!-- Hypothesis&#45;&gt;Factory -->
<g id="edge6" class="edge">
<title>Hypothesis&#45;&gt;Factory</title>
<path fill="none" stroke="black" d="M732,-832.78C732,-823.42 732,-811.68 732,-801.11"/>
<polygon fill="black" stroke="black" points="728,-791.15 736,-791.15 736,-799.15 728,-799.15 728,-791.15"/>
<polyline fill="none" stroke="black" points="732,-799.15 732,-801.15"/>
</g>
<!-- Matcher -->
<g id="node15" class="node">
<title>Matcher</title>
<polygon fill="cornflowerblue" stroke="black" points="842.88,-364.75 781.12,-364.75 781.12,-328.75 842.88,-328.75 842.88,-364.75"/>
<text text-anchor="middle" x="812" y="-341.32" font-family="Times New Roman,serif" font-size="14.00">Matcher</text>
</g>
<!-- StatsMatcher -->
<g id="node26" class="node">
<title>StatsMatcher</title>
<polygon fill="violet" stroke="black" points="790,-291.75 740,-291.75 736,-287.75 736,-255.75 786,-255.75 790,-259.75 790,-291.75"/>
<polyline fill="none" stroke="black" points="786,-287.75 736,-287.75"/>
<polyline fill="none" stroke="black" points="786,-287.75 786,-255.75"/>
<polyline fill="none" stroke="black" points="786,-287.75 790,-291.75"/>
<text text-anchor="middle" x="763" y="-268.32" font-family="Times New Roman,serif" font-size="14.00">Stats</text>
</g>
<!-- Matcher&#45;&gt;StatsMatcher -->
<g id="edge13" class="edge">
<title>Matcher&#45;&gt;StatsMatcher</title>
<path fill="none" stroke="black" d="M800.14,-328.56C794.36,-320.19 787.29,-309.95 780.88,-300.65"/>
<polygon fill="black" stroke="black" points="783.31,-299.02 774.75,-292.78 777.55,-303 783.31,-299.02"/>
</g>
<!-- MetricsMatcher -->
<g id="node27" class="node">
<title>MetricsMatcher</title>
<polygon fill="violet" stroke="black" points="866,-291.75 812,-291.75 808,-287.75 808,-255.75 862,-255.75 866,-259.75 866,-291.75"/>
<polyline fill="none" stroke="black" points="862,-287.75 808,-287.75"/>
<polyline fill="none" stroke="black" points="862,-287.75 862,-255.75"/>
<polyline fill="none" stroke="black" points="862,-287.75 866,-291.75"/>
<text text-anchor="middle" x="837" y="-268.32" font-family="Times New Roman,serif" font-size="14.00">Metrics</text>
</g>
<!-- Matcher&#45;&gt;MetricsMatcher -->
<g id="edge12" class="edge">
<title>Matcher&#45;&gt;MetricsMatcher</title>
<path fill="none" stroke="black" d="M818.05,-328.56C820.85,-320.63 824.23,-311.01 827.37,-302.11"/>
<polygon fill="black" stroke="black" points="830.98,-303.37 831,-292.78 824.38,-301.05 830.98,-303.37"/>
</g>
<!-- ValidationMatching -->
<g id="node28" class="node">
<title>ValidationMatching</title>
<polygon fill="violet" stroke="black" points="956.12,-291.75 887.88,-291.75 883.88,-287.75 883.88,-255.75 952.12,-255.75 956.12,-259.75 956.12,-291.75"/>
<polyline fill="none" stroke="black" points="952.12,-287.75 883.88,-287.75"/>
<polyline fill="none" stroke="black" points="952.12,-287.75 952.12,-255.75"/>
<polyline fill="none" stroke="black" points="952.12,-287.75 956.12,-291.75"/>
<text text-anchor="middle" x="920" y="-268.32" font-family="Times New Roman,serif" font-size="14.00">Validation</text>
</g>
<!-- Matcher&#45;&gt;ValidationMatching -->
<g id="edge14" class="edge">
<title>Matcher&#45;&gt;ValidationMatching</title>
<path fill="none" stroke="black" d="M838.42,-328.38C852.28,-319.27 869.45,-307.98 884.46,-298.11"/>
<polygon fill="black" stroke="black" points="886.05,-300.6 892.48,-292.19 882.2,-294.75 886.05,-300.6"/>
</g>
<!-- ReportMatcher -->
<g id="node16" class="node">
<title>ReportMatcher</title>
<polygon fill="cornflowerblue" stroke="black" points="864.5,-204 809.5,-204 809.5,-168 864.5,-168 864.5,-204"/>
<text text-anchor="middle" x="837" y="-180.57" font-family="Times New Roman,serif" font-size="14.00">Report</text>
</g>
<!-- AnalyzerMatching -->
<g id="node29" class="node">
<title>AnalyzerMatching</title>
<polygon fill="violet" stroke="black" points="869.38,-131 808.62,-131 804.62,-127 804.62,-95 865.38,-95 869.38,-99 869.38,-131"/>
<polyline fill="none" stroke="black" points="865.38,-127 804.62,-127"/>
<polyline fill="none" stroke="black" points="865.38,-127 865.38,-95"/>
<polyline fill="none" stroke="black" points="865.38,-127 869.38,-131"/>
<text text-anchor="middle" x="837" y="-107.58" font-family="Times New Roman,serif" font-size="14.00">Analyzer</text>
</g>
<!-- ReportMatcher&#45;&gt;AnalyzerMatching -->
<g id="edge25" class="edge">
<title>ReportMatcher&#45;&gt;AnalyzerMatching</title>
<path fill="none" stroke="black" d="M837,-167.81C837,-160.05 837,-150.68 837,-141.95"/>
<polygon fill="black" stroke="black" points="840.5,-142.03 837,-132.03 833.5,-142.03 840.5,-142.03"/>
</g>
<!-- TransformerMatchingValidation -->
<g id="node17" class="node">
<title>TransformerMatchingValidation</title>
<polygon fill="cornflowerblue" stroke="black" points="1064.88,-364.75 979.12,-364.75 979.12,-328.75 1064.88,-328.75 1064.88,-364.75"/>
<text text-anchor="middle" x="1022" y="-341.32" font-family="Times New Roman,serif" font-size="14.00">Transformer</text>
</g>
<!-- MatherMatchingValidation -->
<g id="node18" class="node">
<title>MatherMatchingValidation</title>
<polygon fill="cornflowerblue" stroke="black" points="1052.88,-291.75 991.12,-291.75 991.12,-255.75 1052.88,-255.75 1052.88,-291.75"/>
<text text-anchor="middle" x="1022" y="-268.32" font-family="Times New Roman,serif" font-size="14.00">Matcher</text>
</g>
<!-- TransformerMatchingValidation&#45;&gt;MatherMatchingValidation -->
<g id="edge18" class="edge">
<title>TransformerMatchingValidation&#45;&gt;MatherMatchingValidation</title>
<path fill="none" stroke="black" d="M1022,-328.56C1022,-320.8 1022,-311.43 1022,-302.7"/>
<polygon fill="black" stroke="black" points="1025.5,-302.78 1022,-292.78 1018.5,-302.78 1025.5,-302.78"/>
</g>
<!-- TransformerMatchingValidation&#45;&gt;ValidationMatching -->
<g id="edge24" class="edge">
<title>TransformerMatchingValidation&#45;&gt;ValidationMatching</title>
<path fill="none" stroke="black" d="M964,-305.38C960.45,-302.91 956.95,-300.47 953.56,-298.11"/>
<polygon fill="black" stroke="black" points="943.17,-295.75 947.74,-289.19 954.31,-293.76 949.74,-300.32 943.17,-295.75"/>
<polyline fill="none" stroke="black" points="952.02,-297.04 953.67,-298.18"/>
</g>
<!-- MetricMatchingValidation -->
<g id="node30" class="node">
<title>MetricMatchingValidation</title>
<polygon fill="violet" stroke="black" points="1026,-204 976,-204 972,-200 972,-168 1022,-168 1026,-172 1026,-204"/>
<polyline fill="none" stroke="black" points="1022,-200 972,-200"/>
<polyline fill="none" stroke="black" points="1022,-200 1022,-168"/>
<polyline fill="none" stroke="black" points="1022,-200 1026,-204"/>
<text text-anchor="middle" x="999" y="-180.57" font-family="Times New Roman,serif" font-size="14.00">Metric</text>
</g>
<!-- MatherMatchingValidation&#45;&gt;MetricMatchingValidation -->
<g id="edge19" class="edge">
<title>MatherMatchingValidation&#45;&gt;MetricMatchingValidation</title>
<path fill="none" stroke="black" d="M1017.35,-255.4C1014.23,-243.77 1010.06,-228.22 1006.48,-214.88"/>
<polygon fill="black" stroke="black" points="1009.62,-214.08 1003.65,-205.33 1002.86,-215.89 1009.62,-214.08"/>
</g>
<!-- StatsMatchingValidation -->
<g id="node31" class="node">
<title>StatsMatchingValidation</title>
<polygon fill="violet" stroke="black" points="1098,-204 1048,-204 1044,-200 1044,-168 1094,-168 1098,-172 1098,-204"/>
<polyline fill="none" stroke="black" points="1094,-200 1044,-200"/>
<polyline fill="none" stroke="black" points="1094,-200 1094,-168"/>
<polyline fill="none" stroke="black" points="1094,-200 1098,-204"/>
<text text-anchor="middle" x="1071" y="-180.57" font-family="Times New Roman,serif" font-size="14.00">Stats</text>
</g>
<!-- MatherMatchingValidation&#45;&gt;StatsMatchingValidation -->
<g id="edge20" class="edge">
<title>MatherMatchingValidation&#45;&gt;StatsMatchingValidation</title>
<path fill="none" stroke="black" d="M1031.92,-255.4C1038.76,-243.43 1047.98,-227.28 1055.75,-213.68"/>
<polygon fill="black" stroke="black" points="1059.18,-215.75 1061.1,-205.33 1053.1,-212.27 1059.18,-215.75"/>
</g>
<!-- ReportMatchingValidation -->
<g id="node19" class="node">
<title>ReportMatchingValidation</title>
<polygon fill="cornflowerblue" stroke="black" points="1098.5,-131 1043.5,-131 1043.5,-95 1098.5,-95 1098.5,-131"/>
<text text-anchor="middle" x="1071" y="-107.58" font-family="Times New Roman,serif" font-size="14.00">Report</text>
</g>
<!-- ReportMatchingValidation&#45;&gt;TransformerMatchingValidation -->
<g id="edge23" class="edge">
<title>ReportMatchingValidation&#45;&gt;TransformerMatchingValidation</title>
<path fill="none" stroke="black" d="M1088.84,-131.1C1095.94,-139.12 1103.3,-149.26 1107,-160 1113.37,-178.49 1111.59,-184.99 1107,-204 1096.17,-248.86 1065.4,-293.3 1044.02,-320.14"/>
<polygon fill="black" stroke="black" points="1040.78,-317.58 1037.17,-327.54 1046.2,-322 1040.78,-317.58"/>
<text text-anchor="middle" x="1120.88" y="-224.45" font-family="Times New Roman,serif" font-size="14.00">n times</text>
</g>
<!-- SpliterAAOne -->
<g id="node20" class="node">
<title>SpliterAAOne</title>
<polygon fill="cornflowerblue" stroke="black" points="465,-554.25 411,-554.25 411,-518.25 465,-518.25 465,-554.25"/>
<text text-anchor="middle" x="438" y="-530.83" font-family="Times New Roman,serif" font-size="14.00">Spliter</text>
</g>
<!-- StatsAA -->
<g id="node32" class="node">
<title>StatsAA</title>
<polygon fill="violet" stroke="black" points="402,-459.5 352,-459.5 348,-455.5 348,-423.5 398,-423.5 402,-427.5 402,-459.5"/>
<polyline fill="none" stroke="black" points="398,-455.5 348,-455.5"/>
<polyline fill="none" stroke="black" points="398,-455.5 398,-423.5"/>
<polyline fill="none" stroke="black" points="398,-455.5 402,-459.5"/>
<text text-anchor="middle" x="375" y="-436.07" font-family="Times New Roman,serif" font-size="14.00">Stats</text>
</g>
<!-- SpliterAAOne&#45;&gt;StatsAA -->
<g id="edge27" class="edge">
<title>SpliterAAOne&#45;&gt;StatsAA</title>
<path fill="none" stroke="black" d="M426.15,-517.8C416.73,-503.94 403.42,-484.34 392.73,-468.61"/>
<polygon fill="black" stroke="black" points="395.31,-467.17 386.8,-460.87 389.52,-471.11 395.31,-467.17"/>
</g>
<!-- SpliterAAOne&#45;&gt;SpliterAAPipeline -->
<g id="edge30" class="edge">
<title>SpliterAAOne&#45;&gt;SpliterAAPipeline</title>
<path fill="none" stroke="black" d="M486,-495.4C487.37,-494.02 488.7,-492.63 490,-491.25 496.65,-484.14 503.2,-475.8 508.85,-468.05"/>
<polygon fill="black" stroke="black" points="511.03,-458.05 517.56,-462.68 512.93,-469.21 506.41,-464.58 511.03,-458.05"/>
<polyline fill="none" stroke="black" points="509.67,-466.89 508.51,-468.52"/>
</g>
<!-- ReportAAOneSplit -->
<g id="node21" class="node">
<title>ReportAAOneSplit</title>
<polygon fill="cornflowerblue" stroke="black" points="434.5,-364.75 379.5,-364.75 379.5,-328.75 434.5,-328.75 434.5,-364.75"/>
<text text-anchor="middle" x="407" y="-341.32" font-family="Times New Roman,serif" font-size="14.00">Report</text>
</g>
<!-- ReportAAOneSplit&#45;&gt;SpliterAAOne -->
<g id="edge29" class="edge">
<title>ReportAAOneSplit&#45;&gt;SpliterAAOne</title>
<path fill="none" stroke="black" d="M409.85,-365.01C415.22,-397.49 426.87,-467.95 433.37,-507.28"/>
<polygon fill="black" stroke="black" points="430.05,-507.65 435.14,-516.95 436.96,-506.51 430.05,-507.65"/>
<text text-anchor="middle" x="450.88" y="-436.07" font-family="Times New Roman,serif" font-size="14.00">n times</text>
</g>
<!-- ReportAABest -->
<g id="node22" class="node">
<title>ReportAABest</title>
<polygon fill="cornflowerblue" stroke="black" points="502.5,-131 447.5,-131 447.5,-95 502.5,-95 502.5,-131"/>
<text text-anchor="middle" x="475" y="-107.58" font-family="Times New Roman,serif" font-size="14.00">Report</text>
</g>
<!-- AnalyzerAA -->
<g id="node38" class="node">
<title>AnalyzerAA</title>
<polygon fill="violet" stroke="black" points="507.38,-52 446.62,-52 442.62,-48 442.62,-16 503.38,-16 507.38,-20 507.38,-52"/>
<polyline fill="none" stroke="black" points="503.38,-48 442.62,-48"/>
<polyline fill="none" stroke="black" points="503.38,-48 503.38,-16"/>
<polyline fill="none" stroke="black" points="503.38,-48 507.38,-52"/>
<text text-anchor="middle" x="475" y="-28.57" font-family="Times New Roman,serif" font-size="14.00">Analyzer</text>
</g>
<!-- ReportAABest&#45;&gt;AnalyzerAA -->
<g id="edge37" class="edge">
<title>ReportAABest&#45;&gt;AnalyzerAA</title>
<path fill="none" stroke="black" d="M475,-94.53C475,-85.27 475,-73.68 475,-63.19"/>
<polygon fill="black" stroke="black" points="478.5,-63.4 475,-53.4 471.5,-63.4 478.5,-63.4"/>
</g>
<!-- pipeline -->
<g id="node23" class="node">
<title>pipeline</title>
<polygon fill="violet" stroke="black" points="82.38,-957 27.62,-957 23.62,-953 23.62,-921 78.38,-921 82.38,-925 82.38,-957"/>
<polyline fill="none" stroke="black" points="78.38,-953 23.62,-953"/>
<polyline fill="none" stroke="black" points="78.38,-953 78.38,-921"/>
<polyline fill="none" stroke="black" points="78.38,-953 82.38,-957"/>
<text text-anchor="middle" x="53" y="-933.58" font-family="Times New Roman,serif" font-size="14.00">pipeline</text>
</g>
<!-- SelectorsMatching&#45;&gt;Matcher -->
<g id="edge11" class="edge">
<title>SelectorsMatching&#45;&gt;Matcher</title>
<path fill="none" stroke="black" d="M804.69,-423.05C805.99,-409.71 807.8,-391.05 809.29,-375.64"/>
<polygon fill="black" stroke="black" points="812.83,-376.41 810.31,-366.12 805.87,-375.73 812.83,-376.41"/>
</g>
<!-- StatsMatcher&#45;&gt;ReportMatcher -->
<g id="edge15" class="edge">
<title>StatsMatcher&#45;&gt;ReportMatcher</title>
<path fill="none" stroke="black" d="M777.98,-255.4C788.61,-243.08 803.05,-226.34 814.99,-212.5"/>
<polygon fill="black" stroke="black" points="818.16,-215.18 822.05,-205.33 812.86,-210.61 818.16,-215.18"/>
</g>
<!-- MetricsMatcher&#45;&gt;ReportMatcher -->
<g id="edge16" class="edge">
<title>MetricsMatcher&#45;&gt;ReportMatcher</title>
<path fill="none" stroke="black" d="M837,-255.4C837,-243.89 837,-228.53 837,-215.28"/>
<polygon fill="black" stroke="black" points="840.5,-215.33 837,-205.33 833.5,-215.33 840.5,-215.33"/>
</g>
<!-- ValidationMatching&#45;&gt;ReportMatcher -->
<g id="edge17" class="edge">
<title>ValidationMatching&#45;&gt;ReportMatcher</title>
<path fill="none" stroke="black" d="M903.2,-255.4C891.17,-242.96 874.77,-226.02 861.3,-212.11"/>
<polygon fill="black" stroke="black" points="864.24,-210.08 854.77,-205.33 859.21,-214.95 864.24,-210.08"/>
</g>
<!-- MetricMatchingValidation&#45;&gt;ReportMatchingValidation -->
<g id="edge21" class="edge">
<title>MetricMatchingValidation&#45;&gt;ReportMatchingValidation</title>
<path fill="none" stroke="black" d="M1016.43,-167.81C1025.21,-159.16 1036.02,-148.5 1045.69,-138.96"/>
<polygon fill="black" stroke="black" points="1047.82,-141.79 1052.48,-132.27 1042.9,-136.8 1047.82,-141.79"/>
</g>
<!-- StatsMatchingValidation&#45;&gt;ReportMatchingValidation -->
<g id="edge22" class="edge">
<title>StatsMatchingValidation&#45;&gt;ReportMatchingValidation</title>
<path fill="none" stroke="black" d="M1071,-167.81C1071,-160.05 1071,-150.68 1071,-141.95"/>
<polygon fill="black" stroke="black" points="1074.5,-142.03 1071,-132.03 1067.5,-142.03 1074.5,-142.03"/>
</g>
<!-- StatsAA&#45;&gt;ReportAAOneSplit -->
<g id="edge28" class="edge">
<title>StatsAA&#45;&gt;ReportAAOneSplit</title>
<path fill="none" stroke="black" d="M381.02,-423.05C385.67,-409.58 392.19,-390.68 397.53,-375.19"/>
<polygon fill="black" stroke="black" points="401.06,-376.71 401.01,-366.12 394.44,-374.43 401.06,-376.71"/>
</g>
<!-- AnalyzerAASplit -->
<g id="node34" class="node">
<title>AnalyzerAASplit</title>
<polygon fill="violet" stroke="black" points="558.38,-364.75 497.62,-364.75 493.62,-360.75 493.62,-328.75 554.38,-328.75 558.38,-332.75 558.38,-364.75"/>
<polyline fill="none" stroke="black" points="554.38,-360.75 493.62,-360.75"/>
<polyline fill="none" stroke="black" points="554.38,-360.75 554.38,-328.75"/>
<polyline fill="none" stroke="black" points="554.38,-360.75 558.38,-364.75"/>
<text text-anchor="middle" x="526" y="-341.32" font-family="Times New Roman,serif" font-size="14.00">Analyzer</text>
</g>
<!-- SpliterAAPipeline&#45;&gt;AnalyzerAASplit -->
<g id="edge31" class="edge">
<title>SpliterAAPipeline&#45;&gt;AnalyzerAASplit</title>
<path fill="none" stroke="black" d="M526,-423.05C526,-409.84 526,-391.41 526,-376.09"/>
<polygon fill="black" stroke="black" points="529.5,-376.12 526,-366.12 522.5,-376.12 529.5,-376.12"/>
</g>
<!-- SelectorAASplit -->
<g id="node35" class="node">
<title>SelectorAASplit</title>
<polygon fill="violet" stroke="black" points="556.88,-291.75 499.12,-291.75 495.12,-287.75 495.12,-255.75 552.88,-255.75 556.88,-259.75 556.88,-291.75"/>
<polyline fill="none" stroke="black" points="552.88,-287.75 495.12,-287.75"/>
<polyline fill="none" stroke="black" points="552.88,-287.75 552.88,-255.75"/>
<polyline fill="none" stroke="black" points="552.88,-287.75 556.88,-291.75"/>
<text text-anchor="middle" x="526" y="-268.32" font-family="Times New Roman,serif" font-size="14.00">Selector</text>
</g>
<!-- AnalyzerAASplit&#45;&gt;SelectorAASplit -->
<g id="edge32" class="edge">
<title>AnalyzerAASplit&#45;&gt;SelectorAASplit</title>
<path fill="none" stroke="black" d="M526,-328.56C526,-320.8 526,-311.43 526,-302.7"/>
<polygon fill="black" stroke="black" points="529.5,-302.78 526,-292.78 522.5,-302.78 529.5,-302.78"/>
</g>
<!-- MetricsAASplit -->
<g id="node36" class="node">
<title>MetricsAASplit</title>
<polygon fill="violet" stroke="black" points="484,-204 430,-204 426,-200 426,-168 480,-168 484,-172 484,-204"/>
<polyline fill="none" stroke="black" points="480,-200 426,-200"/>
<polyline fill="none" stroke="black" points="480,-200 480,-168"/>
<polyline fill="none" stroke="black" points="480,-200 484,-204"/>
<text text-anchor="middle" x="455" y="-180.57" font-family="Times New Roman,serif" font-size="14.00">Metrics</text>
</g>
<!-- SelectorAASplit&#45;&gt;MetricsAASplit -->
<g id="edge33" class="edge">
<title>SelectorAASplit&#45;&gt;MetricsAASplit</title>
<path fill="none" stroke="black" d="M511.63,-255.4C501.43,-243.08 487.57,-226.34 476.11,-212.5"/>
<polygon fill="black" stroke="black" points="478.42,-210.8 469.35,-205.33 473.03,-215.26 478.42,-210.8"/>
</g>
<!-- StatsAASplit -->
<g id="node37" class="node">
<title>StatsAASplit</title>
<polygon fill="violet" stroke="black" points="556,-204 506,-204 502,-200 502,-168 552,-168 556,-172 556,-204"/>
<polyline fill="none" stroke="black" points="552,-200 502,-200"/>
<polyline fill="none" stroke="black" points="552,-200 552,-168"/>
<polyline fill="none" stroke="black" points="552,-200 556,-204"/>
<text text-anchor="middle" x="529" y="-180.57" font-family="Times New Roman,serif" font-size="14.00">Stats</text>
</g>
<!-- SelectorAASplit&#45;&gt;StatsAASplit -->
<g id="edge34" class="edge">
<title>SelectorAASplit&#45;&gt;StatsAASplit</title>
<path fill="none" stroke="black" d="M526.61,-255.4C527.01,-243.89 527.55,-228.53 528.01,-215.28"/>
<polygon fill="black" stroke="black" points="531.54,-215.44 528.39,-205.33 524.55,-215.2 531.54,-215.44"/>
</g>
<!-- MetricsAASplit&#45;&gt;ReportAABest -->
<g id="edge35" class="edge">
<title>MetricsAASplit&#45;&gt;ReportAABest</title>
<path fill="none" stroke="black" d="M459.84,-167.81C462.08,-159.88 464.79,-150.26 467.29,-141.36"/>
<polygon fill="black" stroke="black" points="470.86,-142.6 470.2,-132.03 464.12,-140.71 470.86,-142.6"/>
</g>
<!-- StatsAASplit&#45;&gt;ReportAABest -->
<g id="edge36" class="edge">
<title>StatsAASplit&#45;&gt;ReportAABest</title>
<path fill="none" stroke="black" d="M515.93,-167.81C509.49,-159.35 501.61,-148.98 494.48,-139.61"/>
<polygon fill="black" stroke="black" points="496.79,-137.87 487.95,-132.03 491.22,-142.11 496.79,-137.87"/>
</g>
<!-- MetricsAB -->
<g id="node40" class="node">
<title>MetricsAB</title>
<polygon fill="violet" stroke="black" points="640,-364.75 586,-364.75 582,-360.75 582,-328.75 636,-328.75 640,-332.75 640,-364.75"/>
<polyline fill="none" stroke="black" points="636,-360.75 582,-360.75"/>
<polyline fill="none" stroke="black" points="636,-360.75 636,-328.75"/>
<polyline fill="none" stroke="black" points="636,-360.75 640,-364.75"/>
<text text-anchor="middle" x="611" y="-341.32" font-family="Times New Roman,serif" font-size="14.00">Metrics</text>
</g>
<!-- SelectorAB&#45;&gt;MetricsAB -->
<g id="edge39" class="edge">
<title>SelectorAB&#45;&gt;MetricsAB</title>
<path fill="none" stroke="black" d="M666.21,-423.05C656.05,-409.19 641.67,-389.59 630.14,-373.86"/>
<polygon fill="black" stroke="black" points="632.47,-372.11 623.73,-366.12 626.82,-376.25 632.47,-372.11"/>
</g>
<!-- StatsAB -->
<g id="node41" class="node">
<title>StatsAB</title>
<polygon fill="violet" stroke="black" points="712,-364.75 662,-364.75 658,-360.75 658,-328.75 708,-328.75 712,-332.75 712,-364.75"/>
<polyline fill="none" stroke="black" points="708,-360.75 658,-360.75"/>
<polyline fill="none" stroke="black" points="708,-360.75 708,-328.75"/>
<polyline fill="none" stroke="black" points="708,-360.75 712,-364.75"/>
<text text-anchor="middle" x="685" y="-341.32" font-family="Times New Roman,serif" font-size="14.00">Stats</text>
</g>
<!-- SelectorAB&#45;&gt;StatsAB -->
<g id="edge40" class="edge">
<title>SelectorAB&#45;&gt;StatsAB</title>
<path fill="none" stroke="black" d="M680.13,-423.05C680.98,-409.84 682.18,-391.41 683.17,-376.09"/>
<polygon fill="black" stroke="black" points="686.72,-376.32 683.88,-366.12 679.74,-375.87 686.72,-376.32"/>
</g>
<!-- AnalyzerAB -->
<g id="node42" class="node">
<title>AnalyzerAB</title>
<polygon fill="violet" stroke="black" points="664.38,-291.75 603.62,-291.75 599.62,-287.75 599.62,-255.75 660.38,-255.75 664.38,-259.75 664.38,-291.75"/>
<polyline fill="none" stroke="black" points="660.38,-287.75 599.62,-287.75"/>
<polyline fill="none" stroke="black" points="660.38,-287.75 660.38,-255.75"/>
<polyline fill="none" stroke="black" points="660.38,-287.75 664.38,-291.75"/>
<text text-anchor="middle" x="632" y="-268.32" font-family="Times New Roman,serif" font-size="14.00">Analyzer</text>
</g>
<!-- MetricsAB&#45;&gt;AnalyzerAB -->
<g id="edge41" class="edge">
<title>MetricsAB&#45;&gt;AnalyzerAB</title>
<path fill="none" stroke="black" d="M616.08,-328.56C618.43,-320.63 621.28,-311.01 623.91,-302.11"/>
<polygon fill="black" stroke="black" points="627.48,-303.36 626.96,-292.78 620.77,-301.38 627.48,-303.36"/>
</g>
<!-- StatsAB&#45;&gt;AnalyzerAB -->
<g id="edge42" class="edge">
<title>StatsAB&#45;&gt;AnalyzerAB</title>
<path fill="none" stroke="black" d="M672.17,-328.56C665.86,-320.1 658.11,-309.73 651.12,-300.36"/>
<polygon fill="black" stroke="black" points="653.5,-298.7 644.71,-292.78 647.89,-302.89 653.5,-298.7"/>
</g>
<!-- ReportAB -->
<g id="node43" class="node">
<title>ReportAB</title>
<polygon fill="violet" stroke="black" points="659.5,-204 608.5,-204 604.5,-200 604.5,-168 655.5,-168 659.5,-172 659.5,-204"/>
<polyline fill="none" stroke="black" points="655.5,-200 604.5,-200"/>
<polyline fill="none" stroke="black" points="655.5,-200 655.5,-168"/>
<polyline fill="none" stroke="black" points="655.5,-200 659.5,-204"/>
<text text-anchor="middle" x="632" y="-180.57" font-family="Times New Roman,serif" font-size="14.00">Report</text>
</g>
<!-- AnalyzerAB&#45;&gt;ReportAB -->
<g id="edge43" class="edge">
<title>AnalyzerAB&#45;&gt;ReportAB</title>
<path fill="none" stroke="black" d="M632,-255.4C632,-243.89 632,-228.53 632,-215.28"/>
<polygon fill="black" stroke="black" points="635.5,-215.33 632,-205.33 628.5,-215.33 635.5,-215.33"/>
</g>
</g>
</svg>
