<?xml version="1.0" encoding="UTF-8" standalone="no"?>
<!DOCTYPE svg PUBLIC "-//W3C//DTD SVG 1.1//EN"
 "http://www.w3.org/Graphics/SVG/1.1/DTD/svg11.dtd">
<!-- Generated by graphviz version 9.0.0 (20230911.1827)
 -->
<!-- Title: ClassPath Pages: 1 -->
<svg width="1150pt" height="966pt"
 viewBox="0.00 0.00 1150.00 965.50" xmlns="http://www.w3.org/2000/svg" xmlns:xlink="http://www.w3.org/1999/xlink">
<g id="graph0" class="graph" transform="scale(1 1) rotate(0) translate(4 961.5)">
<title>ClassPath</title>
<polygon fill="white" stroke="none" points="-4,4 -4,-961.5 1146,-961.5 1146,4 -4,4"/>
<g id="clust12" class="cluster">
<title>cluster_AA</title>
<polygon fill="lavender" stroke="black" points="332,-16 332,-546.75 566,-546.75 566,-16 332,-16"/>
<text text-anchor="middle" x="449" y="-529.45" font-family="Times New Roman,serif" font-size="14.00">AA process</text>
</g>
<g id="clust13" class="cluster">
<title>cluster_split</title>
<polygon fill="none" stroke="black" stroke-dasharray="1,5" points="340,-249.75 340,-515 486,-515 486,-249.75 340,-249.75"/>
<text text-anchor="middle" x="413" y="-497.7" font-family="Times New Roman,serif" font-size="14.00">Split process</text>
</g>
<g id="clust4" class="cluster">
<title>cluster_legend</title>
<polygon fill="whitesmoke" stroke="black" points="8,-746.25 8,-949.5 634,-949.5 634,-746.25 8,-746.25"/>
<text text-anchor="middle" x="321" y="-932.2" font-family="Times New Roman,serif" font-size="14.00">legend</text>
</g>
<g id="clust5" class="cluster">
<title>cluster_nodes</title>
<polygon fill="none" stroke="black" stroke-dasharray="5,2" points="373,-842 373,-917.75 626,-917.75 626,-842 373,-842"/>
<text text-anchor="middle" x="499.5" y="-900.45" font-family="Times New Roman,serif" font-size="14.00">nodes</text>
</g>
<g id="clust6" class="cluster">
<title>cluster_edges</title>
<polygon fill="none" stroke="black" stroke-dasharray="5,2" points="16,-754.25 16,-917.75 365,-917.75 365,-754.25 16,-754.25"/>
<text text-anchor="middle" x="190.5" y="-900.45" font-family="Times New Roman,serif" font-size="14.00">edges</text>
</g>
<g id="clust8" class="cluster">
<title>cluster_matcher</title>
<polygon fill="mistyrose" stroke="black" points="728,-8 728,-420.25 1134,-420.25 1134,-8 728,-8"/>
<text text-anchor="middle" x="931" y="-402.95" font-family="Times New Roman,serif" font-size="14.00">Matcher process</text>
</g>
<g id="clust10" class="cluster">
<title>cluster_matching_validation</title>
<polygon fill="none" stroke="black" stroke-dasharray="1,5" points="964,-16 964,-325.5 1126,-325.5 1126,-16 964,-16"/>
<text text-anchor="middle" x="1045" y="-308.2" font-family="Times New Roman,serif" font-size="14.00">Validation process</text>
</g>
<g id="clust16" class="cluster">
<title>cluster_AB</title>
<polygon fill="honeydew" stroke="black" points="574,-89 574,-420.25 720,-420.25 720,-89 574,-89"/>
<text text-anchor="middle" x="647" y="-402.95" font-family="Times New Roman,serif" font-size="14.00">AB process</text>
</g>
<g id="clust7" class="cluster">
<title>cluster_experiment</title>
<polygon fill="none" stroke="black" stroke-dasharray="1,5" points="576,-439.25 576,-641.5 727,-641.5 727,-439.25 576,-439.25"/>
<text text-anchor="middle" x="651.5" y="-624.2" font-family="Times New Roman,serif" font-size="14.00">experiment structure</text>
</g>
<!-- abstract_class -->
<g id="node1" class="node">
<title>abstract_class</title>
<polygon fill="silver" stroke="black" points="578.95,-850.05 581.57,-850.15 584.15,-850.3 586.7,-850.49 589.21,-850.74 591.65,-851.03 594.03,-851.36 596.33,-851.75 598.54,-852.18 600.67,-852.65 602.68,-853.16 604.6,-853.71 606.39,-854.31 608.07,-854.94 609.62,-855.61 611.04,-856.31 612.32,-857.04 613.47,-857.8 614.49,-858.59 615.36,-859.41 616.09,-860.25 616.69,-861.11 617.14,-861.99 617.46,-862.89 617.64,-863.8 617.69,-864.72 617.61,-865.65 617.4,-866.59 617.07,-867.53 616.63,-868.47 616.07,-869.41 615.41,-870.35 614.64,-871.28 613.78,-872.2 612.82,-873.11 611.79,-874.01 610.67,-874.89 609.48,-875.75 608.22,-876.59 606.91,-877.41 605.53,-878.2 604.1,-878.96 602.63,-879.69 601.12,-880.39 599.57,-881.06 597.99,-881.69 596.38,-882.29 594.74,-882.84 593.08,-883.35 591.41,-883.82 589.72,-884.25 588.01,-884.64 586.3,-884.97 584.57,-885.26 582.84,-885.51 581.1,-885.7 579.36,-885.85 577.62,-885.95 575.87,-886 574.13,-886 572.38,-885.95 570.64,-885.85 568.9,-885.7 567.16,-885.51 565.43,-885.26 563.7,-884.97 561.99,-884.64 560.28,-884.25 558.59,-883.82 556.92,-883.35 555.26,-882.84 553.62,-882.29 552.01,-881.69 550.43,-881.06 548.88,-880.39 547.37,-879.69 545.9,-878.96 544.47,-878.2 543.09,-877.41 541.78,-876.59 540.52,-875.75 539.33,-874.89 538.21,-874.01 537.18,-873.11 536.22,-872.2 535.36,-871.28 534.59,-870.35 533.93,-869.41 533.37,-868.47 532.93,-867.53 532.6,-866.59 532.39,-865.65 532.31,-864.72 532.36,-863.8 532.54,-862.89 532.86,-861.99 533.31,-861.11 533.91,-860.25 534.64,-859.41 535.51,-858.59 536.53,-857.8 537.68,-857.04 538.96,-856.31 540.38,-855.61 541.93,-854.94 543.61,-854.31 545.4,-853.71 547.32,-853.16 549.33,-852.65 551.46,-852.18 553.67,-851.75 555.97,-851.36 558.35,-851.03 560.79,-850.74 563.3,-850.49 565.85,-850.3 568.43,-850.15 571.05,-850.05 573.68,-850 576.32,-850 578.95,-850.05"/>
<text text-anchor="middle" x="575" y="-862.58" font-family="Times New Roman,serif" font-size="14.00">abstract</text>
</g>
<!-- abstract_object -->
<g id="node2" class="node">
<title>abstract_object</title>
<polygon fill="silver" stroke="black" points="293.46,-850.05 297.73,-850.15 301.97,-850.3 306.14,-850.49 310.23,-850.74 314.22,-851.03 318.11,-851.36 321.87,-851.75 325.49,-852.18 328.96,-852.65 332.26,-853.16 335.38,-853.71 338.32,-854.31 341.06,-854.94 343.59,-855.61 345.92,-856.31 348.02,-857.04 349.9,-857.8 351.56,-858.59 352.98,-859.41 354.18,-860.25 355.15,-861.11 355.9,-861.99 356.41,-862.89 356.71,-863.8 356.79,-864.72 356.66,-865.65 356.32,-866.59 355.78,-867.53 355.06,-868.47 354.14,-869.41 353.06,-870.35 351.8,-871.28 350.39,-872.2 348.84,-873.11 347.14,-874.01 345.32,-874.89 343.37,-875.75 341.32,-876.59 339.16,-877.41 336.91,-878.2 334.58,-878.96 332.17,-879.69 329.7,-880.39 327.17,-881.06 324.58,-881.69 321.95,-882.29 319.27,-882.84 316.56,-883.35 313.82,-883.82 311.06,-884.25 308.27,-884.64 305.47,-884.97 302.65,-885.26 299.82,-885.51 296.98,-885.7 294.13,-885.85 291.28,-885.95 288.43,-886 285.57,-886 282.72,-885.95 279.87,-885.85 277.02,-885.7 274.18,-885.51 271.35,-885.26 268.53,-884.97 265.73,-884.64 262.94,-884.25 260.18,-883.82 257.44,-883.35 254.73,-882.84 252.05,-882.29 249.42,-881.69 246.83,-881.06 244.3,-880.39 241.83,-879.69 239.42,-878.96 237.09,-878.2 234.84,-877.41 232.68,-876.59 230.63,-875.75 228.68,-874.89 226.86,-874.01 225.16,-873.11 223.61,-872.2 222.2,-871.28 220.94,-870.35 219.86,-869.41 218.94,-868.47 218.22,-867.53 217.68,-866.59 217.34,-865.65 217.21,-864.72 217.29,-863.8 217.59,-862.89 218.1,-861.99 218.85,-861.11 219.82,-860.25 221.02,-859.41 222.44,-858.59 224.1,-857.8 225.98,-857.04 228.08,-856.31 230.41,-855.61 232.94,-854.94 235.68,-854.31 238.62,-853.71 241.74,-853.16 245.04,-852.65 248.51,-852.18 252.13,-851.75 255.89,-851.36 259.78,-851.03 263.77,-850.74 267.86,-850.49 272.03,-850.3 276.27,-850.15 280.54,-850.05 284.84,-850 289.16,-850 293.46,-850.05"/>
<text text-anchor="middle" x="287" y="-862.58" font-family="Times New Roman,serif" font-size="14.00">abstract object</text>
</g>
<!-- implementation -->
<g id="node9" class="node">
<title>implementation</title>
<polygon fill="cornflowerblue" stroke="black" points="357,-798.25 257,-798.25 257,-762.25 357,-762.25 357,-798.25"/>
<text text-anchor="middle" x="307" y="-774.83" font-family="Times New Roman,serif" font-size="14.00">implementation</text>
</g>
<!-- abstract_object&#45;&gt;implementation -->
<g id="edge3" class="edge">
<title>abstract_object&#45;&gt;implementation</title>
<path fill="none" stroke="black" d="M291.05,-849.65C293.79,-837.91 297.46,-822.16 300.59,-808.73"/>
<polyline fill="none" stroke="black" points="302.96,-798.58 300.57,-808.8"/>
<path fill="none" stroke="black" d="M296.84,-802.8C298.6,-796.31 307.85,-798.58 306.58,-805.07"/>
<text text-anchor="middle" x="327.5" y="-818.7" font-family="Times New Roman,serif" font-size="14.00">implement</text>
</g>
<!-- Executor -->
<g id="node3" class="node">
<title>Executor</title>
<polygon fill="silver" stroke="black" points="618.34,-683.3 621.22,-683.4 624.07,-683.55 626.87,-683.74 629.62,-683.99 632.31,-684.28 634.92,-684.61 637.45,-685 639.89,-685.43 642.22,-685.9 644.44,-686.41 646.54,-686.96 648.52,-687.56 650.36,-688.19 652.06,-688.86 653.63,-689.56 655.04,-690.29 656.31,-691.05 657.42,-691.84 658.38,-692.66 659.19,-693.5 659.84,-694.36 660.34,-695.24 660.69,-696.14 660.89,-697.05 660.94,-697.97 660.85,-698.9 660.62,-699.84 660.26,-700.78 659.77,-701.72 659.16,-702.66 658.43,-703.6 657.59,-704.53 656.64,-705.45 655.59,-706.36 654.45,-707.26 653.22,-708.14 651.91,-709 650.53,-709.84 649.08,-710.66 647.57,-711.45 646,-712.21 644.38,-712.94 642.72,-713.64 641.02,-714.31 639.28,-714.94 637.51,-715.54 635.71,-716.09 633.88,-716.6 632.04,-717.07 630.18,-717.5 628.31,-717.89 626.42,-718.22 624.53,-718.51 622.62,-718.76 620.71,-718.95 618.8,-719.1 616.88,-719.2 614.96,-719.25 613.04,-719.25 611.12,-719.2 609.2,-719.1 607.29,-718.95 605.38,-718.76 603.47,-718.51 601.58,-718.22 599.69,-717.89 597.82,-717.5 595.96,-717.07 594.12,-716.6 592.29,-716.09 590.49,-715.54 588.72,-714.94 586.98,-714.31 585.28,-713.64 583.62,-712.94 582,-712.21 580.43,-711.45 578.92,-710.66 577.47,-709.84 576.09,-709 574.78,-708.14 573.55,-707.26 572.41,-706.36 571.36,-705.45 570.41,-704.53 569.57,-703.6 568.84,-702.66 568.23,-701.72 567.74,-700.78 567.38,-699.84 567.15,-698.9 567.06,-697.97 567.11,-697.05 567.31,-696.14 567.66,-695.24 568.16,-694.36 568.81,-693.5 569.62,-692.66 570.58,-691.84 571.69,-691.05 572.96,-690.29 574.37,-689.56 575.94,-688.86 577.64,-688.19 579.48,-687.56 581.46,-686.96 583.56,-686.41 585.78,-685.9 588.11,-685.43 590.55,-685 593.08,-684.61 595.69,-684.28 598.38,-683.99 601.13,-683.74 603.93,-683.55 606.78,-683.4 609.66,-683.3 612.55,-683.25 615.45,-683.25 618.34,-683.3"/>
<text text-anchor="middle" x="614" y="-695.83" font-family="Times New Roman,serif" font-size="14.00">Executor</text>
</g>
<!-- Pipeline -->
<g id="node13" class="node">
<title>Pipeline</title>
<polygon fill="cornflowerblue" stroke="black" points="643.75,-609.75 584.25,-609.75 584.25,-573.75 643.75,-573.75 643.75,-609.75"/>
<text text-anchor="middle" x="614" y="-586.33" font-family="Times New Roman,serif" font-size="14.00">Pipeline</text>
</g>
<!-- Executor&#45;&gt;Pipeline -->
<g id="edge4" class="edge">
<title>Executor&#45;&gt;Pipeline</title>
<path fill="none" stroke="black" d="M614,-682.98C614,-666.05 614,-639.99 614,-620.22"/>
<polyline fill="none" stroke="black" points="614,-609.98 614,-620.48"/>
<path fill="none" stroke="black" d="M609,-615.48C609.25,-608.81 618.75,-608.81 619,-615.48"/>
</g>
<!-- AbstractHypothesis -->
<g id="node4" class="node">
<title>AbstractHypothesis</title>
<polygon fill="silver" stroke="black" points="740.33,-850.05 745.84,-850.15 751.3,-850.3 756.67,-850.49 761.95,-850.74 767.1,-851.03 772.11,-851.36 776.96,-851.75 781.63,-852.18 786.1,-852.65 790.36,-853.16 794.38,-853.71 798.17,-854.31 801.7,-854.94 804.97,-855.61 807.96,-856.31 810.67,-857.04 813.1,-857.8 815.23,-858.59 817.07,-859.41 818.62,-860.25 819.87,-861.11 820.83,-861.99 821.5,-862.89 821.88,-863.8 821.98,-864.72 821.81,-865.65 821.38,-866.59 820.69,-867.53 819.75,-868.47 818.57,-869.41 817.17,-870.35 815.56,-871.28 813.74,-872.2 811.73,-873.11 809.54,-874.01 807.19,-874.89 804.68,-875.75 802.03,-876.59 799.25,-877.41 796.35,-878.2 793.35,-878.96 790.25,-879.69 787.06,-880.39 783.79,-881.06 780.45,-881.69 777.06,-882.29 773.61,-882.84 770.12,-883.35 766.59,-883.82 763.02,-884.25 759.43,-884.64 755.81,-884.97 752.18,-885.26 748.53,-885.51 744.87,-885.7 741.2,-885.85 737.52,-885.95 733.84,-886 730.16,-886 726.48,-885.95 722.8,-885.85 719.13,-885.7 715.47,-885.51 711.82,-885.26 708.19,-884.97 704.57,-884.64 700.98,-884.25 697.41,-883.82 693.88,-883.35 690.39,-882.84 686.94,-882.29 683.55,-881.69 680.21,-881.06 676.94,-880.39 673.75,-879.69 670.65,-878.96 667.65,-878.2 664.75,-877.41 661.97,-876.59 659.32,-875.75 656.81,-874.89 654.46,-874.01 652.27,-873.11 650.26,-872.2 648.44,-871.28 646.83,-870.35 645.43,-869.41 644.25,-868.47 643.31,-867.53 642.62,-866.59 642.19,-865.65 642.02,-864.72 642.12,-863.8 642.5,-862.89 643.17,-861.99 644.13,-861.11 645.38,-860.25 646.93,-859.41 648.77,-858.59 650.9,-857.8 653.33,-857.04 656.04,-856.31 659.03,-855.61 662.3,-854.94 665.83,-854.31 669.62,-853.71 673.64,-853.16 677.9,-852.65 682.37,-852.18 687.04,-851.75 691.89,-851.36 696.9,-851.03 702.05,-850.74 707.33,-850.49 712.7,-850.3 718.16,-850.15 723.67,-850.05 729.22,-850 734.78,-850 740.33,-850.05"/>
<text text-anchor="middle" x="732" y="-862.58" font-family="Times New Roman,serif" font-size="14.00">AbstractHypothesis</text>
</g>
<!-- Hypothesis -->
<g id="node14" class="node">
<title>Hypothesis</title>
<polygon fill="cornflowerblue" stroke="black" points="771.5,-798.25 692.5,-798.25 692.5,-762.25 771.5,-762.25 771.5,-798.25"/>
<text text-anchor="middle" x="732" y="-774.83" font-family="Times New Roman,serif" font-size="14.00">Hypothesis</text>
</g>
<!-- AbstractHypothesis&#45;&gt;Hypothesis -->
<g id="edge5" class="edge">
<title>AbstractHypothesis&#45;&gt;Hypothesis</title>
<path fill="none" stroke="black" d="M732,-849.65C732,-837.91 732,-822.16 732,-808.73"/>
<polyline fill="none" stroke="black" points="732,-798.58 732,-809.08"/>
<path fill="none" stroke="black" d="M727,-804.08C727.25,-797.41 736.75,-797.41 737,-804.08"/>
</g>
<!-- module -->
<g id="node5" class="node">
<title>module</title>
<polygon fill="cornflowerblue" stroke="black" points="514.62,-886 457.38,-886 457.38,-850 514.62,-850 514.62,-886"/>
<text text-anchor="middle" x="486" y="-862.58" font-family="Times New Roman,serif" font-size="14.00">module</text>
</g>
<!-- factory_legend -->
<g id="node6" class="node">
<title>factory_legend</title>
<polygon fill="cornflowerblue" stroke="black" points="198.75,-886 139.25,-886 139.25,-850 198.75,-850 198.75,-886"/>
<text text-anchor="middle" x="169" y="-862.58" font-family="Times New Roman,serif" font-size="14.00">Factory</text>
</g>
<!-- created_object -->
<g id="node7" class="node">
<title>created_object</title>
<polygon fill="cornflowerblue" stroke="black" points="239.38,-798.25 144.62,-798.25 144.62,-762.25 239.38,-762.25 239.38,-798.25"/>
<text text-anchor="middle" x="192" y="-774.83" font-family="Times New Roman,serif" font-size="14.00">created object</text>
</g>
<!-- factory_legend&#45;&gt;created_object -->
<g id="edge1" class="edge">
<title>factory_legend&#45;&gt;created_object</title>
<path fill="none" stroke="black" d="M173.65,-849.65C176.71,-838.26 180.78,-823.09 184.31,-809.93"/>
<polygon fill="black" stroke="black" points="184.68,-808.56 191.61,-800.07 186.06,-803.41 187.18,-799.22 187.18,-799.22 187.18,-799.22 186.06,-803.41 182.92,-797.73 184.68,-808.56"/>
<text text-anchor="middle" x="199.5" y="-818.7" font-family="Times New Roman,serif" font-size="14.00">create</text>
</g>
<!-- inner_object -->
<g id="node8" class="node">
<title>inner_object</title>
<polygon fill="cornflowerblue" stroke="black" points="115.62,-886 34.38,-886 34.38,-850 115.62,-850 115.62,-886"/>
<text text-anchor="middle" x="75" y="-862.58" font-family="Times New Roman,serif" font-size="14.00">inner object</text>
</g>
<!-- complex_object -->
<g id="node24" class="node">
<title>complex_object</title>
<polygon fill="violet" stroke="black" points="126.12,-798.25 27.88,-798.25 23.88,-794.25 23.88,-762.25 122.12,-762.25 126.12,-766.25 126.12,-798.25"/>
<polyline fill="none" stroke="black" points="122.12,-794.25 23.88,-794.25"/>
<polyline fill="none" stroke="black" points="122.12,-794.25 122.12,-762.25"/>
<polyline fill="none" stroke="black" points="122.12,-794.25 126.12,-798.25"/>
<text text-anchor="middle" x="75" y="-774.83" font-family="Times New Roman,serif" font-size="14.00">complex object</text>
</g>
<!-- inner_object&#45;&gt;complex_object -->
<g id="edge2" class="edge">
<title>inner_object&#45;&gt;complex_object</title>
<path fill="none" stroke="black" d="M75,-849.65C75,-837.91 75,-822.16 75,-808.73"/>
<polygon fill="black" stroke="black" points="71,-799.08 79,-799.08 79,-807.08 71,-807.08 71,-799.08"/>
<polyline fill="none" stroke="black" points="75,-807.08 75,-809.08"/>
<text text-anchor="middle" x="79.88" y="-818.7" font-family="Times New Roman,serif" font-size="14.00">in</text>
</g>
<!-- Dataset -->
<g id="node10" class="node">
<title>Dataset</title>
<polygon fill="cornflowerblue" stroke="black" points="718.62,-609.75 661.38,-609.75 661.38,-573.75 718.62,-573.75 718.62,-609.75"/>
<text text-anchor="middle" x="690" y="-586.33" font-family="Times New Roman,serif" font-size="14.00">Dataset</text>
</g>
<!-- Experiment -->
<g id="node12" class="node">
<title>Experiment</title>
<polygon fill="cornflowerblue" stroke="black" points="718.5,-483.25 639.5,-483.25 639.5,-447.25 718.5,-447.25 718.5,-483.25"/>
<text text-anchor="middle" x="679" y="-459.82" font-family="Times New Roman,serif" font-size="14.00">Experiment</text>
</g>
<!-- Dataset&#45;&gt;Experiment -->
<g id="edge10" class="edge">
<title>Dataset&#45;&gt;Experiment</title>
<path fill="none" stroke="black" d="M688.47,-573.44C686.65,-552.81 683.58,-518.09 681.43,-493.77"/>
<polygon fill="black" stroke="black" points="676.58,-484.26 684.55,-483.56 685.25,-491.53 677.28,-492.23 676.58,-484.26"/>
<polyline fill="none" stroke="black" points="681.26,-491.88 681.44,-493.87"/>
</g>
<!-- Factory -->
<g id="node11" class="node">
<title>Factory</title>
<polygon fill="cornflowerblue" stroke="black" points="761.75,-719.25 702.25,-719.25 702.25,-683.25 761.75,-683.25 761.75,-719.25"/>
<text text-anchor="middle" x="732" y="-695.83" font-family="Times New Roman,serif" font-size="14.00">Factory</text>
</g>
<!-- Factory&#45;&gt;Experiment -->
<g id="edge7" class="edge">
<title>Factory&#45;&gt;Experiment</title>
<path fill="none" stroke="black" d="M733.59,-682.78C735.36,-658.12 736.9,-611.83 728,-573.75 721.35,-545.31 706.94,-515.24 695.45,-494.16"/>
<polygon fill="black" stroke="black" points="694.66,-492.75 693.7,-481.82 692.05,-488.09 689.94,-484.31 689.94,-484.31 689.94,-484.31 692.05,-488.09 685.85,-486.22 694.66,-492.75"/>
<text text-anchor="middle" x="752.25" y="-586.33" font-family="Times New Roman,serif" font-size="14.00">object</text>
</g>
<!-- Factory&#45;&gt;Pipeline -->
<g id="edge8" class="edge">
<title>Factory&#45;&gt;Pipeline</title>
<path fill="none" stroke="black" d="M704.61,-682.91C688.44,-672.02 668.07,-657.11 652,-641.5 645.15,-634.84 638.47,-626.92 632.67,-619.42"/>
<polygon fill="black" stroke="black" points="631.78,-618.23 629.42,-607.53 628.6,-613.96 626.01,-610.48 626.01,-610.48 626.01,-610.48 628.6,-613.96 622.2,-612.9 631.78,-618.23"/>
<text text-anchor="middle" x="696.25" y="-651.95" font-family="Times New Roman,serif" font-size="14.00">object</text>
</g>
<!-- SelectorsMatching -->
<g id="node25" class="node">
<title>SelectorsMatching</title>
<polygon fill="violet" stroke="black" points="808.88,-388.5 745.12,-388.5 741.12,-384.5 741.12,-352.5 804.88,-352.5 808.88,-356.5 808.88,-388.5"/>
<polyline fill="none" stroke="black" points="804.88,-384.5 741.12,-384.5"/>
<polyline fill="none" stroke="black" points="804.88,-384.5 804.88,-352.5"/>
<polyline fill="none" stroke="black" points="804.88,-384.5 808.88,-388.5"/>
<text text-anchor="middle" x="775" y="-365.07" font-family="Times New Roman,serif" font-size="14.00">Selectors</text>
</g>
<!-- Experiment&#45;&gt;SelectorsMatching -->
<g id="edge26" class="edge">
<title>Experiment&#45;&gt;SelectorsMatching</title>
<path fill="none" stroke="black" d="M697.06,-446.8C703.68,-440.4 711.58,-432.77 719.76,-424.87"/>
<polygon fill="black" stroke="black" points="722.15,-427.42 726.91,-417.96 717.29,-422.39 722.15,-427.42"/>
</g>
<!-- SpliterAAPipeline -->
<g id="node33" class="node">
<title>SpliterAAPipeline</title>
<polygon fill="violet" stroke="black" points="553,-388.5 503,-388.5 499,-384.5 499,-352.5 549,-352.5 553,-356.5 553,-388.5"/>
<polyline fill="none" stroke="black" points="549,-384.5 499,-384.5"/>
<polyline fill="none" stroke="black" points="549,-384.5 549,-352.5"/>
<polyline fill="none" stroke="black" points="549,-384.5 553,-388.5"/>
<text text-anchor="middle" x="526" y="-365.07" font-family="Times New Roman,serif" font-size="14.00">Spliter</text>
</g>
<!-- Experiment&#45;&gt;SpliterAAPipeline -->
<g id="edge37" class="edge">
<title>Experiment&#45;&gt;SpliterAAPipeline</title>
<path fill="none" stroke="black" d="M639.01,-452.96C620.09,-446.61 597.45,-437.52 575.4,-423.57"/>
<polygon fill="black" stroke="black" points="577.51,-420.77 567.25,-418.13 573.63,-426.59 577.51,-420.77"/>
</g>
<!-- SelectorAB -->
<g id="node38" class="node">
<title>SelectorAB</title>
<polygon fill="violet" stroke="black" points="709.88,-388.5 652.12,-388.5 648.12,-384.5 648.12,-352.5 705.88,-352.5 709.88,-356.5 709.88,-388.5"/>
<polyline fill="none" stroke="black" points="705.88,-384.5 648.12,-384.5"/>
<polyline fill="none" stroke="black" points="705.88,-384.5 705.88,-352.5"/>
<polyline fill="none" stroke="black" points="705.88,-384.5 709.88,-388.5"/>
<text text-anchor="middle" x="679" y="-365.07" font-family="Times New Roman,serif" font-size="14.00">Selector</text>
</g>
<!-- Experiment&#45;&gt;SelectorAB -->
<g id="edge43" class="edge">
<title>Experiment&#45;&gt;SelectorAB</title>
<path fill="none" stroke="black" d="M679,-446.8C679,-442.27 679,-437.11 679,-431.68"/>
<polygon fill="black" stroke="black" points="682.5,-431.76 679,-421.76 675.5,-431.76 682.5,-431.76"/>
</g>
<!-- Pipeline&#45;&gt;Experiment -->
<g id="edge9" class="edge">
<title>Pipeline&#45;&gt;Experiment</title>
<path fill="none" stroke="black" d="M623.04,-573.44C634,-552.44 652.59,-516.83 665.31,-492.46"/>
<polygon fill="black" stroke="black" points="666.26,-482.01 673.35,-485.71 669.65,-492.8 662.56,-489.1 666.26,-482.01"/>
<polyline fill="none" stroke="black" points="666.1,-490.95 665.18,-492.72"/>
</g>
<!-- Hypothesis&#45;&gt;Factory -->
<g id="edge6" class="edge">
<title>Hypothesis&#45;&gt;Factory</title>
<path fill="none" stroke="black" d="M732,-761.78C732,-752.42 732,-740.68 732,-730.11"/>
<polygon fill="black" stroke="black" points="728,-720.15 736,-720.15 736,-728.15 728,-728.15 728,-720.15"/>
<polyline fill="none" stroke="black" points="732,-728.15 732,-730.15"/>
</g>
<!-- Matcher -->
<g id="node15" class="node">
<title>Matcher</title>
<polygon fill="cornflowerblue" stroke="black" points="826.88,-293.75 765.12,-293.75 765.12,-257.75 826.88,-257.75 826.88,-293.75"/>
<text text-anchor="middle" x="796" y="-270.32" font-family="Times New Roman,serif" font-size="14.00">Matcher</text>
</g>
<!-- StatsMatcher -->
<g id="node26" class="node">
<title>StatsMatcher</title>
<polygon fill="violet" stroke="black" points="790,-220.75 740,-220.75 736,-216.75 736,-184.75 786,-184.75 790,-188.75 790,-220.75"/>
<polyline fill="none" stroke="black" points="786,-216.75 736,-216.75"/>
<polyline fill="none" stroke="black" points="786,-216.75 786,-184.75"/>
<polyline fill="none" stroke="black" points="786,-216.75 790,-220.75"/>
<text text-anchor="middle" x="763" y="-197.32" font-family="Times New Roman,serif" font-size="14.00">Stats</text>
</g>
<!-- Matcher&#45;&gt;StatsMatcher -->
<g id="edge13" class="edge">
<title>Matcher&#45;&gt;StatsMatcher</title>
<path fill="none" stroke="black" d="M788.01,-257.56C784.32,-249.63 779.85,-240.01 775.72,-231.11"/>
<polygon fill="black" stroke="black" points="778.94,-229.74 771.55,-222.15 772.59,-232.69 778.94,-229.74"/>
</g>
<!-- MetricsMatcher -->
<g id="node27" class="node">
<title>MetricsMatcher</title>
<polygon fill="violet" stroke="black" points="866,-220.75 812,-220.75 808,-216.75 808,-184.75 862,-184.75 866,-188.75 866,-220.75"/>
<polyline fill="none" stroke="black" points="862,-216.75 808,-216.75"/>
<polyline fill="none" stroke="black" points="862,-216.75 862,-184.75"/>
<polyline fill="none" stroke="black" points="862,-216.75 866,-220.75"/>
<text text-anchor="middle" x="837" y="-197.32" font-family="Times New Roman,serif" font-size="14.00">Metrics</text>
</g>
<!-- Matcher&#45;&gt;MetricsMatcher -->
<g id="edge12" class="edge">
<title>Matcher&#45;&gt;MetricsMatcher</title>
<path fill="none" stroke="black" d="M805.92,-257.56C810.61,-249.45 816.31,-239.59 821.54,-230.53"/>
<polygon fill="black" stroke="black" points="824.44,-232.5 826.41,-222.09 818.38,-229 824.44,-232.5"/>
</g>
<!-- ValidationMatching -->
<g id="node28" class="node">
<title>ValidationMatching</title>
<polygon fill="violet" stroke="black" points="956.12,-220.75 887.88,-220.75 883.88,-216.75 883.88,-184.75 952.12,-184.75 956.12,-188.75 956.12,-220.75"/>
<polyline fill="none" stroke="black" points="952.12,-216.75 883.88,-216.75"/>
<polyline fill="none" stroke="black" points="952.12,-216.75 952.12,-184.75"/>
<polyline fill="none" stroke="black" points="952.12,-216.75 956.12,-220.75"/>
<text text-anchor="middle" x="920" y="-197.32" font-family="Times New Roman,serif" font-size="14.00">Validation</text>
</g>
<!-- Matcher&#45;&gt;ValidationMatching -->
<g id="edge14" class="edge">
<title>Matcher&#45;&gt;ValidationMatching</title>
<path fill="none" stroke="black" d="M826.33,-257.38C842.4,-248.18 862.34,-236.77 879.68,-226.83"/>
<polygon fill="black" stroke="black" points="881.3,-229.94 888.24,-221.94 877.82,-223.87 881.3,-229.94"/>
</g>
<!-- ReportMatcher -->
<g id="node16" class="node">
<title>ReportMatcher</title>
<polygon fill="cornflowerblue" stroke="black" points="864.5,-133 809.5,-133 809.5,-97 864.5,-97 864.5,-133"/>
<text text-anchor="middle" x="837" y="-109.58" font-family="Times New Roman,serif" font-size="14.00">Report</text>
</g>
<!-- AnalyzerMatching -->
<g id="node29" class="node">
<title>AnalyzerMatching</title>
<polygon fill="violet" stroke="black" points="869.38,-60 808.62,-60 804.62,-56 804.62,-24 865.38,-24 869.38,-28 869.38,-60"/>
<polyline fill="none" stroke="black" points="865.38,-56 804.62,-56"/>
<polyline fill="none" stroke="black" points="865.38,-56 865.38,-24"/>
<polyline fill="none" stroke="black" points="865.38,-56 869.38,-60"/>
<text text-anchor="middle" x="837" y="-36.58" font-family="Times New Roman,serif" font-size="14.00">Analyzer</text>
</g>
<!-- ReportMatcher&#45;&gt;AnalyzerMatching -->
<g id="edge25" class="edge">
<title>ReportMatcher&#45;&gt;AnalyzerMatching</title>
<path fill="none" stroke="black" d="M837,-96.81C837,-89.23 837,-80.1 837,-71.54"/>
<polygon fill="black" stroke="black" points="840.5,-71.54 837,-61.54 833.5,-71.54 840.5,-71.54"/>
</g>
<!-- TransformerMatchingValidation -->
<g id="node17" class="node">
<title>TransformerMatchingValidation</title>
<polygon fill="cornflowerblue" stroke="black" points="1064.88,-293.75 979.12,-293.75 979.12,-257.75 1064.88,-257.75 1064.88,-293.75"/>
<text text-anchor="middle" x="1022" y="-270.32" font-family="Times New Roman,serif" font-size="14.00">Transformer</text>
</g>
<!-- MatherMatchingValidation -->
<g id="node18" class="node">
<title>MatherMatchingValidation</title>
<polygon fill="cornflowerblue" stroke="black" points="1052.88,-220.75 991.12,-220.75 991.12,-184.75 1052.88,-184.75 1052.88,-220.75"/>
<text text-anchor="middle" x="1022" y="-197.32" font-family="Times New Roman,serif" font-size="14.00">Matcher</text>
</g>
<!-- TransformerMatchingValidation&#45;&gt;MatherMatchingValidation -->
<g id="edge18" class="edge">
<title>TransformerMatchingValidation&#45;&gt;MatherMatchingValidation</title>
<path fill="none" stroke="black" d="M1022,-257.56C1022,-249.98 1022,-240.85 1022,-232.29"/>
<polygon fill="black" stroke="black" points="1025.5,-232.29 1022,-222.29 1018.5,-232.29 1025.5,-232.29"/>
</g>
<!-- TransformerMatchingValidation&#45;&gt;ValidationMatching -->
<g id="edge24" class="edge">
<title>TransformerMatchingValidation&#45;&gt;ValidationMatching</title>
<path fill="none" stroke="black" d="M964,-234.38C960.45,-231.91 956.95,-229.47 953.56,-227.11"/>
<polygon fill="black" stroke="black" points="943.17,-224.75 947.74,-218.19 954.31,-222.76 949.74,-229.32 943.17,-224.75"/>
<polyline fill="none" stroke="black" points="952.02,-226.04 953.67,-227.18"/>
</g>
<!-- MetricMatchingValidation -->
<g id="node30" class="node">
<title>MetricMatchingValidation</title>
<polygon fill="violet" stroke="black" points="1026,-133 976,-133 972,-129 972,-97 1022,-97 1026,-101 1026,-133"/>
<polyline fill="none" stroke="black" points="1022,-129 972,-129"/>
<polyline fill="none" stroke="black" points="1022,-129 1022,-97"/>
<polyline fill="none" stroke="black" points="1022,-129 1026,-133"/>
<text text-anchor="middle" x="999" y="-109.58" font-family="Times New Roman,serif" font-size="14.00">Metric</text>
</g>
<!-- MatherMatchingValidation&#45;&gt;MetricMatchingValidation -->
<g id="edge19" class="edge">
<title>MatherMatchingValidation&#45;&gt;MetricMatchingValidation</title>
<path fill="none" stroke="black" d="M1017.35,-184.4C1014.26,-172.89 1010.14,-157.53 1006.58,-144.28"/>
<polygon fill="black" stroke="black" points="1010.01,-143.54 1004.04,-134.79 1003.25,-145.35 1010.01,-143.54"/>
</g>
<!-- StatsMatchingValidation -->
<g id="node31" class="node">
<title>StatsMatchingValidation</title>
<polygon fill="violet" stroke="black" points="1098,-133 1048,-133 1044,-129 1044,-97 1094,-97 1098,-101 1098,-133"/>
<polyline fill="none" stroke="black" points="1094,-129 1044,-129"/>
<polyline fill="none" stroke="black" points="1094,-129 1094,-97"/>
<polyline fill="none" stroke="black" points="1094,-129 1098,-133"/>
<text text-anchor="middle" x="1071" y="-109.58" font-family="Times New Roman,serif" font-size="14.00">Stats</text>
</g>
<!-- MatherMatchingValidation&#45;&gt;StatsMatchingValidation -->
<g id="edge20" class="edge">
<title>MatherMatchingValidation&#45;&gt;StatsMatchingValidation</title>
<path fill="none" stroke="black" d="M1031.92,-184.4C1038.69,-172.54 1047.8,-156.59 1055.53,-143.08"/>
<polygon fill="black" stroke="black" points="1058.43,-145.06 1060.35,-134.64 1052.35,-141.59 1058.43,-145.06"/>
</g>
<!-- ReportMatchingValidation -->
<g id="node19" class="node">
<title>ReportMatchingValidation</title>
<polygon fill="cornflowerblue" stroke="black" points="1098.5,-60 1043.5,-60 1043.5,-24 1098.5,-24 1098.5,-60"/>
<text text-anchor="middle" x="1071" y="-36.58" font-family="Times New Roman,serif" font-size="14.00">Report</text>
</g>
<!-- ReportMatchingValidation&#45;&gt;TransformerMatchingValidation -->
<g id="edge23" class="edge">
<title>ReportMatchingValidation&#45;&gt;TransformerMatchingValidation</title>
<path fill="none" stroke="black" d="M1088.84,-60.1C1095.94,-68.12 1103.3,-78.26 1107,-89 1113.37,-107.49 1111.59,-113.99 1107,-133 1096.22,-177.66 1065.67,-221.91 1044.3,-248.79"/>
<polygon fill="black" stroke="black" points="1041.73,-246.41 1038.13,-256.37 1047.16,-250.82 1041.73,-246.41"/>
<text text-anchor="middle" x="1120.88" y="-153.45" font-family="Times New Roman,serif" font-size="14.00">n times</text>
</g>
<!-- SpliterAAOne -->
<g id="node20" class="node">
<title>SpliterAAOne</title>
<polygon fill="cornflowerblue" stroke="black" points="465,-483.25 411,-483.25 411,-447.25 465,-447.25 465,-483.25"/>
<text text-anchor="middle" x="438" y="-459.82" font-family="Times New Roman,serif" font-size="14.00">Spliter</text>
</g>
<!-- StatsAA -->
<g id="node32" class="node">
<title>StatsAA</title>
<polygon fill="violet" stroke="black" points="402,-388.5 352,-388.5 348,-384.5 348,-352.5 398,-352.5 402,-356.5 402,-388.5"/>
<polyline fill="none" stroke="black" points="398,-384.5 348,-384.5"/>
<polyline fill="none" stroke="black" points="398,-384.5 398,-352.5"/>
<polyline fill="none" stroke="black" points="398,-384.5 402,-388.5"/>
<text text-anchor="middle" x="375" y="-365.07" font-family="Times New Roman,serif" font-size="14.00">Stats</text>
</g>
<!-- SpliterAAOne&#45;&gt;StatsAA -->
<g id="edge27" class="edge">
<title>SpliterAAOne&#45;&gt;StatsAA</title>
<path fill="none" stroke="black" d="M426.15,-446.8C416.82,-433.07 403.67,-413.71 393.03,-398.05"/>
<polygon fill="black" stroke="black" points="396.16,-396.42 387.65,-390.12 390.37,-400.36 396.16,-396.42"/>
</g>
<!-- SpliterAAOne&#45;&gt;SpliterAAPipeline -->
<g id="edge30" class="edge">
<title>SpliterAAOne&#45;&gt;SpliterAAPipeline</title>
<path fill="none" stroke="black" d="M486,-424.4C487.37,-423.02 488.7,-421.63 490,-420.25 496.65,-413.14 503.2,-404.8 508.85,-397.05"/>
<polygon fill="black" stroke="black" points="511.03,-387.05 517.56,-391.68 512.93,-398.21 506.41,-393.58 511.03,-387.05"/>
<polyline fill="none" stroke="black" points="509.67,-395.89 508.51,-397.52"/>
</g>
<!-- ReportAAOneSplit -->
<g id="node21" class="node">
<title>ReportAAOneSplit</title>
<polygon fill="cornflowerblue" stroke="black" points="448.5,-293.75 393.5,-293.75 393.5,-257.75 448.5,-257.75 448.5,-293.75"/>
<text text-anchor="middle" x="421" y="-270.32" font-family="Times New Roman,serif" font-size="14.00">Report</text>
</g>
<!-- ReportAAOneSplit&#45;&gt;SpliterAAOne -->
<g id="edge29" class="edge">
<title>ReportAAOneSplit&#45;&gt;SpliterAAOne</title>
<path fill="none" stroke="black" d="M422.57,-294.01C425.49,-326.28 431.82,-396.04 435.39,-435.51"/>
<polygon fill="black" stroke="black" points="431.91,-435.8 436.29,-445.44 438.88,-435.16 431.91,-435.8"/>
<text text-anchor="middle" x="453.88" y="-365.07" font-family="Times New Roman,serif" font-size="14.00">n times</text>
</g>
<!-- ReportAABest -->
<g id="node22" class="node">
<title>ReportAABest</title>
<polygon fill="cornflowerblue" stroke="black" points="519.5,-133 464.5,-133 464.5,-97 519.5,-97 519.5,-133"/>
<text text-anchor="middle" x="492" y="-109.58" font-family="Times New Roman,serif" font-size="14.00">Report</text>
</g>
<!-- AnalyzerAA -->
<g id="node37" class="node">
<title>AnalyzerAA</title>
<polygon fill="violet" stroke="black" points="524.38,-60 463.62,-60 459.62,-56 459.62,-24 520.38,-24 524.38,-28 524.38,-60"/>
<polyline fill="none" stroke="black" points="520.38,-56 459.62,-56"/>
<polyline fill="none" stroke="black" points="520.38,-56 520.38,-24"/>
<polyline fill="none" stroke="black" points="520.38,-56 524.38,-60"/>
<text text-anchor="middle" x="492" y="-36.58" font-family="Times New Roman,serif" font-size="14.00">Analyzer</text>
</g>
<!-- ReportAABest&#45;&gt;AnalyzerAA -->
<g id="edge36" class="edge">
<title>ReportAABest&#45;&gt;AnalyzerAA</title>
<path fill="none" stroke="black" d="M492,-96.81C492,-89.23 492,-80.1 492,-71.54"/>
<polygon fill="black" stroke="black" points="495.5,-71.54 492,-61.54 488.5,-71.54 495.5,-71.54"/>
</g>
<!-- pipeline -->
<g id="node23" class="node">
<title>pipeline</title>
<polygon fill="violet" stroke="black" points="439.38,-886 384.62,-886 380.62,-882 380.62,-850 435.38,-850 439.38,-854 439.38,-886"/>
<polyline fill="none" stroke="black" points="435.38,-882 380.62,-882"/>
<polyline fill="none" stroke="black" points="435.38,-882 435.38,-850"/>
<polyline fill="none" stroke="black" points="435.38,-882 439.38,-886"/>
<text text-anchor="middle" x="410" y="-862.58" font-family="Times New Roman,serif" font-size="14.00">pipeline</text>
</g>
<!-- SelectorsMatching&#45;&gt;Matcher -->
<g id="edge11" class="edge">
<title>SelectorsMatching&#45;&gt;Matcher</title>
<path fill="none" stroke="black" d="M778.95,-352.05C781.94,-338.84 786.11,-320.41 789.58,-305.09"/>
<polygon fill="black" stroke="black" points="792.94,-306.12 791.73,-295.59 786.11,-304.57 792.94,-306.12"/>
</g>
<!-- StatsMatcher&#45;&gt;ReportMatcher -->
<g id="edge15" class="edge">
<title>StatsMatcher&#45;&gt;ReportMatcher</title>
<path fill="none" stroke="black" d="M777.98,-184.4C788.51,-172.19 802.78,-155.65 814.66,-141.89"/>
<polygon fill="black" stroke="black" points="817.17,-144.33 821.06,-134.47 811.88,-139.76 817.17,-144.33"/>
</g>
<!-- MetricsMatcher&#45;&gt;ReportMatcher -->
<g id="edge16" class="edge">
<title>MetricsMatcher&#45;&gt;ReportMatcher</title>
<path fill="none" stroke="black" d="M837,-184.4C837,-173.01 837,-157.84 837,-144.68"/>
<polygon fill="black" stroke="black" points="840.5,-144.84 837,-134.84 833.5,-144.84 840.5,-144.84"/>
</g>
<!-- ValidationMatching&#45;&gt;ReportMatcher -->
<g id="edge17" class="edge">
<title>ValidationMatching&#45;&gt;ReportMatcher</title>
<path fill="none" stroke="black" d="M903.2,-184.4C891.28,-172.08 875.07,-155.34 861.68,-141.5"/>
<polygon fill="black" stroke="black" points="864.29,-139.17 854.82,-134.41 859.26,-144.03 864.29,-139.17"/>
</g>
<!-- MetricMatchingValidation&#45;&gt;ReportMatchingValidation -->
<g id="edge21" class="edge">
<title>MetricMatchingValidation&#45;&gt;ReportMatchingValidation</title>
<path fill="none" stroke="black" d="M1016.43,-96.81C1025.12,-88.24 1035.8,-77.71 1045.4,-68.24"/>
<polygon fill="black" stroke="black" points="1047.74,-70.85 1052.4,-61.34 1042.83,-65.87 1047.74,-70.85"/>
</g>
<!-- StatsMatchingValidation&#45;&gt;ReportMatchingValidation -->
<g id="edge22" class="edge">
<title>StatsMatchingValidation&#45;&gt;ReportMatchingValidation</title>
<path fill="none" stroke="black" d="M1071,-96.81C1071,-89.23 1071,-80.1 1071,-71.54"/>
<polygon fill="black" stroke="black" points="1074.5,-71.54 1071,-61.54 1067.5,-71.54 1074.5,-71.54"/>
</g>
<!-- StatsAA&#45;&gt;ReportAAOneSplit -->
<g id="edge28" class="edge">
<title>StatsAA&#45;&gt;ReportAAOneSplit</title>
<path fill="none" stroke="black" d="M383.65,-352.05C390.33,-338.58 399.71,-319.68 407.39,-304.19"/>
<polygon fill="black" stroke="black" points="410.41,-305.99 411.71,-295.47 404.14,-302.88 410.41,-305.99"/>
</g>
<!-- AnalyzerAASplit -->
<g id="node34" class="node">
<title>AnalyzerAASplit</title>
<polygon fill="violet" stroke="black" points="558.38,-293.75 497.62,-293.75 493.62,-289.75 493.62,-257.75 554.38,-257.75 558.38,-261.75 558.38,-293.75"/>
<polyline fill="none" stroke="black" points="554.38,-289.75 493.62,-289.75"/>
<polyline fill="none" stroke="black" points="554.38,-289.75 554.38,-257.75"/>
<polyline fill="none" stroke="black" points="554.38,-289.75 558.38,-293.75"/>
<text text-anchor="middle" x="526" y="-270.32" font-family="Times New Roman,serif" font-size="14.00">Analyzer</text>
</g>
<!-- SpliterAAPipeline&#45;&gt;AnalyzerAASplit -->
<g id="edge31" class="edge">
<title>SpliterAAPipeline&#45;&gt;AnalyzerAASplit</title>
<path fill="none" stroke="black" d="M526,-352.05C526,-338.97 526,-320.77 526,-305.54"/>
<polygon fill="black" stroke="black" points="529.5,-305.63 526,-295.63 522.5,-305.63 529.5,-305.63"/>
</g>
<!-- MetricsAASplit -->
<g id="node35" class="node">
<title>MetricsAASplit</title>
<polygon fill="violet" stroke="black" points="484,-220.75 430,-220.75 426,-216.75 426,-184.75 480,-184.75 484,-188.75 484,-220.75"/>
<polyline fill="none" stroke="black" points="480,-216.75 426,-216.75"/>
<polyline fill="none" stroke="black" points="480,-216.75 480,-184.75"/>
<polyline fill="none" stroke="black" points="480,-216.75 484,-220.75"/>
<text text-anchor="middle" x="455" y="-197.32" font-family="Times New Roman,serif" font-size="14.00">Metrics</text>
</g>
<!-- AnalyzerAASplit&#45;&gt;MetricsAASplit -->
<g id="edge32" class="edge">
<title>AnalyzerAASplit&#45;&gt;MetricsAASplit</title>
<path fill="none" stroke="black" d="M508.81,-257.56C500.18,-248.93 489.56,-238.31 480.03,-228.78"/>
<polygon fill="black" stroke="black" points="482.65,-226.45 473.1,-221.85 477.7,-231.4 482.65,-226.45"/>
</g>
<!-- StatsAASplit -->
<g id="node36" class="node">
<title>StatsAASplit</title>
<polygon fill="violet" stroke="black" points="556,-220.75 506,-220.75 502,-216.75 502,-184.75 552,-184.75 556,-188.75 556,-220.75"/>
<polyline fill="none" stroke="black" points="552,-216.75 502,-216.75"/>
<polyline fill="none" stroke="black" points="552,-216.75 552,-184.75"/>
<polyline fill="none" stroke="black" points="552,-216.75 556,-220.75"/>
<text text-anchor="middle" x="529" y="-197.32" font-family="Times New Roman,serif" font-size="14.00">Stats</text>
</g>
<!-- AnalyzerAASplit&#45;&gt;StatsAASplit -->
<g id="edge33" class="edge">
<title>AnalyzerAASplit&#45;&gt;StatsAASplit</title>
<path fill="none" stroke="black" d="M526.73,-257.56C527.05,-249.89 527.44,-240.64 527.81,-231.99"/>
<polygon fill="black" stroke="black" points="531.29,-232.43 528.22,-222.29 524.3,-232.13 531.29,-232.43"/>
</g>
<!-- MetricsAASplit&#45;&gt;ReportAABest -->
<g id="edge34" class="edge">
<title>MetricsAASplit&#45;&gt;ReportAABest</title>
<path fill="none" stroke="black" d="M462.49,-184.4C467.5,-172.77 474.22,-157.22 479.97,-143.88"/>
<polygon fill="black" stroke="black" points="483.18,-145.29 483.92,-134.72 476.75,-142.51 483.18,-145.29"/>
</g>
<!-- StatsAASplit&#45;&gt;ReportAABest -->
<g id="edge35" class="edge">
<title>StatsAASplit&#45;&gt;ReportAABest</title>
<path fill="none" stroke="black" d="M521.51,-184.4C516.5,-172.77 509.78,-157.22 504.03,-143.88"/>
<polygon fill="black" stroke="black" points="507.25,-142.51 500.08,-134.72 500.82,-145.29 507.25,-142.51"/>
</g>
<!-- MetricsAB -->
<g id="node39" class="node">
<title>MetricsAB</title>
<polygon fill="violet" stroke="black" points="640,-293.75 586,-293.75 582,-289.75 582,-257.75 636,-257.75 640,-261.75 640,-293.75"/>
<polyline fill="none" stroke="black" points="636,-289.75 582,-289.75"/>
<polyline fill="none" stroke="black" points="636,-289.75 636,-257.75"/>
<polyline fill="none" stroke="black" points="636,-289.75 640,-293.75"/>
<text text-anchor="middle" x="611" y="-270.32" font-family="Times New Roman,serif" font-size="14.00">Metrics</text>
</g>
<!-- SelectorAB&#45;&gt;MetricsAB -->
<g id="edge38" class="edge">
<title>SelectorAB&#45;&gt;MetricsAB</title>
<path fill="none" stroke="black" d="M666.21,-352.05C656.14,-338.32 641.94,-318.96 630.47,-303.3"/>
<polygon fill="black" stroke="black" points="633.36,-301.33 624.63,-295.34 627.72,-305.47 633.36,-301.33"/>
</g>
<!-- StatsAB -->
<g id="node40" class="node">
<title>StatsAB</title>
<polygon fill="violet" stroke="black" points="712,-293.75 662,-293.75 658,-289.75 658,-257.75 708,-257.75 712,-261.75 712,-293.75"/>
<polyline fill="none" stroke="black" points="708,-289.75 658,-289.75"/>
<polyline fill="none" stroke="black" points="708,-289.75 708,-257.75"/>
<polyline fill="none" stroke="black" points="708,-289.75 712,-293.75"/>
<text text-anchor="middle" x="685" y="-270.32" font-family="Times New Roman,serif" font-size="14.00">Stats</text>
</g>
<!-- SelectorAB&#45;&gt;StatsAB -->
<g id="edge39" class="edge">
<title>SelectorAB&#45;&gt;StatsAB</title>
<path fill="none" stroke="black" d="M680.13,-352.05C680.97,-338.97 682.15,-320.77 683.14,-305.54"/>
<polygon fill="black" stroke="black" points="686.63,-305.83 683.78,-295.63 679.64,-305.38 686.63,-305.83"/>
</g>
<!-- AnalyzerAB -->
<g id="node41" class="node">
<title>AnalyzerAB</title>
<polygon fill="violet" stroke="black" points="664.38,-220.75 603.62,-220.75 599.62,-216.75 599.62,-184.75 660.38,-184.75 664.38,-188.75 664.38,-220.75"/>
<polyline fill="none" stroke="black" points="660.38,-216.75 599.62,-216.75"/>
<polyline fill="none" stroke="black" points="660.38,-216.75 660.38,-184.75"/>
<polyline fill="none" stroke="black" points="660.38,-216.75 664.38,-220.75"/>
<text text-anchor="middle" x="632" y="-197.32" font-family="Times New Roman,serif" font-size="14.00">Analyzer</text>
</g>
<!-- MetricsAB&#45;&gt;AnalyzerAB -->
<g id="edge40" class="edge">
<title>MetricsAB&#45;&gt;AnalyzerAB</title>
<path fill="none" stroke="black" d="M616.08,-257.56C618.38,-249.8 621.15,-240.43 623.73,-231.7"/>
<polygon fill="black" stroke="black" points="627.05,-232.81 626.53,-222.23 620.34,-230.83 627.05,-232.81"/>
</g>
<!-- StatsAB&#45;&gt;AnalyzerAB -->
<g id="edge41" class="edge">
<title>StatsAB&#45;&gt;AnalyzerAB</title>
<path fill="none" stroke="black" d="M672.17,-257.56C665.99,-249.28 658.43,-239.16 651.55,-229.94"/>
<polygon fill="black" stroke="black" points="654.4,-227.91 645.62,-221.99 648.79,-232.1 654.4,-227.91"/>
</g>
<!-- ReportAB -->
<g id="node42" class="node">
<title>ReportAB</title>
<polygon fill="violet" stroke="black" points="659.5,-133 608.5,-133 604.5,-129 604.5,-97 655.5,-97 659.5,-101 659.5,-133"/>
<polyline fill="none" stroke="black" points="655.5,-129 604.5,-129"/>
<polyline fill="none" stroke="black" points="655.5,-129 655.5,-97"/>
<polyline fill="none" stroke="black" points="655.5,-129 659.5,-133"/>
<text text-anchor="middle" x="632" y="-109.58" font-family="Times New Roman,serif" font-size="14.00">Report</text>
</g>
<!-- AnalyzerAB&#45;&gt;ReportAB -->
<g id="edge42" class="edge">
<title>AnalyzerAB&#45;&gt;ReportAB</title>
<path fill="none" stroke="black" d="M632,-184.4C632,-173.01 632,-157.84 632,-144.68"/>
<polygon fill="black" stroke="black" points="635.5,-144.84 632,-134.84 628.5,-144.84 635.5,-144.84"/>
</g>
</g>
</svg>
